<svg id="Componente_37_1" data-name="Componente 37 – 1" xmlns="http://www.w3.org/2000/svg" xmlns:xlink="http://www.w3.org/1999/xlink" width="327.269" height="234.396" viewBox="0 0 327.269 234.396">
  <defs>
    <linearGradient id="linear-gradient" x1="0.5" y1="1" x2="0.5" gradientUnits="objectBoundingBox">
      <stop offset="0" stop-color="gray" stop-opacity="0.251"/>
      <stop offset="0.54" stop-color="gray" stop-opacity="0.122"/>
      <stop offset="1" stop-color="gray" stop-opacity="0.102"/>
    </linearGradient>
  </defs>
  <path id="Caminho_7824" data-name="Caminho 7824" d="M63.9,473.36c5.18,21.277,16.141,39.673,33.467,48.583,36,18.528,117.2,8.972,177.806-1.995a140.179,140.179,0,0,0,78.913-43.365Z" transform="translate(-60.362 -350.066)" fill="#f9267b" opacity="0.1"/>
  <path id="Caminho_7825" data-name="Caminho 7825" d="M401.735,78.076H368.486a2.764,2.764,0,1,1,0-5.525h5.746a2.764,2.764,0,1,1,0-5.525h-4.1a2.764,2.764,0,1,1,0-5.525h17.355a47.137,47.137,0,0,0-13.554-3.586c-47.322-5.843-64.218-1.977-70.179,2a67.67,67.67,0,0,1-24.321,10.248c-29.183,5.79-83.783,12.756-133.286-2.231-24.589-7.446-42.873,5.139-53.831,26.175H407.5A47.741,47.741,0,0,0,403.6,77.4,2.908,2.908,0,0,1,401.735,78.076Z" transform="translate(-80.401 -54.931)" fill="#f9267b" opacity="0.1"/>
  <path id="Caminho_7826" data-name="Caminho 7826" d="M254.708,334.027l-.433-.024-4.526-.256L206.387,331.3l-4.685-.265-69.039-3.878-19.35-1.09-3.064-.171-2.72-.153L52.613,322.65A135.229,135.229,0,0,0,53.9,359.777l46.2,1.621,3.663.133.648.021,21.917.772,1.179.041,2.528.088,22.1.778,3.029.106,10.567.374h.2l1.553.056,5.289.186h0l4.641.162,8.84.312h.186l.79.027.834.032h.183l14.091.492,3.948.141h.165l1.9.068h.5l1.671.062,5.1.18h0l1.915.068,2.46.085h.091l3.377.118,9.786.368,2.687.091h.295l13.018.46,7.558.265,9.423.362,1.509.05,2.437.085,8.857.312,66.814,2.357a131.516,131.516,0,0,0,20.281-29.737ZM129.083,354.653a2.929,2.929,0,0,1-1.915-.707h0a2.914,2.914,0,0,1-.607-.737,2.682,2.682,0,0,1-.351-1.317,2.652,2.652,0,0,1,.474-1.512A3.09,3.09,0,0,1,127,350a2.92,2.92,0,0,1,2.08-.86h5.746a2.764,2.764,0,1,1,0-5.525h-4.1a2.673,2.673,0,0,1-.268,0,2.761,2.761,0,0,1,.268-5.513h33.249a2.764,2.764,0,1,1,0,5.525h4.1a2.764,2.764,0,1,1,0,5.525h-5.746a2.764,2.764,0,1,1,0,5.525Z" transform="translate(-51.896 -243.765)" fill="#f9267b" opacity="0.1"/>
  <path id="Caminho_7827" data-name="Caminho 7827" d="M380.839,188.54,151.488,193.9l-25.208.589-64.168,1.5A117.778,117.778,0,0,0,54.48,227.63H375.255a126.869,126.869,0,0,0,4.629-20.167A91.791,91.791,0,0,0,380.839,188.54ZM119.181,212.958h-5.746a2.826,2.826,0,0,1,2.873,2.761v.168a2.746,2.746,0,0,1-1.273,2.13,2.947,2.947,0,0,1-1.594.466H80.192a2.764,2.764,0,1,1,0-5.525h5.749a2.764,2.764,0,1,1,0-5.525h-4.1a2.764,2.764,0,1,1,0-5.525h33.249a2.764,2.764,0,1,1,0,5.525h4.1a2.947,2.947,0,0,1,1.364.336,2.758,2.758,0,0,1,1.512,2.428,2.832,2.832,0,0,1-2.876,2.761Z" transform="translate(-53.718 -149.171)" fill="#f9267b" opacity="0.1"/>
  <path id="Caminho_7852" data-name="Caminho 7852" d="M631.7,137.54l5.13,1.084a35.985,35.985,0,0,0-5.13-1.084Z" transform="translate(-460.855 -113.198)" fill="#dea3a2"/>
  <path id="Caminho_7853" data-name="Caminho 7853" d="M831.79,610.423a15.22,15.22,0,0,1,10.26-1.282c5.932,1.282,15.013.589,15.841.463Z" transform="translate(-601.985 -445.585)" opacity="0.1"/>
  <path id="Caminho_7854" data-name="Caminho 7854" d="M893.483,377.73s1.444,22.759-1.123,27.247Z" transform="translate(-644.708 -282.614)" opacity="0.1"/>
  <path id="Caminho_7855" data-name="Caminho 7855" d="M906.19,470.2s-1.848,21.319-3.129,25.485S906.19,470.2,906.19,470.2Z" transform="translate(-652.091 -347.837)" opacity="0.1"/>
  <path id="Caminho_7858" data-name="Caminho 7858" d="M952.7,382c-.648,6.609-1,10.938-.589,16.227a62.234,62.234,0,0,1-.177,12.34Z" transform="translate(-686.726 -285.626)" opacity="0.1"/>
  <path id="Caminho_7859" data-name="Caminho 7859" d="M716.13,120.77a5.283,5.283,0,0,1,1.093,3.35c.038,1.2-.118,2.4-.038,3.592.085,1.258.681,2.734,1.93,2.9Z" transform="translate(-520.407 -101.37)" opacity="0.1"/>
  <path id="Caminho_7860" data-name="Caminho 7860" d="M911.042,99.25a13.728,13.728,0,0,0-2.614,1.8,4.676,4.676,0,0,0-1.52,2.723c-.056.448-.027.908-.127,1.35a4.258,4.258,0,0,1-.884,1.635,22.233,22.233,0,0,1-2.207,2.443" transform="translate(-652.7 -86.191)" fill="none"/>
  <path id="Caminho_7861" data-name="Caminho 7861" d="M902.83,192.492a16.2,16.2,0,0,1,2.107-1.473,8.868,8.868,0,0,1,2.166-.952,24.918,24.918,0,0,1,3.577-.386,5.055,5.055,0,0,0,3.262-1.341Z" transform="translate(-652.093 -149.03)" opacity="0.1"/>
  <path id="Caminho_7862" data-name="Caminho 7862" d="M1042.794,152.51a9.544,9.544,0,0,0-4.149.737c-.642.333-1.2.8-1.833,1.158a5.575,5.575,0,0,1-2.672.7Z" transform="translate(-744.712 -123.758)" opacity="0.1"/>
  <path id="Caminho_7863" data-name="Caminho 7863" d="M996.84,172.082a.791.791,0,0,1,1.017.239c.25.292.395.666.654.949a2.943,2.943,0,0,0,2.122.651Z" transform="translate(-718.401 -137.486)" opacity="0.1"/>
  <path id="Caminho_7864" data-name="Caminho 7864" d="M956.475,70.21l-1.361.713a24.719,24.719,0,0,0-4.013,2.449Z" transform="translate(-686.14 -65.708)" opacity="0.1"/>
  <path id="Caminho_7865" data-name="Caminho 7865" d="M908.417,115.318c-.884-.212-1.668.743-1.827,1.647a25.54,25.54,0,0,1-.23,2.743,5.083,5.083,0,0,1-1.341,2.013Z" transform="translate(-653.638 -97.504)" opacity="0.1"/>
  <path id="Caminho_7890" data-name="Caminho 7890" d="M494.8,336.112c-1.2-1.02-4.785-7.284-5.8-9.076l-.265-.477h0c.371-1.394-1.957-3.421-2.634-3.978-1.429-1.68-3.477-3.772-5.165-4.273-2.163-.639-3.674.08-5.3-.2a4.143,4.143,0,0,1-1.146-.368,5.72,5.72,0,0,1-.687-.407,8.394,8.394,0,0,1-1.556-1.488,3.383,3.383,0,0,0,.884-.233q2.519-.94,4.95-2.092a1.559,1.559,0,0,0,.869-.731c.059-.153.068-.324.138-.471a1.329,1.329,0,0,1,.884-.563c1.243-.377,2.593-1.12,2.8-2.4a3.239,3.239,0,0,0,.029-.507,2.154,2.154,0,0,1-.236.374c.044-.433-.024-.884.041-1.305a2.617,2.617,0,0,1,.43-1.037,3.47,3.47,0,0,0-.024.427c.483-1.046,1.647-1.8,2.03-2.932a3.274,3.274,0,0,0,.153-.928,3.24,3.24,0,0,1-.265.5c.215-1.276-.345-2.72.312-3.831.044-.074.094-.147.144-.215a3.538,3.538,0,0,0-.038.436c.032-.074.068-.147.109-.221.309-.525.857-.911,1.017-1.5a1.715,1.715,0,0,0,.024-.66,2.949,2.949,0,0,1-.2.274,3.693,3.693,0,0,0-.121-.816c-.469-2.021-1.152-4.317-3.047-5.157a5.711,5.711,0,0,1-1.7-.793c-1.052-.978-.483-3.07-1.694-3.831-.533-.339-1.352-.374-1.556-.972-.115-.339.041-.728-.085-1.067-.268-.722-1.32-.463-2.089-.436a1.907,1.907,0,0,1-2.013-1.954,5.6,5.6,0,0,0-4.644-.218,5.353,5.353,0,0,1-2.375.743c-.4-.038-.778-.209-1.179-.28-1.65-.295-3.062,1.123-4.632,1.709-1.635.61-3.645.368-4.947,1.535-1.143,1.028-1.353,2.849-2.564,3.8-.645.5-1.473.681-2.16,1.14s-1.146,1.45-.628,2.083c.654.8,2.334.371,2.652,1.355.256.793-.728,1.382-1.1,2.122a1.647,1.647,0,0,0,1.134,2.269h0v.024a10.673,10.673,0,0,0,5.086,12.835c.147.265.295.563.46.884a22.422,22.422,0,0,1,2.3,6.86c-1.1-.362-3.421,1.747-3.421,1.747a25.316,25.316,0,0,1-3.574.651c-2.478.324-2.278,1.294-2.275,1.3l-.156.141c-1.282,1.123-9.995,8.919-11.391,9.214l.074.295-.359.265-4.317,3.2h0s-3.306.218-6.556.589-7.856,1.358-4.5,5.266a1.99,1.99,0,0,0,.295.295l-13.03-.772a.572.572,0,0,0,.144-.345c0-.295-.336-.589-.913-.81l-.021-.091c1.641-.047,3.68-.121,5.042-.245.354-.035.657-.071.884-.109,2.033-.327-.162-1.874.813-3.094s0-5.784.08-6.76-.648-4.885-1.3-5.7-.731-4.317-.731-4.317-1.544-1.385-2.437-6.108-4.47-7.166-5.6-7.411a6.242,6.242,0,0,1-2.843-1.473c0-.253-1.951-.327-2.764-.651a8.874,8.874,0,0,0-1.868-.816h0a3.625,3.625,0,0,0,.575-.86,1.984,1.984,0,0,1,.7-.787,1.042,1.042,0,0,1,.18-.074.7.7,0,0,1,.192-.026.554.554,0,0,1,.194.026c.242.068.489.271.7.15a.257.257,0,0,0,.08-.068.658.658,0,0,0,.127-.295h0c.027-.121.047-.245.062-.368v-.027c.015-.127.024-.253.029-.38h0a6.18,6.18,0,0,1,.342-2.67l.027-.038h0a7.18,7.18,0,0,1,1.962-1.741q.212-.171.407-.362c.05-.047.094-.1.144-.153s.15-.156.221-.239.112-.144.168-.215.106-.138.153-.209.118-.174.174-.265.074-.118.106-.177.115-.206.168-.315c.024-.047.047-.1.068-.144.056-.118.106-.239.153-.359.015-.038.027-.077.038-.112.05-.136.094-.268.133-.407v-.068a5.48,5.48,0,0,0,.168-.884A5.8,5.8,0,0,0,406.6,289c-.751-.884-1.83-1.656-1.889-2.808a4.4,4.4,0,0,1,.354-1.579h0a3.933,3.933,0,0,0,.171-.678h0a1.869,1.869,0,0,0,.026-.315,3.156,3.156,0,0,0-1.179-2.207,7.567,7.567,0,0,0-6.81-1.8,5.384,5.384,0,0,1-1.9.309,6.506,6.506,0,0,1-2.039-.934,5.223,5.223,0,0,0-6.509,1.768c-.769,1.2-1.07,2.767-2.219,3.61-.678.5-1.615.716-2.1,1.361h0a1.43,1.43,0,0,0-.153.239,1.8,1.8,0,0,0-.174.807,5.5,5.5,0,0,0,.071.849A3.893,3.893,0,0,0,383.484,290h0l.168.177.038.041c.118.13.23.259.33.392l.018.027.091.13c-.041.05-.085.1-.124.147a9.783,9.783,0,0,0,1.444,13.666v.312c-.027.545-.065,1.123-.112,1.712a1.4,1.4,0,0,0-1.111-.386,1.179,1.179,0,0,0-.554.053,1.42,1.42,0,0,1-.318.065,6.428,6.428,0,0,0-1.217-.141,1.364,1.364,0,0,0-1.146.4,11.622,11.622,0,0,1-4.977,1.786.848.848,0,0,1-.295-.074.722.722,0,0,0-.448-.041c-.857-.192-3.241,1.473-3.778,2.484-.569,1.058-2.437,3.907-2.437,3.907s-1.627,1.957-1.382,3.014a2.748,2.748,0,0,1-1.544,2.77c-.975.489-2.926,5.375-2.926,5.375s-2.113,4.479-4.308,5.619a2.737,2.737,0,0,0-1.146,2.578c-.507.027-.884.027-.884.027s-6.827,1.738-8.993.433-9.753-1.627-9.753-1.627l-7.744-8.277-.312-.336c1.367-1.164-.937-2.018-.937-2.873a1.39,1.39,0,0,0-.866-1.2s-.038.05-.1.118a1.511,1.511,0,0,0-.224-.118,2.143,2.143,0,0,1-.639.545c-.159-.1-.262-.41-.227-1.087a6.115,6.115,0,0,0-1.473-3.615,51.405,51.405,0,0,1,4.2-9.223c.08-.147.162-.295.242-.427a9.532,9.532,0,0,0,3.241-15c-.1-.115-.2-.224-.309-.333a2.031,2.031,0,0,1,.239-.068,1.769,1.769,0,0,1,.309-.029c.7.018,1.5.339,2.154.309a1.276,1.276,0,0,0,.6-.118c.713-.354.545-1.3.127-1.783-.516-.589-1.326-.981-1.7-1.641a5.247,5.247,0,0,1-.386-1.261,4.5,4.5,0,0,0-2.746-2.841,5.793,5.793,0,0,0-4.32.094c-.639.295-1.2.681-1.865.919a7.33,7.33,0,0,1-4.364-.171c-.828-.23-1.653-.5-2.493-.687a12.478,12.478,0,0,0-1.146-3.627c-.044-.091-.1-.177-.144-.268,1.414-.489,3.259-.4,4-1.682a2.817,2.817,0,0,0,1.341-.174.961.961,0,0,0,.548-1.12.884.884,0,0,0-.18-.271h0a3.378,3.378,0,0,0-.589-.445,3.483,3.483,0,0,1-1.5-2.681.105.105,0,0,0,.021.074,3.177,3.177,0,0,1,0-.374,16.159,16.159,0,0,0,.15-1.68,2.145,2.145,0,0,0-.159-.681v.044a2.481,2.481,0,0,0-2.331-1.588c-.368.018-.731.118-1.1.13-1.768.05-3.227-1.933-4.939-1.532a4.252,4.252,0,0,1-1.087.28c-.863,0-1.4-.99-2.222-1.249-.654-.209-1.367.08-2.063,0a4.886,4.886,0,0,1-1.792-.781c-1.235-.675-2.888-.972-3.969-.071a3.6,3.6,0,0,1-.772.619,2.239,2.239,0,0,1-1.12.065,10.38,10.38,0,0,0-3.344.227,1.261,1.261,0,0,0-.766.4,2.239,2.239,0,0,0-.242.781c-.33,1.282-1.909,1.715-3.227,1.824a1.856,1.856,0,0,0-.972.262,1.447,1.447,0,0,0-.25,1.65,7.84,7.84,0,0,1,.642,1.662c.192,1.473-1.408,2.614-1.674,4.09-.371,2.039,1.889,4.043,1.12,5.97-.339.854-1.246,1.515-1.205,2.434s.931,1.45,1.473,2.151a6.022,6.022,0,0,1,.946,2.357c.318,1.276.377,3.683,1.744,4.3h0a1.383,1.383,0,0,0,.177.071,2.015,2.015,0,0,0,.23.056c-.065.094-.127.189-.192.28a30.567,30.567,0,0,1-5.059,5.867c-.059.05-.121.1-.183.144a1.314,1.314,0,0,0-.722-.318c-.975-.109-3.468,1.629-3.468,2.5s-2.287,2.281-4.9,4.776-2.6,14.438-1.733,16.722a47.068,47.068,0,0,1,1.276,5.769,3.194,3.194,0,0,0-1.179,1.724c-.975,4.125.433,7.381,1.624,7.708s.9-1.417.9-1.417a7.044,7.044,0,0,1-.775-4.868c.436,2.673.775,4.868.775,4.868s3.144,9.989,4.334,13.03,5.419,22.043,5.419,22.043a18.9,18.9,0,0,0,1.291,1.429l.984,5.41,1.624,3.259h.121l-.245,2.322s.215,9.774-.327,11.238-5.363,28.016-5.363,28.016-1.518,9.338-1.408,11.618l3.521.76s-.7-2.01.327-5.755,3.032-10.749,3.032-10.749L295.862,412l.156,6.677s-1.842,8.306-1.473,8.74,3.194.589,3.194.589a39.133,39.133,0,0,1,.589-6.9c.519-2.13,6.27-24.2,7.732-29.814a13.864,13.864,0,0,1,6.353-1.025c7.3.407,11.383,3.076,13.663,5.814-5.23,2.764-9.635,5.045-9.635,5.045l.053.295h0l-.047.027-.112.068-.056.032-.106.065-.08.044-.121.074-.077.044-.147.085-.068.038-.483.295-.053.029-.209.121-.062.035-.221.127-.059.035-.25.144-.032.018-.295.165h0l-.295.171-.029.018-.268.15-.074.041-.218.124-.1.059-.2.109-.1.056-.221.121-.077.044-.295.162h0l-.277.15-.077.038-.209.112-.088.047-.183.094-.1.05-.18.094-.08.041-.212.106-.035.018-.236.118-.053.024-.165.08-.071.032-.133.059-.071.032-.115.047-.065.027-.106.041-.05.021-.133.044c-1.394.421-2.39,3.954-.884,6.226s1.193,6.226.4,7.741.2,4.208.4,4.883c.15.513,1.977,1.07,4.859.94a20.487,20.487,0,0,0,4.632-.351c4.582-.843,2.888-2.693,2.39-4.04a13.956,13.956,0,0,1,.1-6.983q.071-.186.124-.38c1.078-1.2,2.8-3.165,4.175-4.956.634-.825,2.234-1.559,4.178-2.183,1.556,6.379,4.656,19.009,5.339,21.024.919,2.714,1.408,9.394,1.408,9.394l3.574-.327-1.179-17.753-1.282-14.144c1.691-.295,3-.48,3.424-.539,1.744,6.712,3.4,13.106,3.671,14.206a39.132,39.132,0,0,1,.589,6.9s2.817-.162,3.2-.589-1.473-8.743-1.473-8.743l.345-14.692c4.046-1.895,8.966-4.181,11.141-5.127a70.548,70.548,0,0,0,8.283-4.832l5.009,40.884,2.926.245,1.565-.357,2.01-.457,4.6-36.853c.183.144.351.28.5.4a9.469,9.469,0,0,0,.189,3.63,15.845,15.845,0,0,1,.08,6.759c-.407,1.305-1.786,3.094,1.951,3.907s6.259.083,6.421-.569.975-3.259.324-4.715a10.549,10.549,0,0,1,.324-7.493c1.208-2.189.407-5.619-.731-6.026-.754-.271-1.862-.754-2.528-1.052l-.212-.268a5.519,5.519,0,0,1,1.768-1.532,3.024,3.024,0,0,0,1.544-3.174,4.442,4.442,0,0,0,3.495-2.446c1.025-1.712,2.207-3.421,2.826-4.659.124.787.265,1.768.345,2.6.162,1.738,2.166,18.622,3.088,20.037s.162,6.733.162,6.733h2.979l-.215-8.144s-3.359-23.941-.542-26.387c.492-.427.972-.866,1.429-1.3l5.557,40.637c-.015.295-.027.507-.035.666s-.018.295-.018.295-2.384,1.2-.648,2.387a4.438,4.438,0,0,0,1.226.513l.121.884a12.645,12.645,0,0,1-1.889,0c-.38-.162-.38,5.048-.38,5.048s-2.113,4.237-2.384,5.269a17.382,17.382,0,0,1-2.384,3.583s-3.035,2.225,1.409,3.094a25.593,25.593,0,0,0,9.317-.271s3.241-5.646,3.536-5.322,0,2.988,0,2.988l1.9-.489s-.327-3.536.433-5.431c.589-1.509-.71-6.273-1.276-8.168l.354.027a10.744,10.744,0,0,0,.651-2.608.593.593,0,0,1,.027-.177,25.216,25.216,0,0,1,1.058-4.166c.539-1.739,0-1.52,0-2.608a39.552,39.552,0,0,1,.589-5.578.817.817,0,0,1,.032-.165,2.6,2.6,0,0,0,.79.351c.324.9.666,1.936.884,2.8-.589.183-.987.395-1.052.639a12.312,12.312,0,0,0,.106,3.745s.486,5.758-.433,6.627-2.817,2.443-1.571,4.072a2.062,2.062,0,0,0,.433.4,8.649,8.649,0,0,0,4.29,1.179l-.713,10.637,3.542.33s.486-6.68,1.409-9.394c.2-.589.625-2.157,1.155-4.208,1.341-2.013,2.1-3.448,2.1-3.448l.922,3.8,3.194-.816s-1.733-3.365-1.517-4.558-.919-2.876-1.839-4.234c-.115-.168-.239-.383-.371-.628,1.37-5.56,2.59-10.608,2.59-10.608s.866-11.285,16.525-12.169a13.849,13.849,0,0,1,6.35,1.025c1.473,5.6,7.216,27.7,7.735,29.814a39.131,39.131,0,0,1,.589,6.9s2.817-.162,3.2-.589-1.473-8.74-1.473-8.74l.156-6.677,2.063,9.338s2,7,3.032,10.749.324,5.755.324,5.755l3.521-.76c.109-2.281-1.408-11.618-1.408-11.618s-4.821-26.549-5.363-28.016-.324-11.238-.324-11.238L472,379.226c3.831-2.7,5.982-17.108,5.982-17.108l4-22.341a27.061,27.061,0,0,0,1.591-3.583v-.021l.477.536,2.322,5.7c4.6,6.462,9.208,6.244,9.208,6.244a.327.327,0,0,0,.021-.047,3.05,3.05,0,0,0,2.357-.619l.047-.038C499.672,346.646,496.207,337.308,494.8,336.112Zm-81.3,13.5c-.265-1.067-.554-2.234-.857-3.459l.922-.018Zm-13.873-45.083a2.678,2.678,0,0,0-.277.194c-.085-.218-.165-.442-.245-.666A1.548,1.548,0,0,0,399.623,304.533ZM371.739,351.8a7.166,7.166,0,0,0-1.544,2.947l.348.08-2.508,2.242-1.264-10.864,6.114.265C372.541,349.156,372.149,351.269,371.739,351.8Zm5.932,22.642s1.261-.295,2.905-.772l-.522,3.919C378.581,375.679,377.671,374.444,377.671,374.444Zm-3.509-43.02.044-.1v.1Zm-31.272,26.95c-1.367-.619-11.026-3.586-14.541-4.662a.713.713,0,0,1-.085-.551c.327-1.084-2.166-4.016-3.141-4.776s-2.275-2.172-1.193-3.041a1.839,1.839,0,0,0,.527-.987l10.072.439a24.679,24.679,0,0,0,2.947.884s1.712-.224,3.963-.589l19.931.863,1.892,15.414a26.934,26.934,0,0,0-2.083,2,15.11,15.11,0,0,0-1.5,5.413l-10.4-3.241a1.494,1.494,0,0,0,.056-.162C350.323,361.794,344.569,359.134,342.889,358.373ZM324.659,341.84c-.018-.728-.08-1.276-.08-1.276l-.224-2.428c1.962,1.2,4.084,2.531,5.6,3.571ZM371.6,387.73l.215-.147a2.973,2.973,0,0,0,1.473-1.02c.869.757,1.68,1.456,2.39,2.063a16.794,16.794,0,0,1-3.669,2.67Zm41.512-16.975-.383,21.109-2.92-19.56C410.637,371.9,411.928,371.3,413.115,370.755Zm18.239-28.723s3.141,3.91,5.581,2.6h0c.548.071,4.541-2.086,7.1-3.506a11.623,11.623,0,0,0,1.241,1.5l1.55-.8.309-.159c.153,1.682.418,4.485.634,6.282.324,2.7-4.184,6.374-4.225,6.406h0s.018.136.029.348c-.221.2-.354.295-.354.295l.362-.065c.032.852-.029,2.357-.8,2.673a4.584,4.584,0,0,1-3.9.109,40.53,40.53,0,0,0-8.038-1.32c-3.763-.218-7.791.189-9.724,2.4-.068.08-.133.165-.194.253s-.065.1-.1.144a.951.951,0,0,0-.194.091.8.8,0,0,0,.029.183c-1.049,1.892-1.341,5.389-1.276,9.155l-.324.138-.159.074-.121.059c-.112.05-.224.106-.336.162l-.2.1-.259.138-.295.162-.168.1c-.124.071-.247.147-.371.227l-.088.056a4.872,4.872,0,0,0-.421.295l-.035.029c-.053.035-.1.074-.153.112l.365-24.2,16.027-.295L432.6,343.5l-2.475-.15A6.812,6.812,0,0,0,431.355,342.032Zm-114.973,60.3.088-.221c0-.018.015-.035.024-.056l.085-.194h0l.085.463c-.118.068-.236.138-.359.206.027-.065.05-.13.074-.192Zm56.631-2.5a23.968,23.968,0,0,0,4.234-1.179l-2.337,17.491ZM412.93,415.3c.212.05.433.1.66.144v.51l-.689.035Z" transform="translate(-210.919 -203.444)" fill="url(#linear-gradient)"/>
  <path id="Caminho_7892" data-name="Caminho 7892" d="M394.049,733.722a9.728,9.728,0,0,1-.1,4.523,13.941,13.941,0,0,0-.1,6.954c.489,1.355,2.186,3.182-2.384,4.022s-7.661.083-7.847-.589-1.193-3.35-.4-4.859,1.093-5.445-.4-7.708-.5-5.778.884-6.188,7.393-3.987,7.393-3.987-2.225,3.863.162,4.715a4.328,4.328,0,0,1,2.788,3.117Z" transform="translate(-284.788 -528.186)" fill="#575a88"/>
  <path id="Caminho_7893" data-name="Caminho 7893" d="M426.292,604.167s-9.193,6.379-13.189,8.106-17.3,8-17.3,8-13.4,1.73-15.564,4.541-5.189,6.055-5.189,6.055l-2.378-13.189s26.375-13.622,26.59-14.595,7.785-3.892-14.267-3.783c-19.324.1-26.446,1.352-28.06-1.32a2.947,2.947,0,0,1-.371-1.382c-.218-4.42,25.945-24,25.945-24s1.279.666,2.805,1.562a23.968,23.968,0,0,1,4.547,3.2c1.73,1.836,5.943,2.378,5.943,2.378l25.73,8.009s7.567,2.378,7.782,9.081S426.292,604.167,426.292,604.167Z" transform="translate(-266.79 -420.064)" fill="#aac9f5"/>
  <path id="Caminho_7894" data-name="Caminho 7894" d="M429.318,596.839c-.215-6.715-7.782-9.073-7.782-9.073l-25.73-8s-4.214-.542-5.943-2.378a23.967,23.967,0,0,0-4.547-3.2c-1.526-.884-2.805-1.562-2.805-1.562s-26.163,19.565-25.945,24a2.947,2.947,0,0,0,.371,1.382c1.615,2.673,8.737,1.417,28.06,1.32,22.052-.109,14.483,2.811,14.267,3.783s-26.59,14.594-26.59,14.594l.053.295a67.968,67.968,0,0,1-7.01,3.763c-1.391.421-2.384,3.94-.884,6.188s1.179,6.188.4,7.708.2,4.187.4,4.859,3.277,1.423,7.847.589,2.882-2.681,2.384-4.022a13.84,13.84,0,0,1,.1-6.954,3.766,3.766,0,0,0,.124-.377c1.076-1.179,2.793-3.15,4.166-4.933,2.163-2.811,15.564-4.541,15.564-4.541s13.3-6.267,17.3-8,13.189-8.106,13.189-8.106S429.536,603.537,429.318,596.839Zm-56.044,25.635c-1.789-.631-.987-2.961-.474-4.087l.757,4.2c-.091-.029-.183-.071-.283-.106Z" transform="translate(-266.79 -420.085)" opacity="0.1"/>
  <path id="Caminho_7895" data-name="Caminho 7895" d="M479.84,674.387s7.458,28.538,8.053,30.969a38.2,38.2,0,0,1,.589,6.866s2.811-.162,3.188-.589-1.473-8.7-1.473-8.7l.539-23.134-7.891-6.648Z" transform="translate(-353.741 -490.986)" fill="#d5838e"/>
  <rect id="Retângulo_17365" data-name="Retângulo 17365" width="5.837" height="5.027" transform="translate(106.657 198.762)" fill="#ffccd0"/>
  <path id="Caminho_7896" data-name="Caminho 7896" d="M399.551,733.722a9.727,9.727,0,0,1-.1,4.523,13.9,13.9,0,0,0-.1,6.954c.492,1.355,2.183,3.182-2.387,4.022s-7.661.083-7.847-.589-1.193-3.35-.4-4.859,1.093-5.445-.4-7.708-.5-5.778.884-6.188,7.39-3.987,7.39-3.987-2.222,3.863.162,4.715A4.328,4.328,0,0,1,399.551,733.722Z" transform="translate(-288.669 -528.186)" fill="#575a88"/>
  <path id="Caminho_7897" data-name="Caminho 7897" d="M438.648,564s14.105,4.27,15.782,5.027,7.4,3.406,6.432,6.972-8.919,3.948-8.919,3.948l-12.108-4.488-4.756-9.621Z" transform="translate(-322.171 -413.998)" fill="#575a88"/>
  <path id="Caminho_7898" data-name="Caminho 7898" d="M416.185,384.258s-.7,1.081-1.638,2.737c-.077.136-.159.277-.239.424-2.578,4.588-6.627,12.844-4.043,15.484,3.651,3.73-8.351-2.107-8.351-2.107l-.295-.527-4.9-8.878a63.435,63.435,0,0,0,6.17-7.3c.038-.053.077-.109.112-.165,1.034-1.547,1.733-2.979,1.582-3.884s.99-.837,2.614-.265A66.553,66.553,0,0,1,416.185,384.258Z" transform="translate(-295.114 -283.759)" fill="#cd828d"/>
  <path id="Caminho_7899" data-name="Caminho 7899" d="M430.969,384.258s-.7,1.081-1.638,2.737c-.077.136-.159.277-.239.424a9.48,9.48,0,0,1-11.3-3.171c-.038-.05-.074-.1-.112-.159.038-.053.077-.109.112-.165,1.034-1.547,1.733-2.979,1.582-3.884s.99-.837,2.614-.265A66.733,66.733,0,0,1,430.969,384.258Z" transform="translate(-309.898 -283.759)" opacity="0.1"/>
  <path id="Caminho_7900" data-name="Caminho 7900" d="M430.834,353.172a9.485,9.485,0,0,1-9.485,9.485,9.264,9.264,0,0,1-1.724-.159,9.482,9.482,0,1,1,11.2-9.326Z" transform="translate(-305.79 -258.604)" fill="#cd828d"/>
  <path id="Caminho_7901" data-name="Caminho 7901" d="M417.776,346.895a8.753,8.753,0,0,0-1.473.884c-.916.519-2.133.5-3.006,1.011-.722.418-.722,1.3-1.031,1.992-.81,1.818-3.739,2.284-5.062,3.831a3.088,3.088,0,0,0-.295.41c-.719,1.214-.295,2.676.265,3.954a32.08,32.08,0,0,0,1.768,3.536c.118.2.239.4.362.6.719,1.179,1.55,2.478,1.108,3.748-.719,2.063-4.237,2.543-5.263,4.517-.295.589-.351,1.246-.672,1.824a4.947,4.947,0,0,1-2.858,1.912l-4.9-8.878A62.41,62.41,0,0,0,403,358.772a9.482,9.482,0,0,1,14.768-11.866Z" transform="translate(-295.114 -258.606)" opacity="0.1"/>
  <path id="Caminho_7902" data-name="Caminho 7902" d="M400.075,333.164c-.513-.589-1.32-.978-1.694-1.635a5.244,5.244,0,0,1-.386-1.255,4.476,4.476,0,0,0-2.74-2.829,5.793,5.793,0,0,0-4.308.094c-.636.295-1.2.678-1.859.916a7.368,7.368,0,0,1-4.355-.171,15.882,15.882,0,0,0-4.308-.9c-1.488.009-3.1.743-3.394,1.98a8.843,8.843,0,0,0-.094,1.008c-.177,1.5-1.547,2.7-3.032,3.536s-3.165,1.4-4.541,2.357-2.452,2.44-2.08,3.913a7.657,7.657,0,0,0,1.562,2.457,17.714,17.714,0,0,1,2.652,6.7,5.211,5.211,0,0,1,.206,2.455c-.348,1.459-1.853,2.472-2.838,3.7a7.807,7.807,0,0,0-1.547,5.3,21.536,21.536,0,0,0,1.208,5.445,6.778,6.778,0,0,0,.831,1.889,8.631,8.631,0,0,0,3.135,2.325,3.677,3.677,0,0,0,1.733.572c1.305-.018,2.063-1.255,2.343-2.337a9.173,9.173,0,0,0,.268-2.743,2,2,0,0,1,.091-.978,1.853,1.853,0,0,1,.754-.719c1.865-1.12,4.685-1.317,5.652-3.073.318-.589.368-1.238.672-1.821,1.022-1.977,4.541-2.449,5.263-4.52.442-1.27-.389-2.575-1.108-3.751a31.108,31.108,0,0,1-2.136-4.125c-.545-1.279-.987-2.74-.268-3.954,1.114-1.883,4.482-2.263,5.36-4.234.309-.692.309-1.573,1.031-1.992.884-.5,2.089-.5,3.006-1.011a5.754,5.754,0,0,1,1.727-.964c.946-.2,2.257.563,3.062.162A1.164,1.164,0,0,0,400.075,333.164Z" transform="translate(-274.298 -246.886)" fill="#663d5c"/>
  <path id="Caminho_7903" data-name="Caminho 7903" d="M407.658,334.331c-.513-.589-1.323-.978-1.7-1.635a5.526,5.526,0,0,1-.386-1.255,4.42,4.42,0,0,0-2.478-2.711,4.125,4.125,0,0,1,1.291,1.954,5.33,5.33,0,0,0,.383,1.255c.374.657,1.179,1.049,1.7,1.635.418.477.589,1.423-.127,1.768-.8.4-2.113-.357-3.059-.159a5.791,5.791,0,0,0-1.727.961c-.916.519-2.133.507-3.005,1.014-.722.415-.722,1.3-1.031,1.989-.884,1.971-4.246,2.357-5.363,4.234-.719,1.214-.274,2.678.271,3.954a31.667,31.667,0,0,0,2.133,4.125c.722,1.179,1.55,2.478,1.111,3.748-.722,2.063-4.24,2.543-5.266,4.52-.295.589-.351,1.243-.669,1.821-.969,1.768-3.789,1.957-5.652,3.073a1.853,1.853,0,0,0-.754.719,1.965,1.965,0,0,0-.091.978,9.173,9.173,0,0,1-.268,2.743c-.274,1.084-1.04,2.319-2.343,2.337a3.689,3.689,0,0,1-1.736-.572c-.259-.138-.525-.28-.784-.427a16.06,16.06,0,0,0,1.974,1.179,3.678,3.678,0,0,0,1.736.572c1.3-.018,2.063-1.255,2.343-2.337a9.17,9.17,0,0,0,.265-2.743,2,2,0,0,1,.094-.978,1.847,1.847,0,0,1,.751-.719c1.865-1.12,4.685-1.317,5.655-3.073.318-.589.365-1.238.669-1.821,1.025-1.977,4.544-2.449,5.263-4.52.442-1.27-.386-2.575-1.108-3.751a31.467,31.467,0,0,1-2.136-4.125c-.545-1.279-.987-2.74-.268-3.954,1.117-1.883,4.482-2.263,5.36-4.234.309-.692.312-1.573,1.031-1.992.884-.5,2.089-.5,3.006-1.011a5.754,5.754,0,0,1,1.727-.964c.946-.2,2.257.563,3.062.162C408.242,335.752,408.074,334.809,407.658,334.331Z" transform="translate(-281.987 -248.053)" opacity="0.1"/>
  <path id="Caminho_7904" data-name="Caminho 7904" d="M831.48,495.75s1.473,6.188,4.715,9.456l1.3-2.823-1.624-5.148Z" transform="translate(-601.767 -365.858)" fill="#f26383"/>
  <path id="Caminho_7905" data-name="Caminho 7905" d="M835.859,497.263l-4.379-1.473s1.473,6.188,4.715,9.456" transform="translate(-601.767 -365.887)" opacity="0.1"/>
  <path id="Caminho_7906" data-name="Caminho 7906" d="M985.5,493.035l-.047.038a3.091,3.091,0,0,1-4.217-.386L968.861,478.8l-.321-.359,6.483-7.461,1.179.757.265.477c1.014,1.783,4.588,8.018,5.787,9.034C983.668,482.439,987.124,491.736,985.5,493.035Z" transform="translate(-698.44 -348.388)" fill="#ffc1c7"/>
  <path id="Caminho_7907" data-name="Caminho 7907" d="M594.364,681s-3.324,3.406-5.6,3.73-4.125,7.623-.972,8.189,9.241-1.7,10.133-2.676,4.125-6.73,4.125-6.73Z" transform="translate(-428.702 -496.523)" fill="#ffd6db"/>
  <path id="Caminho_7908" data-name="Caminho 7908" d="M826.106,501.848l-1.615.913c-2.493,1.385-7.045,3.869-7.629,3.789-.81-.106-.972-7.726-.972-7.726l4.311-3.185.445-.333,1.3-.486Z" transform="translate(-590.771 -365.203)" fill="#ffc1c7"/>
  <path id="Caminho_7909" data-name="Caminho 7909" d="M836.425,501.848l-1.615.913a9.9,9.9,0,0,0-4.29-7.122l.445-.333,1.3-.486Z" transform="translate(-601.091 -365.203)" opacity="0.1"/>
  <path id="Caminho_7910" data-name="Caminho 7910" d="M846.208,470.837l-5.027,8.961-3.48,1.794-1.547.8a9.937,9.937,0,0,0-4.715-9.456c1.406-.295,10.086-8.071,11.359-9.214l.156-.138,1.179-.162Z" transform="translate(-601.739 -343.055)" fill="#f9267b"/>
  <path id="Caminho_7911" data-name="Caminho 7911" d="M925.09,534.263l-4.27-3.241,13.943-46.262,4.921,1.839-3.73,7.349-4.108,22.913S929.418,533.184,925.09,534.263Z" transform="translate(-664.782 -358.107)" fill="#e4aab4"/>
  <path id="Caminho_7912" data-name="Caminho 7912" d="M919.421,430.874l-14.7-.109s-12.865,3.568-11.786-1.621c.675-3.241-.928-7.29-2.231-9.868-.156-.312-.295-.607-.457-.884-.563-1.043-.987-1.688-.987-1.688s1.529-.253,3.459-.525c.884-.13,1.88-.259,2.835-.374h0c.5-.062.99-.112,1.453-.162,1.892-.186,3.38-.23,3.38.088a7.037,7.037,0,0,0,.772,2.063c.074.156.159.318.242.48a21.115,21.115,0,0,0,2.328,3.568,8.547,8.547,0,0,0,1.632,1.573,5.322,5.322,0,0,0,.687.4,4.126,4.126,0,0,0,1.143.368c1.641.277,3.15-.439,5.3.2C915.423,425.252,919.421,430.874,919.421,430.874Z" transform="translate(-642.523 -309.253)" fill="#ffc1c7"/>
  <path id="Caminho_7913" data-name="Caminho 7913" d="M696.222,590.58s-12.376,6.81-13.136,9.512,1.839,4.865,1.839,4.865.433,2.325.589,4.055,2.16,18.54,3.079,19.945.162,6.7.162,6.7h2.988l-.215-8.109s-3.353-23.835-.542-26.269,5.136-5.189,5.946-4.974S696.222,590.58,696.222,590.58Z" transform="translate(-497.001 -432.746)" fill="#e4aab4"/>
  <path id="Caminho_7914" data-name="Caminho 7914" d="M639.615,549.787s-8.109,15.484-8.271,17.591S624.29,578.4,624.29,578.4l8.6,10.864s1.134-2.755,3.082-3.727a3.005,3.005,0,0,0,1.538-3.162,4.44,4.44,0,0,0,3.489-2.434c1.461-2.434,3.241-4.865,3.241-5.917s10.7-12.081,10.7-12.081l-.81-11.757-2.189-3.73Z" transform="translate(-455.628 -401.626)" fill="#bdd2e8"/>
  <path id="Caminho_7915" data-name="Caminho 7915" d="M572.229,551.453l-.071.062c-.984.884-12.01,10.652-12.01,10.885s-3.972,6.81.972,12.485,16.3,15,16.3,15,4.944,3.568,5.6,4.3,10.46,0,4.623-6.648-11.35-14.108-11.35-14.108,9.724-2.357,10.378-3.972-12.812-21.893-12.812-21.893Z" transform="translate(-409.321 -402.402)" opacity="0.1"/>
  <path id="Caminho_7916" data-name="Caminho 7916" d="M571.135,551.453l-.071.062c-.984.884-12.01,10.652-12.01,10.885s-3.972,6.8.984,12.485,16.3,15,16.3,15,4.944,3.568,5.6,4.3,10.46,0,4.623-6.648-11.35-14.108-11.35-14.108,9.724-2.357,10.375-3.972,13.46-21.487,13.46-21.487l-26.269-.407Z" transform="translate(-408.552 -402.402)" fill="#bdd2e8"/>
  <path id="Caminho_7917" data-name="Caminho 7917" d="M658.4,388.014l-.972,8.84s-9.974,3.972-10.216,3.892-6.648-5.837-5.6-9.647a34.331,34.331,0,0,0,.884-6.724c.112-2.163.091-3.816.091-3.816s14.512-5.189,13.215-1.624a6.837,6.837,0,0,0,.2,4.3A20,20,0,0,0,658.4,388.014Z" transform="translate(-467.765 -282.582)" fill="#cf6f80"/>
  <path id="Caminho_7918" data-name="Caminho 7918" d="M334.058,331.735l-.021.053a46.169,46.169,0,0,0-2.74,7.54l-.088.345a18.475,18.475,0,0,0-.607,5.3c.2,3.866,2.16,4.759,2.16,4.759s-29.672-4.862-24.81-5.675a5.791,5.791,0,0,0,2.528-1.338,30.386,30.386,0,0,0,5.045-5.84c.589-.837,1.158-1.685,1.677-2.5.035-.053.074-.109.106-.162,1.939-3.023,3.294-5.569,3.294-5.569S341.033,316.33,334.058,331.735Z" transform="translate(-232.122 -244.707)" fill="#ffccd0"/>
  <path id="Caminho_7919" data-name="Caminho 7919" d="M896.79,669.037s7.458,28.538,8.053,30.969a38.2,38.2,0,0,1,.589,6.866s2.808-.162,3.188-.589-1.473-8.7-1.473-8.7l.539-23.134L899.8,667.8Z" transform="translate(-647.833 -487.213)" fill="#d5838e"/>
  <path id="Caminho_7920" data-name="Caminho 7920" d="M820.559,641.21c.165,0,7.461.162,7.461.162l.539,5.136s-.215,9.724.324,11.2,5.351,27.89,5.351,27.89,1.515,9.3,1.406,11.565l-3.512.757s.7-2-.324-5.728-3.026-10.7-3.026-10.7l-2.54-11.462s-.433-20.332-16.053-19.448S793.7,662.658,793.7,662.658s-5.3,21.89-6.217,24.6-1.406,9.35-1.406,9.35l-3.565-.324,1.179-17.68,3.3-36.379,10.163-.7Z" transform="translate(-567.228 -468.457)" fill="#e4aab4"/>
  <path id="Caminho_7921" data-name="Caminho 7921" d="M348.8,685.016s-7.458,28.541-8.053,30.972a38.206,38.206,0,0,0-.589,6.866s-2.811-.162-3.188-.589,1.447-8.713,1.447-8.713l-.539-23.134,7.906-6.648Z" transform="translate(-252.931 -498.477)" fill="#d5838e"/>
  <path id="Caminho_7922" data-name="Caminho 7922" d="M326.289,657.17c-.162,0-7.458.162-7.458.162l-.542,5.133s.218,9.724-.324,11.2-5.342,27.884-5.342,27.884-1.512,9.3-1.406,11.565l3.515.757s-.7-2,.324-5.728,3.026-10.7,3.026-10.7l2.54-11.459s.433-20.332,16.053-19.448,16.477,12.1,16.477,12.1,5.3,21.89,6.214,24.592,1.406,9.352,1.406,9.352l3.568-.324-1.179-17.68L359.854,658.2l-10.16-.7Z" transform="translate(-234.802 -479.715)" fill="#e4aab4"/>
  <path id="Caminho_7923" data-name="Caminho 7923" d="M658.41,383.218c-.088.1-.18.2-.268.295a9.724,9.724,0,0,1-13.242.843c.109-2.148.091-3.816.091-3.816s14.512-5.189,13.216-1.624A6.844,6.844,0,0,0,658.41,383.218Z" transform="translate(-470.165 -282.568)" opacity="0.1"/>
  <path id="Caminho_7924" data-name="Caminho 7924" d="M652.307,350.483a9.671,9.671,0,1,1-2.832-6.891A9.724,9.724,0,0,1,652.307,350.483Z" transform="translate(-461.673 -256.538)" fill="#cf6f80"/>
  <path id="Caminho_7925" data-name="Caminho 7925" d="M431.792,604.167s-9.187,6.379-13.189,8.106-17.294,8-17.294,8-13.4,1.73-15.567,4.541-5.189,6.055-5.189,6.055l-2.378-13.189s26.375-13.622,26.593-14.595,7.785-3.892-14.27-3.783c-19.324.1-26.446,1.352-28.06-1.32a2.947,2.947,0,0,1-.371-1.382c-.215-4.42,25.945-24,25.945-24s1.279.666,2.805,1.562a23.968,23.968,0,0,1,4.547,3.2c1.73,1.836,5.946,2.378,5.946,2.378l25.727,8.009s7.57,2.357,7.791,9.073S431.792,604.167,431.792,604.167Z" transform="translate(-270.671 -420.064)" fill="#aac9f5"/>
  <path id="Caminho_7926" data-name="Caminho 7926" d="M637.953,423.665s-3.81-8.445-5.109-8.445S629.52,458.9,629.52,458.9l19.863.312.813-22.936-4.055-20.332S642.494,423.977,637.953,423.665Z" transform="translate(-459.317 -309.058)" opacity="0.1"/>
  <path id="Caminho_7927" data-name="Caminho 7927" d="M637.953,425.865s-3.81-8.445-5.109-8.445S629.52,461.1,629.52,461.1l22.536.342-1.862-22.966-4.055-20.332S642.494,426.177,637.953,425.865Z" transform="translate(-459.317 -310.609)" opacity="0.1"/>
  <path id="Caminho_7928" data-name="Caminho 7928" d="M637.953,424.785s-3.81-8.445-5.109-8.445-3.324,43.683-3.324,43.683l22.536.333-1.862-22.963-4.055-20.332S642.494,425.08,637.953,424.785Z" transform="translate(-459.317 -309.848)" fill="#ffd6db"/>
  <path id="Caminho_7929" data-name="Caminho 7929" d="M579.691,405.506a1.574,1.574,0,0,0-1.653-.672c-.972.324-1.7-.569-2.676.324s-4.865,2.107-5.6,1.7-3.324,1.379-3.893,2.434-2.431,3.892-2.431,3.892-1.621,1.945-1.379,3a2.73,2.73,0,0,1-1.541,2.755c-.975.486-2.917,5.351-2.917,5.351s-2.107,4.461-4.3,5.6-.569,6.079-.569,6.079l12.965-.4,2.92-6.648s-1.134,19.448-2.513,21.242a7.192,7.192,0,0,0-1.541,2.917s5.351,1.134,6.483,2.11,4.125-.245,4.125-.245l2.917-25.862a48.887,48.887,0,0,0,1.055-7.366C579.148,419.211,579.691,405.506,579.691,405.506Z" transform="translate(-404.753 -301.672)" opacity="0.1"/>
  <path id="Caminho_7930" data-name="Caminho 7930" d="M578.589,405.506a1.574,1.574,0,0,0-1.653-.672c-.972.324-1.7-.569-2.675.324s-4.865,2.107-5.6,1.7-3.324,1.379-3.892,2.434-2.431,3.892-2.431,3.892-1.621,1.945-1.379,3a2.73,2.73,0,0,1-1.541,2.755c-.975.486-2.917,5.351-2.917,5.351s-2.11,4.461-4.3,5.6-.575,6.076-.575,6.076l12.965-.4,2.947-6.648s-1.134,19.448-2.513,21.242a7.191,7.191,0,0,0-1.541,2.917s5.351,1.134,6.483,2.11,4.125-.245,4.125-.245l2.917-25.862a48.887,48.887,0,0,0,1.055-7.367C578.067,419.208,578.589,405.506,578.589,405.506Z" transform="translate(-403.974 -301.672)" fill="#575a89"/>
  <path id="Caminho_7931" data-name="Caminho 7931" d="M583.85,455.11a3.716,3.716,0,0,0,3.648,2.434C590.173,457.3,583.85,455.11,583.85,455.11Z" transform="translate(-427.105 -337.193)" opacity="0.1"/>
  <path id="Caminho_7932" data-name="Caminho 7932" d="M592.65,441.36a3.509,3.509,0,0,1,2.434,1.862C595.735,444.76,592.65,441.36,592.65,441.36Z" transform="translate(-433.312 -327.495)" opacity="0.1"/>
  <path id="Caminho_7933" data-name="Caminho 7933" d="M607.363,432c0,.324,1.134,6,0,8.351a11.759,11.759,0,0,0-.972,5.109Z" transform="translate(-442.997 -320.894)" opacity="0.1"/>
  <path id="Caminho_7934" data-name="Caminho 7934" d="M675.71,399.082s.634-.746,1.282-.666a8.587,8.587,0,0,1,1.865.81c.81.324,2.758.407,2.758.648a6.415,6.415,0,0,0,2.838,1.473c1.134.256,4.715,2.676,5.6,7.366s2.428,6.076,2.428,6.076l-8.6,4.217s6.648,28.217,7.464,30.259.884,14.026.884,14.026-5.269,2.357-6.648,3.082-.81-6.972-3.648-11.433S675.854,444,675.854,444l-4.941-13.884s-3.162-18.487-.486-21.89S675.952,400.3,675.71,399.082Z" transform="translate(-487.411 -297.201)" opacity="0.1"/>
  <path id="Caminho_7935" data-name="Caminho 7935" d="M676.8,399.082s.633-.746,1.282-.666a8.589,8.589,0,0,1,1.865.81c.81.324,2.758.407,2.758.648a6.414,6.414,0,0,0,2.838,1.473c1.134.256,4.715,2.676,5.6,7.366s2.437,6.076,2.437,6.076l-8.6,4.217s6.648,28.217,7.461,30.259.884,14.026.884,14.026-5.269,2.357-6.648,3.082-.81-6.972-3.648-11.433S676.945,444,676.945,444l-4.938-13.884s-3.168-18.481-.486-21.884S677.045,400.3,676.8,399.082Z" transform="translate(-488.181 -297.201)" fill="#575a89"/>
  <path id="Caminho_7936" data-name="Caminho 7936" d="M714.236,465.047c-.239.038-.545.074-.9.106-2.6.239-7.7.295-7.7.295s-3.81-7.54-7.051-7.3c0,0,3-3.4,4.214-3,.206.068.333-.08.392-.371.327-1.447-.8-6.438-.8-6.438l-1.541-6.73,8.919,2.189a24.13,24.13,0,0,1,3.324,1.459s.08,3.486.728,4.3,1.379,4.7,1.3,5.675.884,5.513-.083,6.727S716.264,464.723,714.236,465.047Z" transform="translate(-508.034 -327.672)" opacity="0.1"/>
  <path id="Caminho_7937" data-name="Caminho 7937" d="M715.372,465.047c-.239.038-.545.074-.884.106-2.6.239-7.7.295-7.7.295s-3.81-7.54-7.051-7.3c0,0,3-3.4,4.214-3,.206.068.333-.08.395-.371.324-1.447-.8-6.438-.8-6.438l-1.541-6.73,8.919,2.189a24.128,24.128,0,0,1,3.324,1.459s.08,3.486.728,4.3,1.379,4.7,1.3,5.675.884,5.513-.083,6.727S717.4,464.723,715.372,465.047Z" transform="translate(-508.845 -327.672)" fill="#575a89"/>
  <path id="Caminho_7938" data-name="Caminho 7938" d="M721.7,461.17s7.458.81,7.782,2.676S721.7,461.17,721.7,461.17Z" transform="translate(-524.335 -341.468)" opacity="0.1"/>
  <path id="Caminho_7939" data-name="Caminho 7939" d="M637.6,689.319a11,11,0,0,0,.083,4.376,15.708,15.708,0,0,1,.08,6.73c-.407,1.3-1.768,3.082,1.948,3.892s6.241.08,6.4-.569.972-3.241.324-4.715a10.467,10.467,0,0,1,.324-7.458c1.208-2.189.407-5.6-.728-6s-3.082-1.3-3.082-1.3,2.11,3.81.162,4.62S637.6,689.319,637.6,689.319Z" transform="translate(-464.72 -498.837)" fill="#ffd6db"/>
  <path id="Caminho_7940" data-name="Caminho 7940" d="M657.421,350.456a9.671,9.671,0,0,1-2.652,6.677.175.175,0,0,1-.024-.047,4.228,4.228,0,0,1-.542-1.933,15.931,15.931,0,0,1,.648-2.357,6.15,6.15,0,0,0-.469-3.035c-.242-.719-.7-1.591-1.459-1.506a1.656,1.656,0,0,1-.445.053c-.4-.062-.483-.589-.53-.99a4.488,4.488,0,0,0-3.666-3.845,1.123,1.123,0,0,0-.639.041c-.28.127-.436.433-.69.607-.822.572-1.871-.522-2.87-.439-.849.074-1.367.943-1.718,1.721s-.79,1.662-1.621,1.845a.507.507,0,0,1-.395-.044c-.259-.189-.08-.589.053-.884a1.79,1.79,0,0,0-.295-1.933,9.724,9.724,0,0,1,17.329,6.073Z" transform="translate(-466.786 -256.511)" opacity="0.1"/>
  <path id="Caminho_7941" data-name="Caminho 7941" d="M636.014,325.167c-.13.295-.309.7-.047.884a.5.5,0,0,0,.392.044c.831-.18,1.27-1.07,1.621-1.845s.884-1.65,1.718-1.721c1-.083,2.048,1.008,2.87.439.253-.174.41-.48.69-.607a1.149,1.149,0,0,1,.639-.041,4.491,4.491,0,0,1,3.669,3.845c.041.4.124.928.525.99a1.662,1.662,0,0,0,.448-.053c.754-.085,1.217.784,1.456,1.5a6.157,6.157,0,0,1,.471,3.041,16.282,16.282,0,0,0-.648,2.357,4.444,4.444,0,0,0,.542,1.93c.28.616.734,1.332,1.4,1.246.548-.071.852-.654,1.114-1.14s.737-1.011,1.27-.857c.239.071.486.271.7.15a.507.507,0,0,0,.2-.354c.259-1.134-.112-2.407.439-3.43a6.632,6.632,0,0,1,1.983-1.768,5.681,5.681,0,0,0,.769-8.133c-.748-.884-1.824-1.65-1.883-2.8-.047-.884.542-1.682.551-2.561a3.05,3.05,0,0,0-1.179-2.2,7.543,7.543,0,0,0-6.774-1.78,5.232,5.232,0,0,1-1.9.295,6.573,6.573,0,0,1-2.036-.928,5.2,5.2,0,0,0-6.482,1.768c-.769,1.179-1.07,2.755-2.216,3.592-.754.551-1.833.757-2.248,1.591a2.824,2.824,0,0,0-.1,1.65,3.851,3.851,0,0,0,1.232,2.357C635.884,323.355,636.485,324.1,636.014,325.167Z" transform="translate(-462.405 -235.686)" fill="#512e4e"/>
  <path id="Caminho_7942" data-name="Caminho 7942" d="M539.119,556.872l-.08,15.809-2.92-.245L525.5,486.092l3.135-.094,2.216-.068Z" transform="translate(-374.915 -344.338)" fill="#ffceb4"/>
  <path id="Caminho_7943" data-name="Caminho 7943" d="M539.04,572.843l-2.92-.245L525.5,486.254l3.135-.094-.136.5Z" transform="translate(-374.915 -344.5)" fill="#f8bda5"/>
  <path id="Caminho_7944" data-name="Caminho 7944" d="M585.72,487.03l-10.705,85.616-2,.454-1.562.357.08-15.809,9.406-70.294.186-.015Z" transform="translate(-407.325 -345.113)" fill="#ffceb4"/>
  <path id="Caminho_7945" data-name="Caminho 7945" d="M572.991,573.794l.021.047-1.562.357.08-15.809,9.406-70.294.186-.015,1.921.418Z" transform="translate(-407.325 -345.854)" fill="#f8bda5"/>
  <path id="Caminho_7946" data-name="Caminho 7946" d="M676.774,538.756l-.245,5.613-.648,14.981L665.83,485.974l2.3-.25.7-.074Z" transform="translate(-473.896 -344.141)" fill="#f8bda5"/>
  <path id="Caminho_7947" data-name="Caminho 7947" d="M682.268,538.756l-.245,5.613-8.268-57.989-.136-.657.7-.074Z" transform="translate(-479.39 -344.141)" fill="#ffceb4"/>
  <path id="Caminho_7948" data-name="Caminho 7948" d="M702.815,511.827l.242,35.754-1.355-.05-2.861-.112,1.137-62.589,2.18.271,1.061.133Z" transform="translate(-497.179 -343.562)" fill="#f8bda5"/>
  <path id="Caminho_7949" data-name="Caminho 7949" d="M709.664,512.476l.242,35.754-1.355-.05.457-62.43,1.061.133Z" transform="translate(-504.028 -344.211)" fill="#ffceb4"/>
  <path id="Caminho_7950" data-name="Caminho 7950" d="M397.28,476.82l.162-2.431,13.943.08,41.918-.648,32.348,1.783,20.594.407.245,2.269-52.944.975Z" transform="translate(-284.476 -335.796)" fill="#f8bda5"/>
  <path id="Caminho_7951" data-name="Caminho 7951" d="M397.83,472.252l41.347,1.783,67.456-.162-50.428-3.082Z" transform="translate(-284.864 -333.659)" fill="#ffceb4"/>
  <path id="Caminho_7952" data-name="Caminho 7952" d="M357.487,331.732l-.021.053a46.169,46.169,0,0,0-2.74,7.54l-.088.345a12.42,12.42,0,0,1-3.474.5c-3.129,0-4.541-3.283-6.73-5.189-.86-.745-3.07.522-3.7-.433a1.531,1.531,0,0,1-.106-.162c.035-.053.074-.109.106-.162,1.939-3.023,3.294-5.569,3.294-5.569S364.462,316.328,357.487,331.732Z" transform="translate(-255.552 -244.705)" opacity="0.1"/>
  <path id="Caminho_7953" data-name="Caminho 7953" d="M358.985,305.531a12.485,12.485,0,1,1-1.3-5.546A12.485,12.485,0,0,1,358.985,305.531Z" transform="translate(-250.884 -222.882)" fill="#ffccd0"/>
  <path id="Caminho_7954" data-name="Caminho 7954" d="M332.762,393.2s-29.672-4.862-24.81-5.675a5.791,5.791,0,0,0,2.528-1.338,2.11,2.11,0,0,1,.392.69l5.513-.648s7.028-1.515,9.836.218a22.135,22.135,0,0,0,4.382,1.995C330.8,392.312,332.762,393.2,332.762,393.2Z" transform="translate(-232.122 -288.18)" opacity="0.1"/>
  <path id="Caminho_7955" data-name="Caminho 7955" d="M390.817,574.162a1.66,1.66,0,0,1-.533.277c-1.406.433-3.138,6.919-3.138,6.919s-18.01,17.291-24.707,16.625a2.946,2.946,0,0,1-.371-1.382c-.215-4.42,25.945-24,25.945-24S389.29,573.266,390.817,574.162Z" transform="translate(-270.671 -420.064)" opacity="0.1"/>
  <path id="Caminho_7956" data-name="Caminho 7956" d="M589.812,509.8c0,1.641-2.87,3.283-6.412,3.283s-6.4-1.641-6.4-3.283,2.87-2.652,6.409-2.652S589.812,508.161,589.812,509.8Z" transform="translate(-422.273 -373.899)" fill="#e8eaf2"/>
  <path id="Caminho_7957" data-name="Caminho 7957" d="M589.812,509.8c0,1.641-2.87,3.283-6.412,3.283s-6.4-1.641-6.4-3.283,2.87-2.652,6.409-2.652S589.812,508.161,589.812,509.8Z" transform="translate(-422.273 -373.899)" opacity="0.1"/>
  <ellipse id="Elipse_1472" data-name="Elipse 1472" cx="6.409" cy="2.97" rx="6.409" ry="2.97" transform="translate(154.722 132.933)" fill="#e8eaf2"/>
  <ellipse id="Elipse_1473" data-name="Elipse 1473" cx="3.825" cy="1.541" rx="3.825" ry="1.541" transform="translate(157.323 134.474)" opacity="0.05"/>
  <path id="Caminho_7958" data-name="Caminho 7958" d="M612.8,501.113c-.13-.807-1.193-1.338-2.558-1.367a5.732,5.732,0,0,0-1.081.077c-1.845.295-3.209,1.355-3.047,2.357.127.8,1.179,1.326,2.513,1.364a5.893,5.893,0,0,0,1.123-.074C611.6,503.182,612.967,502.121,612.8,501.113Zm-3.132,1.848a4.054,4.054,0,0,1-.589.053c-1.067.029-1.924-.362-2.024-.978-.115-.725.863-1.473,2.186-1.7a4.208,4.208,0,0,1,.952-.047c.884.062,1.568.43,1.653.972C611.968,501.988,611,502.749,609.672,502.961Z" transform="translate(-442.802 -368.676)" fill="#f1cec8"/>
  <path id="Caminho_7959" data-name="Caminho 7959" d="M594.756,512.452a.681.681,0,0,1-.156.421,3.848,3.848,0,0,1-2.855.908,4.171,4.171,0,0,1-2.767-.8.763.763,0,0,1-.247-.53c0-.737,1.35-1.332,3.014-1.332S594.756,511.715,594.756,512.452Z" transform="translate(-430.546 -376.7)" fill="#f1cec8"/>
  <path id="Caminho_7960" data-name="Caminho 7960" d="M594.756,512.438a.681.681,0,0,1-.156.421,5.785,5.785,0,0,1-2.564.589h-.722a5.828,5.828,0,0,1-2.337-.486.763.763,0,0,1-.248-.53c0-.737,1.35-1.332,3.014-1.332S594.756,511.7,594.756,512.438Z" transform="translate(-430.546 -376.686)" opacity="0.1"/>
  <path id="Caminho_7961" data-name="Caminho 7961" d="M610.247,499.748a4.208,4.208,0,0,1-.044.545,4.208,4.208,0,0,0-.952.047c-1.323.215-2.3.972-2.186,1.7.1.616.958,1.008,2.024.978a6.146,6.146,0,0,1-.457.539c-1.344-.038-2.387-.569-2.513-1.364-.162-1.011,1.2-2.063,3.047-2.357A5.728,5.728,0,0,1,610.247,499.748Z" transform="translate(-442.802 -368.679)" opacity="0.1"/>
  <path id="Caminho_7962" data-name="Caminho 7962" d="M577.74,496.18v.831a5.822,5.822,0,0,0,5.823,5.823h.737a5.822,5.822,0,0,0,5.808-5.823v-.831Z" transform="translate(-422.794 -366.162)" fill="#f1cec8"/>
  <ellipse id="Elipse_1474" data-name="Elipse 1474" cx="6.214" cy="1.768" rx="6.214" ry="1.768" transform="translate(154.888 128.067)" fill="#f6e2df"/>
  <ellipse id="Elipse_1475" data-name="Elipse 1475" cx="5.89" cy="1.597" rx="5.89" ry="1.597" transform="translate(155.241 128.126)" opacity="0.1"/>
  <ellipse id="Elipse_1476" data-name="Elipse 1476" cx="5.755" cy="1.597" rx="5.755" ry="1.597" transform="translate(155.393 128.067)" fill="#fdf9f9"/>
  <path id="Caminho_7963" data-name="Caminho 7963" d="M584.122,495.644a.162.162,0,1,1,.162-.159A.162.162,0,0,1,584.122,495.644Zm0-.262a.1.1,0,1,0,.1.1A.1.1,0,0,0,584.122,495.382Z" transform="translate(-427.181 -365.556)" fill="#42312e" opacity="0.3"/>
  <path id="Caminho_7964" data-name="Caminho 7964" d="M584.755,494.494a.162.162,0,1,1,.159-.162.162.162,0,0,1-.159.162Zm0-.265a.1.1,0,1,0,.1.1A.1.1,0,0,0,584.755,494.229Z" transform="translate(-427.626 -364.744)" fill="#42312e" opacity="0.3"/>
  <path id="Caminho_7965" data-name="Caminho 7965" d="M584.122,492.744a.162.162,0,1,1,.162-.162.162.162,0,0,1-.162.162Zm0-.265a.1.1,0,1,0,.1.1.1.1,0,0,0-.1-.1Z" transform="translate(-427.181 -363.51)" fill="#42312e" opacity="0.3"/>
  <path id="Caminho_7966" data-name="Caminho 7966" d="M588.155,496.824a.162.162,0,1,1,.159-.162.162.162,0,0,1-.159.162Zm0-.265a.1.1,0,0,0-.1.1.1.1,0,1,0,.2,0,.1.1,0,0,0-.1-.1Z" transform="translate(-430.025 -366.388)" fill="#42312e" opacity="0.3"/>
  <path id="Caminho_7967" data-name="Caminho 7967" d="M604.352,495.744a.162.162,0,1,1,.162-.162A.162.162,0,0,1,604.352,495.744Zm0-.265a.1.1,0,1,0,.1.1A.1.1,0,0,0,604.352,495.479Z" transform="translate(-441.45 -365.626)" fill="#42312e" opacity="0.3"/>
  <path id="Caminho_7968" data-name="Caminho 7968" d="M607.952,497.164a.162.162,0,1,1,.162-.162A.162.162,0,0,1,607.952,497.164Zm0-.265a.044.044,0,1,0,0-.012Z" transform="translate(-443.989 -366.628)" fill="#42312e" opacity="0.3"/>
  <path id="Caminho_7969" data-name="Caminho 7969" d="M608.072,494.844a.162.162,0,1,1,.162-.162A.162.162,0,0,1,608.072,494.844Zm0-.265a.1.1,0,1,0,.1.1A.1.1,0,0,0,608.072,494.579Z" transform="translate(-444.075 -364.991)" fill="#42312e" opacity="0.3"/>
  <path id="Caminho_7970" data-name="Caminho 7970" d="M609.772,491.144a.162.162,0,1,1,.162-.162.159.159,0,0,1-.162.162Zm0-.265a.043.043,0,1,0,0-.006Z" transform="translate(-445.273 -362.382)" fill="#42312e" opacity="0.3"/>
  <path id="Caminho_7971" data-name="Caminho 7971" d="M608.942,496.224a.162.162,0,1,1,.162-.159A.162.162,0,0,1,608.942,496.224Zm0-.262a.044.044,0,1,0,0-.009Z" transform="translate(-444.689 -365.965)" fill="#42312e" opacity="0.3"/>
  <path id="Caminho_7972" data-name="Caminho 7972" d="M610.935,495.1a.162.162,0,1,1,.159-.162A.162.162,0,0,1,610.935,495.1Zm0-.265a.1.1,0,1,1,0,.006Z" transform="translate(-446.091 -365.175)" fill="#42312e" opacity="0.3"/>
  <path id="Caminho_7973" data-name="Caminho 7973" d="M610.735,496.394a.162.162,0,1,1,.159-.162.159.159,0,0,1-.159.162Zm0-.262a.1.1,0,1,0,.1.045A.1.1,0,0,0,610.735,496.132Z" transform="translate(-445.95 -366.084)" fill="#42312e" opacity="0.3"/>
  <path id="Caminho_7974" data-name="Caminho 7974" d="M610.122,493.094a.162.162,0,1,1,.162-.162A.162.162,0,0,1,610.122,493.094Zm0-.265a.1.1,0,1,1,0,.009Z" transform="translate(-445.521 -363.757)" fill="#42312e" opacity="0.3"/>
  <path id="Caminho_7975" data-name="Caminho 7975" d="M613.122,492.394a.162.162,0,1,1,.162-.162A.162.162,0,0,1,613.122,492.394Zm0-.265a.1.1,0,1,0,.1.1A.1.1,0,0,0,613.122,492.129Z" transform="translate(-447.636 -363.263)" fill="#42312e" opacity="0.3"/>
  <path id="Caminho_7976" data-name="Caminho 7976" d="M604.352,491.074a.162.162,0,1,1,.162-.162A.162.162,0,0,1,604.352,491.074Zm0-.265a.1.1,0,1,0,.1.1A.1.1,0,0,0,604.352,490.809Z" transform="translate(-441.45 -362.332)" fill="#42312e" opacity="0.3"/>
  <path id="Caminho_7977" data-name="Caminho 7977" d="M602.272,490.224a.162.162,0,1,1,.162-.162.162.162,0,0,1-.162.162Zm0-.262a.044.044,0,1,0,0-.015Z" transform="translate(-439.983 -361.732)" fill="#42312e" opacity="0.3"/>
  <path id="Caminho_7978" data-name="Caminho 7978" d="M597.685,490.524a.162.162,0,1,1,.159-.162.162.162,0,0,1-.159.162Zm0-.265a.1.1,0,1,0,.1.1.1.1,0,0,0-.1-.1Z" transform="translate(-436.745 -361.944)" fill="#42312e" opacity="0.3"/>
  <path id="Caminho_7979" data-name="Caminho 7979" d="M601.6,495.924a.162.162,0,1,1,.159-.162.162.162,0,0,1-.159.162Zm0-.265a.1.1,0,1,0,.1.1A.1.1,0,0,0,601.6,495.659Z" transform="translate(-439.511 -365.753)" fill="#42312e" opacity="0.3"/>
  <path id="Caminho_7980" data-name="Caminho 7980" d="M586.742,496.474a.162.162,0,1,1,.162-.162.162.162,0,0,1-.162.162Zm0-.265a.1.1,0,1,0,.1.1A.1.1,0,0,0,586.742,496.209Z" transform="translate(-429.03 -366.141)" fill="#42312e" opacity="0.3"/>
  <path id="Caminho_7981" data-name="Caminho 7981" d="M589.052,495.224a.162.162,0,1,1,.162-.162.162.162,0,0,1-.162.162Zm0-.265a.044.044,0,1,0,0-.009Z" transform="translate(-430.659 -365.259)" fill="#42312e" opacity="0.3"/>
  <path id="Caminho_7982" data-name="Caminho 7982" d="M591.022,495.844a.162.162,0,1,1,.162-.159A.162.162,0,0,1,591.022,495.844Zm0-.262a.1.1,0,1,0,.1.1A.1.1,0,0,0,591.022,495.582Z" transform="translate(-432.048 -365.696)" fill="#42312e" opacity="0.3"/>
  <path id="Caminho_7983" data-name="Caminho 7983" d="M591.372,494.474a.162.162,0,1,1,.162-.159A.162.162,0,0,1,591.372,494.474Zm0-.262a.1.1,0,1,0,.1.1A.1.1,0,0,0,591.372,494.212Z" transform="translate(-432.296 -364.73)" fill="#42312e" opacity="0.3"/>
  <path id="Caminho_7984" data-name="Caminho 7984" d="M591.382,493.224a.162.162,0,1,1,.162-.159A.162.162,0,0,1,591.382,493.224Zm0-.262a.1.1,0,1,1,0,.009Z" transform="translate(-432.302 -363.849)" fill="#42312e" opacity="0.3"/>
  <path id="Caminho_7985" data-name="Caminho 7985" d="M591.932,497.6a.162.162,0,1,1,.162-.162A.162.162,0,0,1,591.932,497.6Zm0-.265a.1.1,0,1,0,.1.1A.1.1,0,0,0,591.932,497.339Z" transform="translate(-432.691 -366.938)" fill="#42312e" opacity="0.3"/>
  <path id="Caminho_7986" data-name="Caminho 7986" d="M597.395,497.734a.162.162,0,1,1,.159-.162A.162.162,0,0,1,597.395,497.734Zm0-.265a.1.1,0,1,0,.1.1A.1.1,0,0,0,597.395,497.469Z" transform="translate(-436.542 -367.029)" fill="#42312e" opacity="0.3"/>
  <path id="Caminho_7987" data-name="Caminho 7987" d="M596.712,496.394a.162.162,0,1,1,.162-.162.162.162,0,0,1-.162.162Zm0-.262a.1.1,0,1,0,.1.1A.1.1,0,0,0,596.712,496.132Z" transform="translate(-436.062 -366.084)" fill="#42312e" opacity="0.3"/>
  <path id="Caminho_7988" data-name="Caminho 7988" d="M593.955,495.744a.162.162,0,1,1,.159-.162.162.162,0,0,1-.159.162Zm0-.265a.1.1,0,1,0,.1.1A.1.1,0,0,0,593.955,495.479Z" transform="translate(-434.114 -365.626)" fill="#42312e" opacity="0.3"/>
  <path id="Caminho_7989" data-name="Caminho 7989" d="M599.832,493.584a.162.162,0,1,1,.162-.162.162.162,0,0,1-.162.162Zm0-.265a.1.1,0,1,0,.1.1A.1.1,0,0,0,599.832,493.319Z" transform="translate(-438.263 -364.103)" fill="#42312e" opacity="0.3"/>
  <path id="Caminho_7990" data-name="Caminho 7990" d="M597.342,495.1a.162.162,0,1,1,.162-.162A.162.162,0,0,1,597.342,495.1Zm0-.265a.1.1,0,1,1,0,.006Z" transform="translate(-436.507 -365.175)" fill="#42312e" opacity="0.3"/>
  <path id="Caminho_7991" data-name="Caminho 7991" d="M600.242,492a.162.162,0,1,1,.162-.162.162.162,0,0,1-.162.162Zm0-.265a.1.1,0,1,0,.1.1.1.1,0,0,0-.1-.1Z" transform="translate(-438.552 -362.988)" fill="#42312e" opacity="0.3"/>
  <path id="Caminho_7992" data-name="Caminho 7992" d="M600.032,490.514a.162.162,0,1,1,.162-.162A.162.162,0,0,1,600.032,490.514Zm0-.265a.1.1,0,1,0,.1.1A.1.1,0,0,0,600.032,490.249Z" transform="translate(-438.403 -361.937)" fill="#42312e" opacity="0.3"/>
  <path id="Caminho_7993" data-name="Caminho 7993" d="M598.882,492.044a.162.162,0,1,1,.162-.162A.162.162,0,0,1,598.882,492.044Zm0-.265a.1.1,0,1,0,.1.1.1.1,0,0,0-.1-.1Z" transform="translate(-437.593 -363.017)" fill="#42312e" opacity="0.3"/>
  <path id="Caminho_7994" data-name="Caminho 7994" d="M596.062,494.624a.162.162,0,1,1,.162-.159.159.159,0,0,1-.162.159Zm0-.262a.1.1,0,1,0,.1.045.1.1,0,0,0-.1-.045Z" transform="translate(-435.603 -364.836)" fill="#42312e" opacity="0.3"/>
  <path id="Caminho_7995" data-name="Caminho 7995" d="M593.955,494.224a.162.162,0,1,1,.159-.162.159.159,0,0,1-.159.162Zm0-.262a.1.1,0,1,0,.1.045A.1.1,0,0,0,593.955,493.962Z" transform="translate(-434.114 -364.554)" fill="#42312e" opacity="0.3"/>
  <path id="Caminho_7996" data-name="Caminho 7996" d="M596.712,491.654a.162.162,0,1,1,.162-.162.162.162,0,0,1-.162.162Zm0-.265a.1.1,0,1,0,.1.1A.1.1,0,0,0,596.712,491.389Z" transform="translate(-436.062 -362.741)" fill="#42312e" opacity="0.3"/>
  <path id="Caminho_7997" data-name="Caminho 7997" d="M592.813,492.506a.1.1,0,1,1,.1-.1A.1.1,0,0,1,592.813,492.506Zm0-.168a.065.065,0,1,0,.065.065.065.065,0,0,0-.065-.065Z" transform="translate(-433.353 -363.425)" fill="#42312e" opacity="0.3"/>
  <path id="Caminho_7998" data-name="Caminho 7998" d="M593.873,493.176a.1.1,0,1,1,.1-.1.1.1,0,0,1-.1.1Zm0-.168a.065.065,0,1,0,.065.065A.065.065,0,0,0,593.873,493.008Z" transform="translate(-434.101 -363.897)" fill="#42312e" opacity="0.3"/>
  <path id="Caminho_7999" data-name="Caminho 7999" d="M599.073,490.376a.1.1,0,1,1,.1-.1A.1.1,0,0,1,599.073,490.376Zm0-.168a.065.065,0,1,0,.065.065.065.065,0,0,0-.065-.065Z" transform="translate(-437.769 -361.923)" fill="#42312e" opacity="0.3"/>
  <path id="Caminho_8000" data-name="Caminho 8000" d="M599.833,496.226a.1.1,0,1,1,.1-.1A.1.1,0,0,1,599.833,496.226Zm0-.168a.065.065,0,1,0,.065.065A.065.065,0,0,0,599.833,496.058Z" transform="translate(-438.304 -366.049)" fill="#42312e" opacity="0.3"/>
  <path id="Caminho_8001" data-name="Caminho 8001" d="M600.753,496.636a.1.1,0,1,1,.1-.1A.1.1,0,0,1,600.753,496.636Zm0-.168a.065.065,0,1,0,.065.065.065.065,0,0,0-.065-.065Z" transform="translate(-438.954 -366.338)" fill="#42312e" opacity="0.3"/>
  <path id="Caminho_8002" data-name="Caminho 8002" d="M599.633,495.256a.1.1,0,1,1,.1-.1A.1.1,0,0,1,599.633,495.256Zm0-.168a.065.065,0,1,0,.065.065A.065.065,0,0,0,599.633,495.088Z" transform="translate(-438.163 -365.365)" fill="#42312e" opacity="0.3"/>
  <path id="Caminho_8003" data-name="Caminho 8003" d="M606.463,492.006a.1.1,0,1,1,.1-.1A.1.1,0,0,1,606.463,492.006Zm0-.168a.065.065,0,1,0,.047.02A.065.065,0,0,0,606.463,491.838Z" transform="translate(-442.982 -363.072)" fill="#42312e" opacity="0.3"/>
  <path id="Caminho_8004" data-name="Caminho 8004" d="M606.886,492.9a.1.1,0,1,1,.1-.1.1.1,0,0,1-.1.1Zm0-.168a.065.065,0,1,0,.065.065A.065.065,0,0,0,606.886,492.728Z" transform="translate(-443.278 -363.7)" fill="#42312e" opacity="0.3"/>
  <path id="Caminho_8005" data-name="Caminho 8005" d="M606.543,493.726a.1.1,0,0,1-.1-.1.1.1,0,0,1,.1-.1.1.1,0,0,1,0,.206Zm0-.168a.062.062,0,0,0-.065.065.065.065,0,1,0,.065-.065Z" transform="translate(-443.038 -364.285)" fill="#42312e" opacity="0.3"/>
  <path id="Caminho_8006" data-name="Caminho 8006" d="M605.633,496.276a.1.1,0,1,1,.1-.1A.1.1,0,0,1,605.633,496.276Zm0-.168a.065.065,0,1,0,.047.02A.065.065,0,0,0,605.633,496.108Z" transform="translate(-442.396 -366.084)" fill="#42312e" opacity="0.3"/>
  <path id="Caminho_8007" data-name="Caminho 8007" d="M611.163,493.886a.1.1,0,1,1,.1-.1A.1.1,0,0,1,611.163,493.886Zm0-.168a.065.065,0,1,0,.065.065A.065.065,0,0,0,611.163,493.718Z" transform="translate(-446.296 -364.398)" fill="#42312e" opacity="0.3"/>
  <path id="Caminho_8008" data-name="Caminho 8008" d="M602.963,496.006a.1.1,0,1,1,.1-.1A.1.1,0,0,1,602.963,496.006Zm0-.168a.065.065,0,1,0,.065.065A.065.065,0,0,0,602.963,495.838Z" transform="translate(-440.513 -365.894)" fill="#42312e" opacity="0.3"/>
  <path id="Caminho_8009" data-name="Caminho 8009" d="M605.853,494.576a.1.1,0,1,1,.1-.1A.1.1,0,0,1,605.853,494.576Zm0-.168a.065.065,0,1,0,.065.065A.065.065,0,0,0,605.853,494.408Z" transform="translate(-442.552 -364.886)" fill="#42312e" opacity="0.3"/>
  <path id="Caminho_8010" data-name="Caminho 8010" d="M604.693,496.986a.1.1,0,1,1,.1-.1A.1.1,0,0,1,604.693,496.986Zm0-.168a.065.065,0,1,0,.065.065A.065.065,0,0,0,604.693,496.818Z" transform="translate(-441.733 -366.585)" fill="#42312e" opacity="0.3"/>
  <path id="Caminho_8011" data-name="Caminho 8011" d="M612.31,494.525a.116.116,0,1,1,.1-.1A.1.1,0,0,1,612.31,494.525Zm0-.171a.068.068,0,1,0,0,.133.066.066,0,0,0,0-.133Z" transform="translate(-447.105 -364.837)" fill="#42312e" opacity="0.3"/>
  <path id="Caminho_8012" data-name="Caminho 8012" d="M607.866,490.806a.1.1,0,1,1,.1-.1A.1.1,0,0,1,607.866,490.806Zm0-.168a.065.065,0,1,0,.065.065A.065.065,0,0,0,607.866,490.638Z" transform="translate(-443.968 -362.227)" fill="#42312e" opacity="0.3"/>
  <path id="Caminho_8013" data-name="Caminho 8013" d="M596.073,490.376a.1.1,0,1,1,.1-.1A.1.1,0,0,1,596.073,490.376Zm0-.168a.065.065,0,1,0,.065.065A.065.065,0,0,0,596.073,490.208Z" transform="translate(-435.653 -361.923)" fill="#42312e" opacity="0.3"/>
  <path id="Caminho_8014" data-name="Caminho 8014" d="M586.133,493.316a.1.1,0,1,1,.1-.1A.1.1,0,0,1,586.133,493.316Zm0-.168a.065.065,0,1,0,.065.065A.065.065,0,0,0,586.133,493.148Z" transform="translate(-428.642 -363.996)" fill="#42312e" opacity="0.3"/>
  <path id="Caminho_8015" data-name="Caminho 8015" d="M594.8,490.806a.1.1,0,1,1,.1-.1A.1.1,0,0,1,594.8,490.806Zm0-.168a.065.065,0,1,0,.065.065A.065.065,0,0,0,594.8,490.638Z" transform="translate(-434.757 -362.227)" fill="#42312e" opacity="0.3"/>
  <path id="Caminho_8016" data-name="Caminho 8016" d="M587.043,494.926a.1.1,0,1,1,.1-.1.1.1,0,0,1-.1.1Zm0-.168a.065.065,0,1,0,.065.065A.065.065,0,0,0,587.043,494.758Z" transform="translate(-429.284 -365.132)" fill="#42312e" opacity="0.3"/>
  <path id="Caminho_8017" data-name="Caminho 8017" d="M588.3,492.826a.1.1,0,1,1,.1-.1A.1.1,0,0,1,588.3,492.826Zm0-.168a.065.065,0,1,0,.065.065A.065.065,0,0,0,588.3,492.658Z" transform="translate(-430.165 -363.651)" fill="#42312e" opacity="0.3"/>
  <path id="Caminho_8018" data-name="Caminho 8018" d="M581.983,494.266a.1.1,0,1,1,.1-.1A.1.1,0,0,1,581.983,494.266Zm0-.168a.065.065,0,1,0,.065.065A.065.065,0,0,0,581.983,494.1Z" transform="translate(-425.714 -364.667)" fill="#42312e" opacity="0.3"/>
  <path id="Caminho_8019" data-name="Caminho 8019" d="M590.813,497.336a.1.1,0,1,1,.1-.1A.1.1,0,0,1,590.813,497.336Zm0-.168a.065.065,0,1,0,.065.065A.065.065,0,0,0,590.813,497.168Z" transform="translate(-431.942 -366.832)" fill="#42312e" opacity="0.3"/>
  <path id="Caminho_8020" data-name="Caminho 8020" d="M593.333,497.506a.1.1,0,1,1,.1-.1A.1.1,0,0,1,593.333,497.506Zm0-.168a.065.065,0,1,0,.065.065A.065.065,0,0,0,593.333,497.338Z" transform="translate(-433.72 -366.952)" fill="#42312e" opacity="0.3"/>
  <circle id="Elipse_1477" data-name="Elipse 1477" cx="0.08" cy="0.08" r="0.08" transform="translate(156.513 129.82)" fill="#42312e" opacity="0.3"/>
  <circle id="Elipse_1478" data-name="Elipse 1478" cx="0.08" cy="0.08" r="0.08" transform="translate(157.106 128.684)" fill="#42312e" opacity="0.3"/>
  <circle id="Elipse_1479" data-name="Elipse 1479" cx="0.08" cy="0.08" r="0.08" transform="translate(157.921 129.199)" fill="#42312e" opacity="0.3"/>
  <circle id="Elipse_1480" data-name="Elipse 1480" cx="0.08" cy="0.08" r="0.08" transform="translate(157.392 128.462)" fill="#42312e" opacity="0.3"/>
  <circle id="Elipse_1481" data-name="Elipse 1481" cx="0.08" cy="0.08" r="0.08" transform="translate(160.374 129.014)" fill="#42312e" opacity="0.3"/>
  <circle id="Elipse_1482" data-name="Elipse 1482" cx="0.08" cy="0.08" r="0.08" transform="translate(157.796 128.89)" fill="#42312e" opacity="0.3"/>
  <circle id="Elipse_1483" data-name="Elipse 1483" cx="0.08" cy="0.08" r="0.08" transform="translate(157.495 128.854)" fill="#42312e" opacity="0.3"/>
  <circle id="Elipse_1484" data-name="Elipse 1484" cx="0.08" cy="0.08" r="0.08" transform="translate(158.083 129.467)" fill="#42312e" opacity="0.3"/>
  <circle id="Elipse_1485" data-name="Elipse 1485" cx="0.08" cy="0.08" r="0.08" transform="translate(162.563 128.992)" fill="#42312e" opacity="0.3"/>
  <circle id="Elipse_1486" data-name="Elipse 1486" cx="0.08" cy="0.08" r="0.08" transform="translate(163.759 129.226)" fill="#42312e" opacity="0.3"/>
  <circle id="Elipse_1487" data-name="Elipse 1487" cx="0.08" cy="0.08" r="0.08" transform="translate(163.427 130.254)" fill="#42312e" opacity="0.3"/>
  <circle id="Elipse_1488" data-name="Elipse 1488" cx="0.08" cy="0.08" r="0.08" transform="translate(163.884 129.909)" fill="#42312e" opacity="0.3"/>
  <circle id="Elipse_1489" data-name="Elipse 1489" cx="0.08" cy="0.08" r="0.08" transform="translate(162.54 130.333)" fill="#42312e" opacity="0.3"/>
  <circle id="Elipse_1490" data-name="Elipse 1490" cx="0.08" cy="0.08" r="0.08" transform="translate(162.239 128.983)" fill="#42312e" opacity="0.3"/>
  <circle id="Elipse_1491" data-name="Elipse 1491" cx="0.08" cy="0.08" r="0.08" transform="translate(161.243 130.153)" fill="#42312e" opacity="0.3"/>
  <circle id="Elipse_1492" data-name="Elipse 1492" cx="0.08" cy="0.08" r="0.08" transform="translate(163.044 129.258)" fill="#42312e" opacity="0.3"/>
  <circle id="Elipse_1493" data-name="Elipse 1493" cx="0.08" cy="0.08" r="0.08" transform="translate(162.167 130.413)" fill="#42312e" opacity="0.3"/>
  <circle id="Elipse_1494" data-name="Elipse 1494" cx="0.08" cy="0.08" r="0.08" transform="translate(158.558 130.254)" fill="#42312e" opacity="0.3"/>
  <circle id="Elipse_1495" data-name="Elipse 1495" cx="0.08" cy="0.08" r="0.08" transform="translate(163.528 129.526)" fill="#42312e" opacity="0.3"/>
  <circle id="Elipse_1496" data-name="Elipse 1496" cx="0.08" cy="0.08" r="0.08" transform="translate(165.405 129.388)" fill="#42312e" opacity="0.3"/>
  <circle id="Elipse_1497" data-name="Elipse 1497" cx="0.059" cy="0.059" r="0.059" transform="translate(164.888 128.934)" fill="#42312e" opacity="0.3"/>
  <circle id="Elipse_1498" data-name="Elipse 1498" cx="0.059" cy="0.059" r="0.059" transform="translate(163.005 128.807)" fill="#42312e" opacity="0.3"/>
  <circle id="Elipse_1499" data-name="Elipse 1499" cx="0.059" cy="0.059" r="0.059" transform="translate(159.401 129.547)" fill="#42312e" opacity="0.3"/>
  <circle id="Elipse_1500" data-name="Elipse 1500" cx="0.059" cy="0.059" r="0.059" transform="translate(164.356 129.379)" fill="#42312e" opacity="0.3"/>
  <circle id="Elipse_1501" data-name="Elipse 1501" cx="0.059" cy="0.059" r="0.059" transform="translate(162.618 128.716)" fill="#42312e" opacity="0.3"/>
  <circle id="Elipse_1502" data-name="Elipse 1502" cx="0.059" cy="0.059" r="0.059" transform="translate(164.101 128.995)" fill="#42312e" opacity="0.3"/>
  <circle id="Elipse_1503" data-name="Elipse 1503" cx="0.059" cy="0.059" r="0.059" transform="translate(163.206 128.395)" fill="#42312e" opacity="0.3"/>
  <circle id="Elipse_1504" data-name="Elipse 1504" cx="0.059" cy="0.059" r="0.059" transform="translate(162.559 128.291)" fill="#42312e" opacity="0.3"/>
  <circle id="Elipse_1505" data-name="Elipse 1505" cx="0.059" cy="0.059" r="0.059" transform="translate(159.612 128.58)" fill="#42312e" opacity="0.3"/>
  <circle id="Elipse_1506" data-name="Elipse 1506" cx="0.059" cy="0.059" r="0.059" transform="translate(160.261 128.656)" fill="#42312e" opacity="0.3"/>
  <circle id="Elipse_1507" data-name="Elipse 1507" cx="0.059" cy="0.059" r="0.059" transform="translate(158.624 129.246)" fill="#42312e" opacity="0.3"/>
  <circle id="Elipse_1508" data-name="Elipse 1508" cx="0.059" cy="0.059" r="0.059" transform="translate(161.923 129.278)" fill="#42312e" opacity="0.3"/>
  <circle id="Elipse_1509" data-name="Elipse 1509" cx="0.059" cy="0.059" r="0.059" transform="translate(162.304 129.367)" fill="#42312e" opacity="0.3"/>
  <circle id="Elipse_1510" data-name="Elipse 1510" cx="0.059" cy="0.059" r="0.059" transform="translate(160.128 129.47)" fill="#42312e" opacity="0.3"/>
  <circle id="Elipse_1511" data-name="Elipse 1511" cx="0.059" cy="0.059" r="0.059" transform="translate(161.089 129.573)" fill="#42312e" opacity="0.3"/>
  <circle id="Elipse_1512" data-name="Elipse 1512" cx="0.059" cy="0.059" r="0.059" transform="translate(160.056 128.84)" fill="#42312e" opacity="0.3"/>
  <circle id="Elipse_1513" data-name="Elipse 1513" cx="0.059" cy="0.059" r="0.059" transform="translate(162.229 129.573)" fill="#42312e" opacity="0.3"/>
  <circle id="Elipse_1514" data-name="Elipse 1514" cx="0.059" cy="0.059" r="0.059" transform="translate(161.903 129.632)" fill="#42312e" opacity="0.3"/>
  <circle id="Elipse_1515" data-name="Elipse 1515" cx="0.059" cy="0.059" r="0.059" transform="translate(156.882 128.716)" fill="#42312e" opacity="0.3"/>
  <circle id="Elipse_1516" data-name="Elipse 1516" cx="0.059" cy="0.059" r="0.059" transform="translate(158.87 128.934)" fill="#42312e" opacity="0.3"/>
  <circle id="Elipse_1517" data-name="Elipse 1517" cx="0.059" cy="0.059" r="0.059" transform="translate(158.184 128.482)" fill="#42312e" opacity="0.3"/>
  <circle id="Elipse_1518" data-name="Elipse 1518" cx="0.059" cy="0.059" r="0.059" transform="translate(157.909 129.567)" fill="#42312e" opacity="0.3"/>
  <circle id="Elipse_1519" data-name="Elipse 1519" cx="0.059" cy="0.059" r="0.059" transform="translate(158.233 128.846)" fill="#42312e" opacity="0.3"/>
  <circle id="Elipse_1520" data-name="Elipse 1520" cx="0.059" cy="0.059" r="0.059" transform="translate(156.345 129.093)" fill="#42312e" opacity="0.3"/>
  <circle id="Elipse_1521" data-name="Elipse 1521" cx="0.059" cy="0.059" r="0.059" transform="translate(164.524 128.846)" fill="#42312e" opacity="0.3"/>
  <circle id="Elipse_1522" data-name="Elipse 1522" cx="0.08" cy="0.08" r="0.08" transform="translate(165.183 128.728)" fill="#42312e" opacity="0.3"/>
  <circle id="Elipse_1523" data-name="Elipse 1523" cx="0.08" cy="0.08" r="0.08" transform="translate(165.751 129.585)" fill="#42312e" opacity="0.3"/>
  <circle id="Elipse_1524" data-name="Elipse 1524" cx="0.08" cy="0.08" r="0.08" transform="translate(165.327 129.154)" fill="#42312e" opacity="0.3"/>
  <circle id="Elipse_1525" data-name="Elipse 1525" cx="0.08" cy="0.08" r="0.08" transform="translate(165.509 129.715)" fill="#42312e" opacity="0.3"/>
  <circle id="Elipse_1526" data-name="Elipse 1526" cx="0.08" cy="0.08" r="0.08" transform="translate(165.751 129.278)" fill="#42312e" opacity="0.3"/>
  <circle id="Elipse_1527" data-name="Elipse 1527" cx="0.08" cy="0.08" r="0.08" transform="translate(165.101 129.199)" fill="#42312e" opacity="0.3"/>
  <circle id="Elipse_1528" data-name="Elipse 1528" cx="0.08" cy="0.08" r="0.08" transform="translate(166.007 129.199)" fill="#42312e" opacity="0.3"/>
  <circle id="Elipse_1529" data-name="Elipse 1529" cx="0.08" cy="0.08" r="0.08" transform="translate(158.417 129.031)" fill="#42312e" opacity="0.3"/>
  <circle id="Elipse_1530" data-name="Elipse 1530" cx="0.08" cy="0.08" r="0.08" transform="translate(159.559 128.247)" fill="#42312e" opacity="0.3"/>
  <circle id="Elipse_1531" data-name="Elipse 1531" cx="0.08" cy="0.08" r="0.08" transform="translate(160.962 129.944)" fill="#42312e" opacity="0.3"/>
  <circle id="Elipse_1532" data-name="Elipse 1532" cx="0.08" cy="0.08" r="0.08" transform="translate(159.198 128.235)" fill="#42312e" opacity="0.3"/>
  <circle id="Elipse_1533" data-name="Elipse 1533" cx="0.08" cy="0.08" r="0.08" transform="translate(158.706 128.303)" fill="#42312e" opacity="0.3"/>
  <circle id="Elipse_1534" data-name="Elipse 1534" cx="0.08" cy="0.08" r="0.08" transform="translate(160.872 128.751)" fill="#42312e" opacity="0.3"/>
  <circle id="Elipse_1535" data-name="Elipse 1535" cx="0.08" cy="0.08" r="0.08" transform="translate(156.54 129.305)" fill="#42312e" opacity="0.3"/>
  <circle id="Elipse_1536" data-name="Elipse 1536" cx="0.08" cy="0.08" r="0.08" transform="translate(157.253 130.033)" fill="#42312e" opacity="0.3"/>
  <circle id="Elipse_1537" data-name="Elipse 1537" cx="0.08" cy="0.08" r="0.08" transform="translate(159.97 130.39)" fill="#42312e" opacity="0.3"/>
  <circle id="Elipse_1538" data-name="Elipse 1538" cx="0.08" cy="0.08" r="0.08" transform="translate(159.349 130.033)" fill="#42312e" opacity="0.3"/>
  <circle id="Elipse_1539" data-name="Elipse 1539" cx="0.08" cy="0.08" r="0.08" transform="translate(161.226 130.469)" fill="#42312e" opacity="0.3"/>
  <path id="Caminho_8021" data-name="Caminho 8021" d="M586.95,491.026s-3.221.156-1.7,1.179,5.873.451,5.873.451,2.407-.607.86-1.323a7.648,7.648,0,0,0-3.887-.262s-2.67.489-.616.919c0,0,2.475.224,2.584-.274s-1.391-.147-1.391-.147.793.177.245.265-1.179-.059-1.179-.215.813-.274,1.049-.265,1.473-.195,1.933.354a.2.2,0,0,1-.074.321,6.26,6.26,0,0,1-3.368.259C584.911,491.925,586.95,491.026,586.95,491.026Z" transform="translate(-427.802 -362.458)" opacity="0.1"/>
  <path id="Caminho_8022" data-name="Caminho 8022" d="M296.256,387.336s7.028-1.512,9.839.218a23.133,23.133,0,0,0,6.052,2.493s5.189,1.3,6.919,3.135,3.35.648,4.108,3.029a13.938,13.938,0,0,0,3.026,4.647l-1.081,16.106.866,9.3s.433,3.89-.648,4.756.215,2.269,1.179,3.026,3.459,3.674,3.135,4.756,2.6,2.272,2.6,2.272.106,1.836-1.3,2.269-3.123,6.91-3.123,6.91-18.923,18.175-25.19,16.539-10.92-7.458-10.92-7.458-4.217-18.917-5.4-21.946-4.326-12.965-4.326-12.965-1.73-11.459-2.593-13.728-.866-14.161,1.73-16.648,4.862-3.9,4.862-4.762,2.487-2.6,3.459-2.487a1.713,1.713,0,0,1,1.3,1.179Z" transform="translate(-211.993 -288.959)" fill="#ff748e"/>
  <path id="Caminho_8023" data-name="Caminho 8023" d="M473.832,476.119c-3.029,5.3-14.485,4.217-14.485,4.217s-4-.866-6.483.542-14.164,2.917-14.164,2.917-4.42-.972-5.513-2.381c-.94-1.223-9.9-6.539-12.214-7.9l-.46-.271h0a.618.618,0,0,1-.074-.044l.018-.021,9.6-12.081,1.571,1.68,7.723,8.25s7.57.324,9.724,1.624,8.975-.433,8.975-.433,3.35,0,3.565-.754S476.859,470.824,473.832,476.119Z" transform="translate(-311.845 -341.419)" fill="#ffccd0"/>
  <path id="Caminho_8024" data-name="Caminho 8024" d="M357.734,300.073a2.793,2.793,0,0,0-1.473.937c-.569.772-.495,1.827-.713,2.761-.359,1.526-1.553,2.905-1.326,4.455.082.545.321,1.155,0,1.6a1.187,1.187,0,0,1-1.364.224h-.035c-1.2-.483-1.856-1.73-2.708-2.7s-2.39-1.691-3.377-.86c-.828.7-.681,1.98-.6,3.064s-.224,2.469-1.291,2.652c-.427.08-.884-.077-1.3.021-1.341.312-1.235,2.628-2.54,3.053a2.687,2.687,0,0,1-1.423-.115,4.715,4.715,0,0,0-1.208-.106c-1.373.026-2.808.442-4.028.094.633-.884,1.235-1.794,1.783-2.652a12.485,12.485,0,1,1,21.616-12.411Z" transform="translate(-250.933 -222.97)" opacity="0.1"/>
  <path id="Caminho_8025" data-name="Caminho 8025" d="M329.684,296.54a2.685,2.685,0,0,0,1.423.112c1.308-.421,1.2-2.74,2.537-3.05.424-.1.884.056,1.3-.018,1.067-.192,1.37-1.579,1.291-2.652s-.224-2.357.6-3.062c.987-.831,2.525-.106,3.377.86s1.509,2.222,2.7,2.7a1.2,1.2,0,0,0,1.4-.212c.3-.41.085-1.052,0-1.6-.227-1.553.966-2.929,1.326-4.458.218-.934.144-1.986.713-2.758,1.2-1.627,4.293-.8,5.3-2.558a2.77,2.77,0,0,0,1.338-.171.953.953,0,0,0,.545-1.114c-.127-.327-.471-.5-.763-.7a3.465,3.465,0,0,1-1.5-2.97,16.072,16.072,0,0,0,.15-1.671,2.455,2.455,0,0,0-2.466-2.213c-.368.015-.728.118-1.1.127-1.753.053-3.221-1.921-4.927-1.523a4.962,4.962,0,0,1-1.087.28c-.86,0-1.394-.987-2.216-1.246-.654-.206-1.364.083-2.045,0a5.006,5.006,0,0,1-1.789-.778c-1.235-.672-2.882-.966-3.96-.071a3.534,3.534,0,0,1-.769.616,2.207,2.207,0,0,1-1.12.068,10.407,10.407,0,0,0-3.336.224,1.252,1.252,0,0,0-.763.4,2.148,2.148,0,0,0-.242.775c-.33,1.276-1.906,1.709-3.218,1.818a1.8,1.8,0,0,0-.972.262,1.428,1.428,0,0,0-.25,1.638,7.734,7.734,0,0,1,.642,1.656c.192,1.473-1.406,2.6-1.674,4.072-.365,2.03,1.886,4.025,1.12,5.943-.339.852-1.243,1.509-1.2,2.422s.928,1.444,1.473,2.142a5.951,5.951,0,0,1,.943,2.34c.333,1.326.377,3.884,1.924,4.349C326,297,327.964,296.136,329.684,296.54Z" transform="translate(-241.046 -204.681)" fill="#ffedba"/>
  <path id="Caminho_8026" data-name="Caminho 8026" d="M354.37,514.27c1.839,2.378,8.324,8,12.647,9.406S354.37,514.27,354.37,514.27Z" transform="translate(-265.243 -378.922)" opacity="0.1"/>
  <path id="Caminho_8027" data-name="Caminho 8027" d="M357.67,554.63c.757.539,4.217,7.025,7.891,7.567S357.67,554.63,357.67,554.63Z" transform="translate(-267.569 -407.389)" opacity="0.1"/>
  <path id="Caminho_8028" data-name="Caminho 8028" d="M360.61,535.55c.215.324,8.754,7.782,11.89,8.433s.433-2.6-3.459-4.111A62.394,62.394,0,0,1,360.61,535.55Z" transform="translate(-269.644 -393.932)" opacity="0.1"/>
  <path id="Caminho_8029" data-name="Caminho 8029" d="M360.61,589.48s5.728,2.063,9.621,1.515S360.61,589.48,360.61,589.48Z" transform="translate(-269.644 -431.97)" opacity="0.1"/>
  <path id="Caminho_8030" data-name="Caminho 8030" d="M383.35,621.3s5.622-4.108,8.442-4.323S383.35,621.3,383.35,621.3Z" transform="translate(-285.683 -451.363)" opacity="0.1"/>
  <path id="Caminho_8031" data-name="Caminho 8031" d="M297.5,406.78s13.622,1.512,9.839,2.163S297.5,406.78,297.5,406.78Z" transform="translate(-225.13 -303.104)" opacity="0.1"/>
  <path id="Caminho_8032" data-name="Caminho 8032" d="M297.14,427.317s6.483,0,8.863-1.081S297.14,427.317,297.14,427.317Z" transform="translate(-224.876 -316.613)" opacity="0.1"/>
  <path id="Caminho_8033" data-name="Caminho 8033" d="M290.17,456.806c1.179-.324,6.161-10.7,8.106-7.891S290.17,456.806,290.17,456.806Z" transform="translate(-219.96 -332.484)" opacity="0.1"/>
  <path id="Caminho_8034" data-name="Caminho 8034" d="M356.94,467.68s1.73,1.621,7.134,3.135S356.94,467.68,356.94,467.68Z" transform="translate(-267.056 -346.06)" opacity="0.1"/>
  <path id="Caminho_8035" data-name="Caminho 8035" d="M464.349,592.78s3.026,1.621.757,5.08S464.349,592.78,464.349,592.78Z" transform="translate(-342.468 -434.298)" opacity="0.1"/>
  <path id="Caminho_8036" data-name="Caminho 8036" d="M357.908,637.259l-.038-.46C358,635.273,357.908,637.259,357.908,637.259Z" transform="translate(-267.712 -464.939)" fill="#e4aab4"/>
  <path id="Caminho_8037" data-name="Caminho 8037" d="M318.426,539.519l-8.648-.863-1.621-3.241-8.978-49.326-.209-1.158,13.725.109.127,1.568,3.512,43.48c-.018.221-.038.51-.068.884C316.048,534.006,318.426,539.519,318.426,539.519Z" transform="translate(-226.167 -358.227)" fill="#e4aab4"/>
  <path id="Caminho_8038" data-name="Caminho 8038" d="M901.451,418.274l-.242.171c-.922.628-2.16-1.615-3.241-1.3-.928.265-1.694,3.135-2.7,3.135a10.552,10.552,0,0,1-4.5-1c-.156-.312-.295-.607-.457-.884-.563-1.043-.987-1.688-.987-1.688s1.529-.253,3.459-.525c.884-.13,1.88-.259,2.835-.374h0c.5-.062.99-.112,1.453-.162,1.892-.186,3.38-.23,3.38.088a7.034,7.034,0,0,0,.772,2.063C901.283,417.95,901.369,418.112,901.451,418.274Z" transform="translate(-642.564 -309.253)" opacity="0.1"/>
  <path id="Caminho_8039" data-name="Caminho 8039" d="M894.615,368.213a10.581,10.581,0,1,1-3.1-7.5A10.608,10.608,0,0,1,894.615,368.213Z" transform="translate(-631.335 -268.43)" fill="#ffc1c7"/>
  <path id="Caminho_8040" data-name="Caminho 8040" d="M931.222,449.179l-3.162.324s.324-2.838,1.7-3.73c.913-.589,2.62-1.509,3.66-2.063a4.124,4.124,0,0,0,1.143.368C929.707,447.2,931.222,449.179,931.222,449.179Z" transform="translate(-669.89 -329.152)" fill="#fff"/>
  <path id="Caminho_8041" data-name="Caminho 8041" d="M787.457,508.509l-.757-.109s-3.3.218-6.539.589-7.838,1.352-4.488,5.242,6.432-.7,6.432-.7,3.135,3.892,5.566,2.593S787.457,508.509,787.457,508.509Z" transform="translate(-561.581 -374.781)" fill="#ffc1c7"/>
  <path id="Caminho_8042" data-name="Caminho 8042" d="M773.15,718.96s2.063,4.971,1.892,6.376,6.866-1.35,6.866-1.35-1.624-3.783-.757-4.594S773.15,718.96,773.15,718.96Z" transform="translate(-560.624 -523.236)" fill="#ffc1c7"/>
  <rect id="Retângulo_17366" data-name="Retângulo 17366" width="5.596" height="7.134" transform="translate(202.798 209.128)" fill="#ffc1c7"/>
  <path id="Caminho_8043" data-name="Caminho 8043" d="M743.538,642.481a12.354,12.354,0,0,0-1.241,3.96,39.475,39.475,0,0,0-.589,5.551c0,1.084.536.866,0,2.6a25.047,25.047,0,0,0-1.055,4.146,1.349,1.349,0,0,1-.029.18,10.594,10.594,0,0,1-.648,2.593s-8.215-.539-9.942-1.73.648-2.378.648-2.378V657.1c.174-3.3,1.859-35.147,2.578-38.53a4.311,4.311,0,0,1,1.052-1.957,11.209,11.209,0,0,1,3.707-2.5,17.609,17.609,0,0,1,2.266-.84s.43,2.5.993,6.035C742.566,627.4,744.516,640.9,743.538,642.481Z" transform="translate(-529.769 -448.758)" fill="#575988"/>
  <path id="Caminho_8044" data-name="Caminho 8044" d="M753.056,619.365c-.634,1.158-1.279,1.883-1.747,1.317a33.653,33.653,0,0,0-5.218-4.013c2-2.245,5.973-3.339,5.973-3.339S752.493,615.826,753.056,619.365Z" transform="translate(-541.538 -448.793)" fill="#ffc1c7"/>
  <path id="Caminho_8045" data-name="Caminho 8045" d="M839.475,584.815c-.08,1.2-.224,2.652-.474,4.42a13.536,13.536,0,0,1-7.366,10.272s-19.89,0-23.352-.972a5.274,5.274,0,0,0-4.358.793c-.124.08-.239.159-.351.242a7.582,7.582,0,0,0-1.341,1.235s-2.163-8.757-2.163-9.187a19.077,19.077,0,0,1,3.35-7.028c2.172-2.7,14.916-3.135,15.676-3.241.5-.071,5.148-2.1,8.215-3.45,1.553-.684,2.7-1.2,2.7-1.2l5.009,1.591.186.056,4,1.273S839.728,580.813,839.475,584.815Z" transform="translate(-579.612 -422.956)" fill="#575988"/>
  <path id="Caminho_8046" data-name="Caminho 8046" d="M835.238,578.294c-.955.4-2.466,1.008-4.22,1.638-3.813,1.385-8.772,2.9-11.671,2.652a46.875,46.875,0,0,0-11.135.754,19.552,19.552,0,0,0-5.195,3.362c-2.7,2.378-.324,3.132.866,5.946.486,1.152.374,3.848.071,6.63-.124.08-.239.159-.351.242a7.578,7.578,0,0,0-1.341,1.235S800.1,592,800.1,591.566a19.078,19.078,0,0,1,3.35-7.028c2.172-2.7,14.916-3.135,15.676-3.241.5-.071,5.148-2.1,8.215-3.451,1.553-.684,2.7-1.2,2.7-1.2l5.009,1.591Z" transform="translate(-579.634 -422.921)" opacity="0.1"/>
  <path id="Caminho_8047" data-name="Caminho 8047" d="M764.194,642.488a12.354,12.354,0,0,0-1.24,3.96,2.718,2.718,0,0,1-.589-.392c-.993-.84-.908-2.434-.769-3.45.056-.421.121-.745.121-.884,0-.436.43-4.329-.436-5.731s-1.078-6.919-1.078-6.919a115.841,115.841,0,0,1-1.512-14.942,17.615,17.615,0,0,1,2.266-.84s.43,2.5.993,6.035C763.222,627.41,765.172,640.9,764.194,642.488Z" transform="translate(-550.425 -448.765)" opacity="0.1"/>
  <path id="Caminho_8048" data-name="Caminho 8048" d="M807.521,564.856s-.345.153-.943.4c-.943.392-2.516,1.031-4.358,1.694-3.813,1.385-8.775,2.9-11.672,2.652a46.878,46.878,0,0,0-11.135.754,19.55,19.55,0,0,0-5.189,3.353c-2.7,2.378-.324,3.132.866,5.946.5,1.179.365,4,.044,6.871-.439,3.928-1.235,7.938-1.235,7.938a3.653,3.653,0,0,0-.106,1.73,54.116,54.116,0,0,1,.212,5.619,2.947,2.947,0,0,0-.463,1.417,1.859,1.859,0,0,0,.357,1.179c.866,1.179.218,4.326.218,4.326a13.4,13.4,0,0,1-4.977-.436c-3.138-.76-4.323.112-5.725-1.078-.993-.84-.908-2.434-.769-3.451.056-.421.121-.745.121-.884,0-.436.43-4.329-.436-5.731s-1.078-6.919-1.078-6.919-3.442-19.8.021-24.613a2.816,2.816,0,0,1,.195-.25c1.93-2.21,5.949-2.611,9.7-2.393A40.559,40.559,0,0,1,779.2,564.3a4.575,4.575,0,0,0,3.892-.109c.769-.295.831-1.812.8-2.652V561.3a1.806,1.806,0,0,0-.029-.348l.958-.522,4.013-2.178Z" transform="translate(-551.159 -409.942)" fill="#575988"/>
  <path id="Caminho_8049" data-name="Caminho 8049" d="M891.455,376.86a21.3,21.3,0,0,0,2.569,4.04,1.627,1.627,0,0,1-1.043.026c-.354-.138-.61-.454-.952-.616-.884-.415-1.868.171-2.755-.377a1.759,1.759,0,0,1-.86-1.653v-.295c0-.946-.1-2.823-1.1-3.288a1.547,1.547,0,0,0-1.22.041,1.459,1.459,0,0,0-.233.121h0c-.669.395-1.152,1.235-1.912,1.179a1.143,1.143,0,0,1-.922-.793,5.274,5.274,0,0,1-.312-1.323,21.106,21.106,0,0,0-1.529-4.992c-.124-.309-.295-.666-.642-.7-.536-.044-.669.79-.374,1.241s.8.8.884,1.329c.124.884-1.2,1.4-1.921.884a2.464,2.464,0,0,1-.7-2.446,25.2,25.2,0,0,0,.589-2.617,2.045,2.045,0,0,0-1.205-2.169c-.751-.224-1.544.224-2.325.236a10.608,10.608,0,1,1,15.991,12.169Z" transform="translate(-632.81 -268.319)" opacity="0.1"/>
  <path id="Caminho_8050" data-name="Caminho 8050" d="M879.425,351.847c-.8.295-1.3,1.364-2.154,1.285s-1.12-1.235-1.235-2.116a21.108,21.108,0,0,0-1.529-4.992c-.124-.309-.309-.666-.642-.7-.536-.044-.669.79-.374,1.241s.807.8.884,1.329c.127.884-1.2,1.4-1.918.884a2.465,2.465,0,0,1-.7-2.446,26.177,26.177,0,0,0,.589-2.617,2.053,2.053,0,0,0-1.205-2.172c-.857-.253-1.768.362-2.652.215a1.641,1.641,0,0,1-1.134-2.257c.38-.737,1.358-1.326,1.1-2.113-.318-.981-1.992-.551-2.652-1.352-.516-.628-.044-1.615.628-2.063s1.512-.636,2.154-1.137c1.208-.94,1.414-2.752,2.558-3.775,1.3-1.179,3.3-.922,4.936-1.529,1.568-.589,2.976-1.995,4.62-1.7.4.071.772.239,1.179.277a5.222,5.222,0,0,0,2.357-.74,5.613,5.613,0,0,1,4.632.215,1.9,1.9,0,0,0,2.007,1.948c.769-.027,1.818-.295,2.086.436.127.333-.032.722.085,1.061.2.589,1.02.631,1.55.966,1.208.766.645,2.849,1.691,3.831a5.791,5.791,0,0,0,1.694.787c1.889.837,2.572,3.12,3.041,5.133a2.52,2.52,0,0,1,.08,1.2c-.156.589-.707.969-1.014,1.491-.731,1.243.05,2.888-.415,4.252s-2,2.139-2.213,3.536c-.074.471.024.958-.053,1.429-.206,1.279-1.553,2.015-2.793,2.393a1.326,1.326,0,0,0-.9.56c-.068.147-.08.315-.136.469a1.527,1.527,0,0,1-.884.728q-2.422,1.143-4.939,2.083a2.093,2.093,0,0,1-1.453.165c-.354-.138-.607-.457-.952-.616-.884-.418-1.868.171-2.752-.377a1.932,1.932,0,0,1-.884-1.939C881.741,353.859,881.579,351.016,879.425,351.847Z" transform="translate(-625.825 -245.404)" fill="#b97482"/>
  <path id="Caminho_8051" data-name="Caminho 8051" d="M740.634,763.639a1.34,1.34,0,0,1-.029.18,10.593,10.593,0,0,1-.648,2.593s-8.215-.539-9.942-1.73.648-2.378.648-2.378v-.295C733.506,762.738,738.406,763.813,740.634,763.639Z" transform="translate(-529.755 -553.662)" fill="#575988"/>
  <path id="Caminho_8052" data-name="Caminho 8052" d="M740.634,763.639a1.34,1.34,0,0,1-.029.18,10.593,10.593,0,0,1-.648,2.593s-8.215-.539-9.942-1.73.648-2.378.648-2.378v-.295C733.506,762.738,738.406,763.813,740.634,763.639Z" transform="translate(-529.755 -553.662)" opacity="0.1"/>
  <path id="Caminho_8053" data-name="Caminho 8053" d="M724.867,774.2s-9.515.648-9.892.486-.38,5.027-.38,5.027-2.107,4.217-2.378,5.242a17.387,17.387,0,0,1-2.378,3.568s-3.02,2.216,1.4,3.079a25.7,25.7,0,0,0,9.3-.268s3.241-5.622,3.512-5.3,0,2.973,0,2.973l1.892-.486s-.324-3.512.433-5.4S724.867,774.2,724.867,774.2Z" transform="translate(-515.259 -562.261)" fill="#d3878a"/>
  <path id="Caminho_8054" data-name="Caminho 8054" d="M780.9,714.09a13.4,13.4,0,0,1-4.977-.436c-3.138-.76-4.323.112-5.725-1.078-.993-.84-.908-2.434-.769-3.451,1.373-.295,3.5-.745,5.148-.984a18.621,18.621,0,0,1,5.749.445,1.848,1.848,0,0,0,.357,1.179C781.551,710.952,780.9,714.09,780.9,714.09Z" transform="translate(-557.942 -515.608)" opacity="0.1"/>
  <path id="Caminho_8055" data-name="Caminho 8055" d="M780.9,715.19a13.4,13.4,0,0,1-4.977-.436c-3.138-.76-4.323.112-5.725-1.078-.993-.84-.908-2.434-.769-3.451,1.373-.295,3.5-.745,5.148-.984a18.619,18.619,0,0,1,5.749.445,1.859,1.859,0,0,0,.357,1.179C781.551,712.058,780.9,715.19,780.9,715.19Z" transform="translate(-557.942 -516.384)" fill="#575988"/>
  <path id="Caminho_8056" data-name="Caminho 8056" d="M780.9,715.19a13.4,13.4,0,0,1-4.977-.436c-3.138-.76-4.323.112-5.725-1.078-.993-.84-.908-2.434-.769-3.451,1.373-.295,3.5-.745,5.148-.984a18.619,18.619,0,0,1,5.749.445,1.859,1.859,0,0,0,.357,1.179C781.551,712.058,780.9,715.19,780.9,715.19Z" transform="translate(-557.942 -516.384)" opacity="0.1"/>
  <path id="Caminho_8057" data-name="Caminho 8057" d="M784.282,747.045l-3.188.81-.919-3.783s-.8,1.52-2.219,3.627c-.189.277-.383.566-.589.86-1.627,2.319-7.1,1.753-8.972.4a1.96,1.96,0,0,1-.43-.4c-1.246-1.621.648-3.191,1.565-4.055s.433-6.594.433-6.594a12.287,12.287,0,0,1-.109-3.73c.324-1.19,8.489-1.621,8.489-1.621a44.992,44.992,0,0,0,2.593,5.728c.922,1.353,2.063,3.026,1.836,4.217S784.282,747.045,784.282,747.045Z" transform="translate(-556.677 -532.891)" fill="#d3878a"/>
  <path id="Caminho_8058" data-name="Caminho 8058" d="M778.26,579.2c-1.394,1.768-10.463.433-13.26-2.29a2.823,2.823,0,0,1,.194-.25c1.93-2.21,5.949-2.611,9.7-2.393C776.615,575.5,779.368,577.789,778.26,579.2Z" transform="translate(-554.876 -421.201)" fill="#ffc1c7"/>
  <path id="Caminho_8059" data-name="Caminho 8059" d="M768.792,587.865s-1.565-2.219-2.973-1.134-1.839-1.892-1.839-1.892.757-.539,2.378.271,3.459,2.216,3.241,2.487S768.792,587.865,768.792,587.865Z" transform="translate(-554.157 -428.573)" opacity="0.1"/>
  <path id="Caminho_8060" data-name="Caminho 8060" d="M768.792,586.765s-1.568-2.216-2.973-1.134-1.839-1.892-1.839-1.892.757-.539,2.378.271,3.459,2.216,3.241,2.487S768.792,586.765,768.792,586.765Z" transform="translate(-554.157 -427.797)" fill="#575988"/>
  <path id="Caminho_8061" data-name="Caminho 8061" d="M879.73,595.53s8,3.674,6.214,5.148S879.73,595.53,879.73,595.53Z" transform="translate(-635.8 -436.237)" opacity="0.1"/>
  <path id="Caminho_8062" data-name="Caminho 8062" d="M770.22,680.269s5.08.589,6.214,1.352a5.736,5.736,0,0,0,2.92,1.025C780,682.647,772.489,678.43,770.22,680.269Z" transform="translate(-558.558 -495.68)" opacity="0.1"/>
  <path id="Caminho_8063" data-name="Caminho 8063" d="M789.051,671.29s-1.945,1.352.271,1.892S789.051,671.29,789.051,671.29Z" transform="translate(-571.284 -489.674)" opacity="0.1"/>
  <path id="Caminho_8064" data-name="Caminho 8064" d="M754.07,732.38s2.867,3.565,3.892,2.593S754.07,732.38,754.07,732.38Z" transform="translate(-547.167 -532.764)" opacity="0.1"/>
  <path id="Caminho_8065" data-name="Caminho 8065" d="M747.84,754.258a3.476,3.476,0,0,1,2.325.866c1.406.972,1.512-.757.972-1.473S747.84,754.258,747.84,754.258Z" transform="translate(-542.773 -547.617)" opacity="0.1"/>
  <path id="Caminho_8066" data-name="Caminho 8066" d="M736.83,485.93c.486.162,3.324.884,3.893,2.6S736.83,485.93,736.83,485.93Z" transform="translate(-535.007 -358.933)" opacity="0.1"/>
  <path id="Caminho_8067" data-name="Caminho 8067" d="M312.842,486.6l-.233-.056s-8.28-1.859-13.41-.463l-.209-1.158,13.725.109Z" transform="translate(-226.181 -358.22)" opacity="0.1"/>
  <path id="Caminho_8068" data-name="Caminho 8068" d="M292.026,478.32s20.756.109,27.993,14.376,8.866,41.515,8.866,41.515,1.179,3.892-.542,4-2.487-3.565-2.487-3.565.651-2.7.109-3.892-7.125-34.257-7.125-34.257-.757-10.378-19.674-14.919c0,0-22.161-4.971-16.433,7.461,0,0,.324,1.73-.863,1.406s-2.6-3.568-1.621-7.661S292.026,478.32,292.026,478.32Z" transform="translate(-212.732 -353.564)" fill="#e4aab4"/>
  <path id="Caminho_8069" data-name="Caminho 8069" d="M431.658,462.753l-.059.05c-1.473,1.179-6.922,10.437-10.593,10.693a1.332,1.332,0,0,1-.215,0s-.085-.1-.245-.28h0a.273.273,0,0,0-.056-.065l9.6-12.081Z" transform="translate(-311.88 -341.397)" opacity="0.1"/>
  <path id="Caminho_8070" data-name="Caminho 8070" d="M395.437,425.486l4.865,2.063s2.378,2.378,2.272,4.541,1.179.539,1.179.539a1.353,1.353,0,0,1,.866,1.179c0,.854,2.378,1.73.863,2.917s-7.134,10.811-10.808,10.7a74.076,74.076,0,0,0-7.028-7.025C383.872,437.161,380.412,420.512,395.437,425.486Z" transform="translate(-286.419 -315.649)" opacity="0.1"/>
  <path id="Caminho_8071" data-name="Caminho 8071" d="M396.556,425.486l4.865,2.063s2.378,2.378,2.272,4.541,1.179.539,1.179.539a1.353,1.353,0,0,1,.866,1.179c0,.854,2.378,1.73.863,2.917s-7.134,10.811-10.808,10.7a74.076,74.076,0,0,0-7.028-7.025C384.982,437.161,381.528,420.512,396.556,425.486Z" transform="translate(-287.206 -315.649)" fill="#ff748e"/>
  <path id="Caminho_8072" data-name="Caminho 8072" d="M859.817,470.837,854.79,479.8l-3.48,1.794c-.085-.943-.141-1.579-.141-1.579s-2.272-5.3,3.568-9.3c5.118-3.509,2.422-6.353,1.682-7l.156-.138,1.179-.162Z" transform="translate(-615.349 -343.055)" opacity="0.1"/>
  <path id="Caminho_8073" data-name="Caminho 8073" d="M976.458,472.215c-.8,1.768-7.617,6.55-7.617,6.55a.284.284,0,0,1,0,.035l-.321-.359L975,470.98l1.179.757Z" transform="translate(-698.427 -348.388)" opacity="0.1"/>
  <path id="Caminho_8074" data-name="Caminho 8074" d="M867.978,571.858a16.542,16.542,0,0,1-2.852.083,42.427,42.427,0,0,0-5.949-4.93c-1.02-.7-2.142-1.417-3.347-2.089-4.27-2.357-9.576-4.217-14.986-3.315-.121.018-.245.041-.362.065,0,0,.133-.109.354-.295s.56-.5.928-.869l4.013-2.177,18.7,6.592s-.345.153-.943.4l4.187,1.329S868.231,567.856,867.978,571.858Z" transform="translate(-608.116 -409.999)" opacity="0.1"/>
  <path id="Caminho_8075" data-name="Caminho 8075" d="M862.759,453.125s14.485,1.406,21.08.648c0,0,3.241,2.487,2.811,4.108s-7.661,6.7-7.661,6.7-.539,12.65-3.459,15.676S870,491.069,871.3,493.668s-5.08,2.163-5.08,2.163-12.108-12.647-24.648-10.269c0,0,4.541-3.677,4.217-6.379s-.757-7.676-.757-7.676-2.269-5.3,3.568-9.3,1.515-7.143,1.515-7.143-.218-.972,2.269-1.3a25.585,25.585,0,0,0,3.568-.648s2.378-2.163,3.459-1.73S862.759,453.125,862.759,453.125Z" transform="translate(-608.884 -334.531)" fill="#f9267b"/>
  <path id="Caminho_8076" data-name="Caminho 8076" d="M912.244,490.139s1.73,3.4-.162,5.186a22.706,22.706,0,0,0-2.03,2.46,73.752,73.752,0,0,0-8.713,15.146c-3.993,9.305-10.876,25.123-11.9,25.96-1.473,1.179-1.568,3.621-.109,3.677s2.325-1.948,2.325-1.948a57.463,57.463,0,0,1,2.378-5.837c.919-1.677,10.487-23.62,10.487-23.62s3.568-9.406,7.567-11.565c0,0,3.459-5.731,2.864-8.271A1.669,1.669,0,0,0,912.244,490.139Z" transform="translate(-641.829 -361.647)" opacity="0.1"/>
  <path id="Caminho_8077" data-name="Caminho 8077" d="M912.244,489.013s1.73,3.406-.162,5.189a22.706,22.706,0,0,0-2.03,2.46,73.749,73.749,0,0,0-8.713,15.146c-3.993,9.305-10.876,25.123-11.9,25.96-1.473,1.179-1.568,3.621-.109,3.677s2.325-1.948,2.325-1.948a57.463,57.463,0,0,1,2.378-5.837c.919-1.677,10.487-23.62,10.487-23.62s3.568-9.406,7.567-11.565c0,0,3.459-5.731,2.864-8.271A1.671,1.671,0,0,0,912.244,489.013Z" transform="translate(-641.829 -360.854)" fill="#e4aab4"/>
  <path id="Caminho_8078" data-name="Caminho 8078" d="M954.3,487.086a9.7,9.7,0,0,1-.5,5.784s-4.594.215-9.187-6.217l-2.758-6.757s-3.079-5.242-4.918-4.971-3.241,9.459-7.62,8.592-2.063-11.889,3.727-13.027l2.234-.569a5.389,5.389,0,0,1,4.688.993c1.073.846,2.522,1.968,4.27,3.241,1.432,1.055,2.79,2.086,3.934,2.97a16.207,16.207,0,0,1,6.135,9.959Z" transform="translate(-669.165 -347.521)" fill="#ffc1c7"/>
  <path id="Caminho_8079" data-name="Caminho 8079" d="M857.07,526.93a10.177,10.177,0,0,0,5.758,3.241c3.568.566,5.6-.566,8.6.651S857.07,526.93,857.07,526.93Z" transform="translate(-619.817 -387.852)" opacity="0.1"/>
  <path id="Caminho_8080" data-name="Caminho 8080" d="M942.8,509.87s-6.73,5.755-6.482,7.3S942.8,509.87,942.8,509.87Z" transform="translate(-675.706 -375.818)" opacity="0.1"/>
  <g id="Grupo_11934" data-name="Grupo 11934" transform="translate(239.964 89.187)" opacity="0.1">
    <path id="Caminho_8081" data-name="Caminho 8081" d="M889.623,396.918a1.37,1.37,0,0,1-1.6.106,2.3,2.3,0,0,1-.743-2.1c-.068.245-.13.489-.174.74a2.471,2.471,0,0,0,.7,2.446c.722.527,2.045,0,1.921-.884A1.178,1.178,0,0,0,889.623,396.918Z" transform="translate(-880.924 -383.926)"/>
    <path id="Caminho_8082" data-name="Caminho 8082" d="M876.921,378.229a5.9,5.9,0,0,0,.233-1.235,2.071,2.071,0,0,0-1.205-2.172c-.857-.253-1.768.365-2.652.215a1.63,1.63,0,0,1-1.255-1.338,1.3,1.3,0,0,0-.094.162,1.638,1.638,0,0,0,1.131,2.257c.884.147,1.8-.469,2.652-.215a2.068,2.068,0,0,1,1.205,2.172A1.28,1.28,0,0,1,876.921,378.229Z" transform="translate(-870.175 -368.959)"/>
    <path id="Caminho_8083" data-name="Caminho 8083" d="M869.1,360.315a1.09,1.09,0,0,0,.256-1c-.318-.981-1.995-.551-2.652-1.35a1.014,1.014,0,0,1-.183-.359,1.213,1.213,0,0,0-.032,1.438C867.125,359.823,868.711,359.449,869.1,360.315Z" transform="translate(-866.267 -357.61)"/>
    <path id="Caminho_8084" data-name="Caminho 8084" d="M914.613,399.069a1.326,1.326,0,0,0-.9.56c-.071.147-.08.315-.138.469a1.537,1.537,0,0,1-.866.728c-1.615.763-3.265,1.459-4.938,2.083a2.1,2.1,0,0,1-1.453.165c-.354-.138-.61-.457-.952-.616-.884-.415-1.868.171-2.752-.377a1.922,1.922,0,0,1-.884-1.936c0-1.238-.168-4.075-2.319-3.241-.8.295-1.3,1.364-2.157,1.285s-1.117-1.235-1.232-2.116a21.114,21.114,0,0,0-1.529-4.992c-.124-.309-.309-.666-.642-.7-.492-.041-.642.66-.436,1.123a.413.413,0,0,1,.221-.041c.33.029.516.386.639.7a20.711,20.711,0,0,1,1.529,4.992c.115.884.351,2.033,1.235,2.116s1.355-.978,2.154-1.285c2.154-.831,2.319,2.007,2.322,3.241a1.907,1.907,0,0,0,.884,1.939c.884.548,1.865-.041,2.755.377.342.159.589.477.949.616a2.153,2.153,0,0,0,1.456-.165q2.511-.937,4.936-2.083a1.624,1.624,0,0,0,.884-.728c.059-.153.068-.321.138-.469a1.313,1.313,0,0,1,.9-.56c1.238-.377,2.587-1.114,2.79-2.393a2.863,2.863,0,0,0,.029-.5A4.264,4.264,0,0,1,914.613,399.069Z" transform="translate(-885.352 -380.727)"/>
    <path id="Caminho_8085" data-name="Caminho 8085" d="M983.367,377.93a2.673,2.673,0,0,0-.327,1.3,1.944,1.944,0,0,1,.112-.221c.295-.522.854-.908,1.011-1.491a1.715,1.715,0,0,0,.024-.66C983.953,377.234,983.594,377.547,983.367,377.93Z" transform="translate(-948.631 -371.188)"/>
    <path id="Caminho_8086" data-name="Caminho 8086" d="M975.155,398.828a3.177,3.177,0,0,0-.026.474c.48-1.043,1.641-1.8,2.024-2.92a3.149,3.149,0,0,0,.153-.922C976.79,396.695,975.361,397.5,975.155,398.828Z" transform="translate(-943.051 -384.307)"/>
  </g>
  <path id="Caminho_8087" data-name="Caminho 8087" d="M794.737,762.28a32.114,32.114,0,0,0-3.459,2.652c-1.406,1.3-4.918,2.378-4.918,2.378Z" transform="translate(-569.942 -553.854)" opacity="0.1"/>
  <path id="Caminho_8088" data-name="Caminho 8088" d="M737.369,808.68s-6.648,5.946-7.729,5.84S737.369,808.68,737.369,808.68Z" transform="translate(-529.87 -586.581)" opacity="0.1"/>
  <path id="Caminho_8089" data-name="Caminho 8089" d="M779.972,783.3c-.189.277-.383.566-.589.86-1.627,2.319-7.1,1.753-8.972.4C772.084,783.991,777.252,782.4,779.972,783.3Z" transform="translate(-558.692 -568.486)" opacity="0.1"/>
  <g id="Grupo_11935" data-name="Grupo 11935" transform="translate(171.477 80.922)" opacity="0.1">
    <path id="Caminho_8090" data-name="Caminho 8090" d="M711.31,330.235a4.28,4.28,0,0,0,.174-.675A4.286,4.286,0,0,0,711.31,330.235Z" transform="translate(-688.485 -329.56)"/>
    <path id="Caminho_8091" data-name="Caminho 8091" d="M636.144,341.714a2.621,2.621,0,0,1,.162-.433c.469-1.058-.133-1.812-.831-2.522a3.875,3.875,0,0,1-1.232-2.357,6.417,6.417,0,0,1-.071-.751,1.6,1.6,0,0,0-.15.236,2.825,2.825,0,0,0-.1,1.65,3.851,3.851,0,0,0,1.232,2.357A2.655,2.655,0,0,1,636.144,341.714Z" transform="translate(-633.848 -333.856)"/>
    <path id="Caminho_8092" data-name="Caminho 8092" d="M692.556,385.36c-.533-.153-1,.371-1.27.857s-.566,1.07-1.114,1.14c-.669.085-1.126-.633-1.4-1.246a4.856,4.856,0,0,1-.548-1.93,2.166,2.166,0,0,1,.024-.242,4.361,4.361,0,0,0-.348,1.376,4.445,4.445,0,0,0,.542,1.93c.28.616.734,1.332,1.4,1.246.548-.071.852-.654,1.114-1.14s.737-1.011,1.27-.857c.239.071.486.271.7.15a.507.507,0,0,0,.2-.354,4.259,4.259,0,0,0,.1-.772C693.022,385.614,692.786,385.431,692.556,385.36Z" transform="translate(-671.97 -367.916)"/>
    <path id="Caminho_8093" data-name="Caminho 8093" d="M709.548,364.817a6.8,6.8,0,0,0-1.983,1.768,2.793,2.793,0,0,0-.295,1.1,7.044,7.044,0,0,1,1.96-1.733,5.761,5.761,0,0,0,2.045-3.468A5.746,5.746,0,0,1,709.548,364.817Z" transform="translate(-685.635 -352.78)"/>
    <path id="Caminho_8094" data-name="Caminho 8094" d="M655.049,355.395a6.43,6.43,0,0,0,.295-1,6.167,6.167,0,0,0-.469-3.038c-.242-.719-.7-1.591-1.473-1.5a1.662,1.662,0,0,1-.448.053c-.4-.065-.483-.589-.525-.99a4.491,4.491,0,0,0-3.666-3.831,1.158,1.158,0,0,0-.642.041c-.295.127-.436.43-.69.607-.822.569-1.868-.522-2.87-.439-.849.071-1.367.943-1.718,1.718s-.79,1.665-1.621,1.848a.489.489,0,0,1-.392-.047.3.3,0,0,1-.13-.242,1.768,1.768,0,0,1-.147.5c-.13.295-.309.7-.047.884a.5.5,0,0,0,.392.044c.831-.18,1.27-1.07,1.621-1.845s.884-1.65,1.718-1.721c1-.083,2.048,1.008,2.87.439.253-.174.41-.48.689-.607a1.149,1.149,0,0,1,.639-.041,4.491,4.491,0,0,1,3.7,3.831c.041.4.124.928.524.99a1.66,1.66,0,0,0,.448-.053c.754-.085,1.217.784,1.456,1.5A6.466,6.466,0,0,1,655.049,355.395Z" transform="translate(-638.451 -340.491)"/>
  </g>
  <path id="Caminho_8095" data-name="Caminho 8095" d="M637.67,493.118a31.062,31.062,0,0,1-6,1.255c-1.874,0-9.155-.038-9.155-.038s-19.053-6.365-13.336,2.357,14.754,3.851,14.754,3.851l1.618.362c.884.2,18.119.041,18.687-.648S637.67,493.118,637.67,493.118Z" transform="translate(-444.214 -363.28)" fill="#cf6f80"/>
  <path id="Caminho_8096" data-name="Caminho 8096" d="M713.338,496.675c-2.6.239-7.7.295-7.7.295s-3.81-7.54-7.051-7.3c0,0,3-3.4,4.214-3,.206.068.333-.08.392-.371,3.179.969,9.232,3.341,9.824,7.508C713.179,494.928,713.279,495.874,713.338,496.675Z" transform="translate(-508.034 -359.193)" opacity="0.1"/>
  <path id="Caminho_8097" data-name="Caminho 8097" d="M714.438,496.675c-2.6.239-7.7.295-7.7.295s-3.81-7.54-7.051-7.3c0,0,3-3.4,4.214-3,.206.068.333-.08.395-.371,3.176.969,9.229,3.341,9.821,7.508C714.279,494.928,714.379,495.874,714.438,496.675Z" transform="translate(-508.81 -359.193)" fill="#575a89"/>
  <path id="Caminho_8099" data-name="Caminho 8099" d="M672.45,592.529s7.3-1.786,8.43-.813S672.45,592.529,672.45,592.529Z" transform="translate(-489.597 -433.343)" opacity="0.1"/>
  <path id="Caminho_8100" data-name="Caminho 8100" d="M601.46,618.83s3.079,1.768,3.4,3.241S601.46,618.83,601.46,618.83Z" transform="translate(-439.525 -452.672)" opacity="0.1"/>
  <g id="Grupo_11936" data-name="Grupo 11936" transform="translate(79.048 67.854)" opacity="0.1">
    <path id="Caminho_8101" data-name="Caminho 8101" d="M425.535,286.751a3.35,3.35,0,0,0,.171,1.179v-.371a15.288,15.288,0,0,0,.153-1.674,2.281,2.281,0,0,0-.159-.675C425.7,285.737,425.559,286.235,425.535,286.751Z" transform="translate(-394.484 -285.21)"/>
    <path id="Caminho_8102" data-name="Caminho 8102" d="M323.6,287.025c.144.377.354.734.5,1.111a1.658,1.658,0,0,0-.015-.268,6.883,6.883,0,0,0-.613-1.588A2.124,2.124,0,0,0,323.6,287.025Z" transform="translate(-322.494 -285.965)"/>
    <path id="Caminho_8103" data-name="Caminho 8103" d="M360.054,305a.808.808,0,0,0-.18-.271,1.1,1.1,0,0,1-.53.572,2.793,2.793,0,0,1-1.335.174c-1.011,1.75-4.1.931-5.3,2.558-.572.772-.5,1.824-.716,2.758-.357,1.526-1.553,2.905-1.323,4.458.08.542.321,1.155,0,1.6a1.155,1.155,0,0,1-1.4.212c-1.2-.483-1.856-1.733-2.708-2.7s-2.387-1.694-3.374-.863c-.831.7-.684,1.983-.589,3.064s-.224,2.472-1.294,2.652c-.427.077-.884-.08-1.3.018-1.338.312-1.232,2.631-2.537,3.053a2.683,2.683,0,0,1-1.423-.112c-1.721-.407-3.683.457-5.274-.024-.884-.268-1.279-1.22-1.518-2.234.224,1.27.557,2.7,1.68,3.044,1.591.48,3.554-.38,5.274.024a2.683,2.683,0,0,0,1.423.112c1.305-.421,1.2-2.74,2.537-3.053.424-.1.884.059,1.3-.018,1.07-.189,1.373-1.579,1.294-2.652s-.227-2.357.6-3.064c.987-.828,2.522-.106,3.374.863s1.512,2.219,2.708,2.7a1.2,1.2,0,0,0,1.4-.212c.3-.41.085-1.055,0-1.6-.23-1.553.966-2.932,1.323-4.458.221-.934.144-1.986.716-2.758,1.2-1.627,4.293-.807,5.3-2.558a2.758,2.758,0,0,0,1.335-.174A.962.962,0,0,0,360.054,305Z" transform="translate(-326.571 -298.978)"/>
    <path id="Caminho_8104" data-name="Caminho 8104" d="M322.41,339.822a6.122,6.122,0,0,0-.946-2.337,11.837,11.837,0,0,1-1.3-1.535,1.569,1.569,0,0,0,0,.2c.038.884.928,1.444,1.473,2.142a5.83,5.83,0,0,1,.937,2.316C322.516,340.323,322.469,340.055,322.41,339.822Z" transform="translate(-320.159 -320.999)"/>
    <path id="Caminho_8105" data-name="Caminho 8105" d="M321.474,314.061a18.414,18.414,0,0,0-1.134-3.341A18.024,18.024,0,0,0,321.474,314.061Z" transform="translate(-320.287 -303.203)"/>
  </g>
  <path id="Caminho_8106" data-name="Caminho 8106" d="M513.409,664.7s9.067-.271,6.9.7-8.283.884-8.283.884Z" transform="translate(-376.446 -484.999)" opacity="0.1"/>
  <path id="Caminho_8107" data-name="Caminho 8107" d="M643.28,729.706s4.217-.648,5.3.053S643.28,729.706,643.28,729.706Z" transform="translate(-469.023 -530.685)" opacity="0.1"/>
  <path id="Caminho_8133" data-name="Caminho 8133" d="M720.2,514.574s.554-.083.483.018.239.23.239.23a2.384,2.384,0,0,1-.657.035C720.184,514.8,720.2,514.574,720.2,514.574Z" transform="translate(-523.278 -379.113)" opacity="0.1"/>
  <path id="Caminho_8137" data-name="Caminho 8137" d="M705.58,517.8a1.465,1.465,0,0,0,.955.295,2.611,2.611,0,0,1-1-.083Z" transform="translate(-512.929 -381.411)" opacity="0.1"/>
  <path id="Caminho_8138" data-name="Caminho 8138" d="M438.86,614l10.9-.032-3.568,5.693-7.028,3.562Z" transform="translate(-313.804 -434.649)" fill="#e4aab4"/>
</svg>