<svg xmlns="http://www.w3.org/2000/svg" xmlns:xlink="http://www.w3.org/1999/xlink" width="338.862" height="236" viewBox="0 0 338.862 236">
  <defs>
    <linearGradient id="linear-gradient" x1="0.5" y1="1" x2="0.5" gradientUnits="objectBoundingBox">
      <stop offset="0" stop-color="gray" stop-opacity="0.251"/>
      <stop offset="0.54" stop-color="gray" stop-opacity="0.122"/>
      <stop offset="1" stop-color="gray" stop-opacity="0.102"/>
    </linearGradient>
    <linearGradient id="linear-gradient-2" x1="0.495" y1="1.014" x2="0.495" y2="0" xlink:href="#linear-gradient"/>
    <linearGradient id="linear-gradient-3" x1="0.5" y1="1" x2="0.5" y2="0" xlink:href="#linear-gradient"/>
    <linearGradient id="linear-gradient-4" x1="0.5" y1="1" x2="0.5" y2="0" xlink:href="#linear-gradient"/>
  </defs>
  <g id="undraw_celebration_0jvk" transform="translate(0.02 -0.02)">
    <circle id="Elipse_1459" data-name="Elipse 1459" cx="16.586" cy="16.586" r="16.586" transform="translate(17.34 6.984)" fill="#f9267b"/>
    <path id="Caminho_7662" data-name="Caminho 7662" d="M178,176.575c6.964,15.73-1.919,33.843-12.376,47.482-3.5,4.574-7.364,9.369-7.849,15.105-.585,7.018,4.167,13.468,9.8,17.685a41.281,41.281,0,0,0,36.561,6.183c10.575-3.35,19.465-10.917,30.132-13.967,17.838-5.109,36.747,3.361,52.023,13.914,10.814,7.46,22.394,16.55,35.43,14.952,9.172-1.124,16.957-7.563,22.241-15.145,2.551-3.66,4.77-7.763,8.484-10.232a21.237,21.237,0,0,1,7.4-2.8c23.686-5.063,48.823,7.292,72.195.938,15.787-4.281,28.374-16.768,36.2-31.135s11.481-30.589,14.524-46.661c2.162-11.416,3.957-23.75-1.013-34.249-5.259-11.117-17.432-17.856-29.665-19.119s-24.5,2.223-35.773,7.139c-14.082,6.158-27.885,14.777-43.254,14.806-10.467.021-20.45-4-30.457-7.06-16.732-5.12-34.132-7.663-51.47-10.011-16.6-2.248-33.365-4.338-50.065-3.011-11.816.938-22.251,5.455-33.718,7.546-7.474,1.363-14.984.357-22.319,2.64-9.033,2.826-18.323,9.372-18.823,19.683C165.735,161.066,174.3,168.23,178,176.575Z" transform="translate(-146.097 -119.24)" fill="#f9267b" opacity="0.1"/>
    <path id="Caminho_7663" data-name="Caminho 7663" d="M544.706,274.02c-1.523-3.971-5.451-13.3-8.038-11.452-3.268,2.34,3.268,12.679,3.268,12.679.186,1.9-3.489,5.847-5.458,7.817v-.246a.857.857,0,0,1-.086.214l-.164-.089a1.07,1.07,0,0,1-.232.425,4.172,4.172,0,0,0-.018-.425c-.378,1.6-6.978,3.632-6.978,3.632h-.485c-1.834,0-6.607-.414-8.819-3.953a19.573,19.573,0,0,0-4.328-5.048,3.685,3.685,0,0,0-2.051-.778,26.394,26.394,0,0,1-12.048-4.146l-.182-.125-.039.114c-.232-.332-.457-.685-.667-1.049h0l-.107-.2a8.962,8.962,0,0,0,4.941-7.97v-.186a6.1,6.1,0,0,0,.821-3.057v-1.07l1.395-1.242a5.735,5.735,0,0,0,1.623-1.948,2.308,2.308,0,0,0,.171-1,1.731,1.731,0,0,0-.657-1.548c-1.07-.739-2.854,0-3.628-1.027-.357-.464-.293-1.1-.467-1.641a2.937,2.937,0,0,0-2.829-1.727,12.223,12.223,0,0,0-3.468.738,20.361,20.361,0,0,1-7.385.692,4.823,4.823,0,0,0-2.023.071,2.786,2.786,0,0,0-1.641,1.909,4.489,4.489,0,0,0-.157.978,6.15,6.15,0,0,0-1.548,4.071v2.744a6.147,6.147,0,0,0,1.481,3.992,8.92,8.92,0,0,0,3.735,6.507v.218l.046.029a14.752,14.752,0,0,1-.392,2.522v-.182a25.786,25.786,0,0,1-10.346,2.722h-.589a3.985,3.985,0,0,0-2.854,1.07c-1.584,1.491-4.36,3.85-6.065,3.85-.357,0-9.362,1.759-10.853,2.051l-2.786-2.729-.086.161-.164-.161a6.786,6.786,0,0,0-.906.132,21.594,21.594,0,0,1-4.941-10.9s6.161-7.018,3.9-13.557c-1.934-5.573-7.26,6.372-8.773,9.972a2.876,2.876,0,0,0-.093,1.98l5.005,16.133a7.567,7.567,0,0,0-.4,3.924h-.057l3.646,4.677a19.253,19.253,0,0,0,7.035,1.149,24.6,24.6,0,0,0,9.183-1.762h.846l-.161.061h4.342l2.761,8.352c-.093.76-1.427,11.367-2.5,13.739a5.96,5.96,0,0,0-.421,2.5,19.07,19.07,0,0,0,.8,4.834l2.419-.089-.093.189a125.924,125.924,0,0,0-7.492,18.673l-3.521,7.135,2.64,32h.107l.2.032h0c.285.043.714.107,1.277.178l-.207.357-5.819,9.633s-4.149,8.495,5.03,6.893c0,0,3.393-.985,4.777-6.779l6.036-5.662s.282-3.76-1.427-5.262c-.107-1.737-.378-6.811.039-8.031.5-1.477-2.141-18.463-2.141-18.463s9.554-19.818,15.341-20.311a3.173,3.173,0,0,1,1.252.164c4.756,1.548,10.517,13.047,12.212,16.625h0l.078.164v.032l.064.139v.039l.057.121v.032l.05.111v.025l.043.089v.036l.032.068v.029l.021.05v.061h0l.018.043.753,22.28h0l.075.039h.036l-.064.46-.328,2.3s4.149,8.741,3.9,9.847,2.765,5.541,7.039,4.31,1.73-8.17,1.73-8.17l-4.117-8.484-.182-.378a8.085,8.085,0,0,0,1.156-.86s-1.256-9.108,0-11.078,1.634-10.956,1.634-10.956-.881-6.154-2.39-8.862l-6.322-22.565c1.894,1.762,3.368,2.451,4.6,2.4h.2a3.073,3.073,0,0,0,1.548-.385,4.366,4.366,0,0,0,.714-.5,1.125,1.125,0,0,0,.118-.118h0c1.759-1.477-2.012-7.264-4.149-10.7-2.058-3.318.778-12.333.992-13a3.4,3.4,0,0,1,.61-.357,3.764,3.764,0,0,1,1.4-.3c2.048.071,4.567,1.249,7.685,1.841a36.252,36.252,0,0,0,6.561.51h.128c.874,0,1.666-.018,2.308-.043a3.9,3.9,0,0,0,1.677-.453h0a5.062,5.062,0,0,0,1.192-.963l5.473-6.183-.143.068a3.076,3.076,0,0,0,0-2.176l5.783-9.989a3.8,3.8,0,0,0,.282-3.293Z" transform="translate(-329.982 -202.679)" fill="url(#linear-gradient)"/>
    <path id="Caminho_7664" data-name="Caminho 7664" d="M515.678,614.468l-5.826,5.583c-1.334,5.708-4.613,6.675-4.613,6.675-8.858,1.577-4.856-6.779-4.856-6.779L506,610.44l.692-1.174s4.006-1.213,6.675-.485a2.284,2.284,0,0,1,.91.492C515.953,610.725,515.678,614.468,515.678,614.468Z" transform="translate(-365.928 -433.967)" fill="#444176"/>
    <path id="Caminho_7665" data-name="Caminho 7665" d="M626.55,606.066c-4.128,1.213-7.039-3.154-6.779-4.249s-3.771-9.7-3.771-9.7l.314-2.269.293-2.1,6.779.485.639,1.341L628,597.943S630.677,604.853,626.55,606.066Z" transform="translate(-440.877 -420.589)" fill="#444176"/>
    <path id="Caminho_7666" data-name="Caminho 7666" d="M526.108,610.19c-.639,1.1-5.815.542-8.338.2l.692-1.174s4.007-1.213,6.675-.485a2.283,2.283,0,0,1,.91.492C526.083,609.815,526.108,610.19,526.108,610.19Z" transform="translate(-377.692 -433.935)" opacity="0.1"/>
    <path id="Caminho_7667" data-name="Caminho 7667" d="M624.584,589.557a7.849,7.849,0,0,1-7.724.275l.293-2.1,6.779.485Z" transform="translate(-441.43 -420.576)" opacity="0.1"/>
    <path id="Caminho_7668" data-name="Caminho 7668" d="M554.751,474.128c-1.213,1.941,0,10.924,0,10.924-4.007,3.643-8.737.97-8.737.97l-.714-21.966s-7.888-18.084-13.471-17.6-14.806,20.025-14.806,20.025,2.547,16.747,2.062,18.2,0,8.495,0,8.495c-.849,1.456-9.708,0-9.708,0l-2.547-31.556,3.382-7.043a124.833,124.833,0,0,1,7.224-18.409c.981-2.059,1.638-3.314,1.638-3.314l6.457-1.345,20.96-4.345,7.531,27.414c1.456,2.669,2.3,8.737,2.3,8.737S555.964,472.187,554.751,474.128Z" transform="translate(-370.655 -317.292)" fill="#565387"/>
    <g id="Grupo_11925" data-name="Grupo 11925" transform="translate(136.16 109.854)" opacity="0.1">
      <path id="Caminho_7669" data-name="Caminho 7669" d="M595.206,520.8l-.714-21.966s-7.888-18.084-13.471-17.6a3.042,3.042,0,0,0-.731.164c5.444,1.809,12.262,17.435,12.262,17.435l.714,21.966a8.563,8.563,0,0,0,4.827.881A8.589,8.589,0,0,1,595.206,520.8Z" transform="translate(-554.068 -461.921)"/>
      <path id="Caminho_7670" data-name="Caminho 7670" d="M511.278,493.157,508.731,461.6l3.4-7.053a124.849,124.849,0,0,1,7.225-18.409c.981-2.058,1.638-3.314,1.638-3.314l6.457-1.345L546.58,427.5l-.1-.382-20.971,4.36-6.458,1.345s-.656,1.256-1.637,3.314a124.692,124.692,0,0,0-7.225,18.409l-3.4,7.039,2.547,31.556a45.583,45.583,0,0,0,7.706.621A57.328,57.328,0,0,1,511.278,493.157Z" transform="translate(-506.79 -427.12)"/>
    </g>
    <path id="Caminho_7671" data-name="Caminho 7671" d="M467.109,338.21s-6.918.357-5.947,7.645l1.941.243,2.911-3.154,1.456-2.669v-.607Z" transform="translate(-341.22 -260.076)" fill="#ced2df"/>
    <path id="Caminho_7672" data-name="Caminho 7672" d="M467.109,338.21s-6.918.357-5.947,7.645l1.941.243,2.911-3.154,1.456-2.669v-.607Z" transform="translate(-341.22 -260.076)" opacity="0.1"/>
    <path id="Caminho_7673" data-name="Caminho 7673" d="M693.073,345.69s5.708,3.033,4.249,6.554l-1.819.714-2.426-1.334-.357-3.154.243-2.183Z" transform="translate(-490.226 -264.887)" fill="#ced2df"/>
    <path id="Caminho_7674" data-name="Caminho 7674" d="M693.073,345.69s5.708,3.033,4.249,6.554l-1.819.714-2.426-1.334-.357-3.154.243-2.183Z" transform="translate(-490.226 -264.887)" opacity="0.1"/>
    <rect id="Retângulo_17360" data-name="Retângulo 17360" width="19.904" height="15.048" rx="7.524" transform="translate(153.817 49.489)" fill="#88455e"/>
    <path id="Caminho_7675" data-name="Caminho 7675" d="M458.927,293.393l-4.249,6.779-.357-1.206-5.772-18.809a2.893,2.893,0,0,1,.089-1.952c1.459-3.546,6.6-15.341,8.47-9.829,2.183,6.422-3.764,13.35-3.764,13.35a21.378,21.378,0,0,0,5.077,11.11C458.735,293.2,458.927,293.393,458.927,293.393Z" transform="translate(-333.084 -214.228)" fill="#ec8c9c"/>
    <path id="Caminho_7676" data-name="Caminho 7676" d="M691.16,310.348s6.675-6.311,6.422-8.858c0,0-6.311-10.193-3.154-12.487,2.5-1.827,6.29,7.378,7.76,11.292a3.818,3.818,0,0,1-.253,3.211l-7.977,14.124Z" transform="translate(-489.223 -228.272)" fill="#ec8c9c"/>
    <path id="Caminho_7677" data-name="Caminho 7677" d="M564.846,299.914s1.213,7.767-2.3,10.682,10.075,2.9,10.075,2.9L577.472,309s-5.583-5.22-3.885-9.1Z" transform="translate(-406.117 -235.434)" fill="#ec8c9c"/>
    <path id="Caminho_7678" data-name="Caminho 7678" d="M551.3,323.9a8.508,8.508,0,0,0,10.435-.485l8.495,17.6-.485,21.481s-17.6,9.1-24.881,3.521-1.213-8.495-1.213-8.495l-1.7-16.5,1.82-10.682s3.275-5.1,3.521-5.1S551.3,323.9,551.3,323.9Z" transform="translate(-392.818 -250.556)" opacity="0.1"/>
    <path id="Caminho_7679" data-name="Caminho 7679" d="M551.311,323.215a8.5,8.5,0,0,0,10.439-.485l8.495,17.6-.485,21.481s-17.6,9.1-24.881,3.521-1.213-8.495-1.213-8.495l-1.7-16.5,1.82-10.682s3.275-5.1,3.521-5.1S551.311,323.215,551.311,323.215Z" transform="translate(-392.824 -250.119)" fill="#ebf1f6"/>
    <path id="Caminho_7680" data-name="Caminho 7680" d="M500.222,319a22.521,22.521,0,0,1-10.321,2.679,3.8,3.8,0,0,0-2.744,1.049c-1.53,1.47-4.21,3.8-5.869,3.8-.357,0-10.682,2.062-10.682,2.062l-2.729-2.729s-4.067,7.949-6.008,7.585l3.521,4.613s6.675,2.911,15.412-.607h5.1l2.669,8.252s-1.334,11.167-2.426,13.593.357,7.16.357,7.16l9.586-.357s.485-4.734,1.213-5.351-2.547-21.481-2.547-21.481-2.183-11.773,5.826-16.019Z" transform="translate(-341.735 -247.719)" opacity="0.1"/>
    <path id="Caminho_7681" data-name="Caminho 7681" d="M544.651,439.38a31.708,31.708,0,0,0-.753,4.378l-7.339.278c.981-2.059,1.638-3.314,1.638-3.314Z" transform="translate(-389.779 -325.152)" opacity="0.1"/>
    <path id="Caminho_7682" data-name="Caminho 7682" d="M469.566,340.09l-4.249,6.779-.357-1.206a31.373,31.373,0,0,0,4.113-6.133A7.2,7.2,0,0,0,469.566,340.09Z" transform="translate(-343.723 -260.925)" opacity="0.1"/>
    <path id="Caminho_7683" data-name="Caminho 7683" d="M499.766,319a24.118,24.118,0,0,1-10.564,2.679,3.8,3.8,0,0,0-2.744,1.049c-1.53,1.47-4.21,3.8-5.869,3.8-.357,0-10.682,2.062-10.682,2.062l-2.74-2.733s-4.067,7.949-6.008,7.585l3.521,4.613s6.675,2.911,15.412-.607h5.1l2.669,8.248s-1.334,11.167-2.426,13.593.357,7.16.357,7.16l9.586-.357s.485-4.734,1.213-5.352-2.547-21.481-2.547-21.481-2.183-11.773,5.826-16.019Z" transform="translate(-341.279 -247.719)" fill="#ced2df"/>
    <path id="Caminho_7684" data-name="Caminho 7684" d="M595.613,316.94a23.617,23.617,0,0,0,11.563,4.21,3.514,3.514,0,0,1,1.98.767,19.164,19.164,0,0,1,4.178,4.995c2.669,4.37,9.222,3.885,9.222,3.885s6.372-2,6.736-3.568c0,0,.182,8.562,4.188,6.493l-5.269,6.072a3.717,3.717,0,0,1-2.658,1.281,39.067,39.067,0,0,1-8.323-.46c-4.37-.849-7.524-2.911-9.829-1.092,0,0-3.032,9.465-.97,12.865s5.708,9.1,4.006,10.56-3.764,1.334-7.16-2.183-3.764-9.465-3.764-9.465l.849-15.291s-3.275-11.531-6.422-13.835Z" transform="translate(-426.687 -246.394)" opacity="0.1"/>
    <path id="Caminho_7685" data-name="Caminho 7685" d="M634.811,333.781l-5.284,6.1a3.717,3.717,0,0,1-1.274.949h0a3.7,3.7,0,0,1-1.377.325,38.6,38.6,0,0,1-8.323-.46c-4.089-.8-7.114-2.651-9.376-1.4a3.31,3.31,0,0,0-.457.3s-3.032,9.465-.97,12.865,5.708,9.1,4.006,10.56a3.926,3.926,0,0,1-.949.617c-1.527.689-3.422.093-6.212-2.8-3.4-3.521-3.764-9.465-3.764-9.465l.849-15.291s-3.275-11.531-6.422-13.835l1.388-4.977a25.2,25.2,0,0,0,11.63,4.089,3.514,3.514,0,0,1,1.98.767,19.179,19.179,0,0,1,4.178,4.995c2.669,4.37,9.222,3.885,9.222,3.885a35.417,35.417,0,0,0,4.592-1.827h0a7,7,0,0,0,2.141-1.427,1.07,1.07,0,0,0,.232-.428S630.808,335.843,634.811,333.781Z" transform="translate(-427.536 -246.607)" opacity="0.1"/>
    <path id="Caminho_7686" data-name="Caminho 7686" d="M634.112,333.7l-5.28,6.1a3.716,3.716,0,0,1-1.027.828h0a3.7,3.7,0,0,1-1.62.446,38.606,38.606,0,0,1-8.323-.46c-3.942-.767-6.9-2.522-9.13-1.52a3.3,3.3,0,0,0-.714.425s-3.033,9.465-.97,12.865,5.708,9.1,4.006,10.56a4.213,4.213,0,0,1-.714.5c-1.57.867-3.511.357-6.454-2.679-3.4-3.521-3.764-9.465-3.764-9.465L600.972,336s-3.275-11.531-6.422-13.835l1.456-5.219.175.121a25.2,25.2,0,0,0,11.631,4.089,3.514,3.514,0,0,1,1.98.767,19.183,19.183,0,0,1,4.178,4.995c2.669,4.37,9.222,3.885,9.222,3.885a35.427,35.427,0,0,0,4.591-1.827h0c1.1-.564,2-1.181,2.141-1.745v.307C630.03,329.016,630.565,335.52,634.112,333.7Z" transform="translate(-427.08 -246.401)" fill="#ced2df"/>
    <path id="Caminho_7687" data-name="Caminho 7687" d="M578.769,300.45H569.85a21.83,21.83,0,0,1,.168,4.281,9.169,9.169,0,0,0,9.426.678C578.587,303.825,578.066,302.027,578.769,300.45Z" transform="translate(-411.192 -235.788)" opacity="0.1"/>
    <circle id="Elipse_1460" data-name="Elipse 1460" cx="8.858" cy="8.858" r="8.858" transform="translate(155.212 52.707)" fill="#ec8c9c"/>
    <path id="Caminho_7688" data-name="Caminho 7688" d="M567.351,264.958a9.456,9.456,0,0,1,2.951-.271c.885.178,1.637.788,2.522.974,1.705.357,3.289-.9,4.577-2.069l2.783-2.533a5.676,5.676,0,0,0,1.57-1.919,1.926,1.926,0,0,0-.471-2.269c-1.017-.714-2.769,0-3.5-1.013a5.29,5.29,0,0,1-.453-1.616,2.84,2.84,0,0,0-2.733-1.7,12.092,12.092,0,0,0-3.347.714,19.264,19.264,0,0,1-7.135.681,4.559,4.559,0,0,0-1.951.068,2.73,2.73,0,0,0-1.584,1.88c-.549,1.941.389,5.07,1.331,6.807S565.471,265.19,567.351,264.958Z" transform="translate(-405.122 -204.969)" opacity="0.1"/>
    <path id="Caminho_7689" data-name="Caminho 7689" d="M567.351,264.278a9.458,9.458,0,0,1,2.951-.271c.885.178,1.637.789,2.522.974,1.705.357,3.289-.9,4.577-2.069l2.783-2.533a5.676,5.676,0,0,0,1.57-1.919,1.926,1.926,0,0,0-.471-2.269c-1.017-.714-2.769,0-3.5-1.013a5.29,5.29,0,0,1-.453-1.616,2.84,2.84,0,0,0-2.733-1.7,12.089,12.089,0,0,0-3.347.714,19.265,19.265,0,0,1-7.135.681,4.56,4.56,0,0,0-1.951.068,2.73,2.73,0,0,0-1.584,1.88c-.549,1.941.389,5.07,1.331,6.807S565.471,264.492,567.351,264.278Z" transform="translate(-405.122 -204.532)" fill="#88455e"/>
    <path id="Caminho_7690" data-name="Caminho 7690" d="M536.55,394a5,5,0,0,1,2.911,1.456,5.23,5.23,0,0,0,2.669,1.577" transform="translate(-389.772 -295.962)" opacity="0.1"/>
    <path id="Caminho_7691" data-name="Caminho 7691" d="M487.435,349.09s1.584,3.536.607,3.892-.607,2.911-.607,2.911" transform="translate(-358.135 -267.074)" opacity="0.1"/>
    <g id="Grupo_11926" data-name="Grupo 11926" transform="translate(129.735 71.338)" opacity="0.1">
      <path id="Caminho_7692" data-name="Caminho 7692" d="M488.891,333.459S499.2,331.4,499.561,331.4c1.663,0,4.338-2.326,5.869-3.8a3.746,3.746,0,0,1,1.663-.924h-.132a3.8,3.8,0,0,0-2.743,1.049c-1.531,1.47-4.21,3.8-5.869,3.8-.289,0-6.889,1.309-9.568,1.841Z" transform="translate(-488.78 -323.994)"/>
      <path id="Caminho_7693" data-name="Caminho 7693" d="M555.156,319.613v-.453a25.752,25.752,0,0,1-7.906,2.529,24.431,24.431,0,0,0,7.906-2.076Z" transform="translate(-526.39 -319.16)"/>
      <path id="Caminho_7694" data-name="Caminho 7694" d="M522.815,399.525s-1.456-4.734-.357-7.16,2.426-13.593,2.426-13.593l-2.661-8.252H517.11l-.31.121h4.192l2.658,8.256s-1.334,11.167-2.426,13.593.357,7.16.357,7.16l9.586-.357v-.075Z" transform="translate(-506.803 -352.197)"/>
    </g>
    <g id="Grupo_11927" data-name="Grupo 11927" transform="translate(173.164 87.303)" opacity="0.1">
      <path id="Caminho_7695" data-name="Caminho 7695" d="M621.441,420.663a4.208,4.208,0,0,1-.714.5c-1.57.867-3.51.357-6.454-2.679-2.7-2.793-3.482-7.135-3.693-8.78l-.071,1.256s.357,5.947,3.764,9.465c2.943,3.047,4.884,3.546,6.454,2.679a4.206,4.206,0,0,0,.714-.5c.51-.439.539-1.263.271-2.29A1.121,1.121,0,0,1,621.441,420.663Z" transform="translate(-610.51 -393.364)"/>
      <path id="Caminho_7696" data-name="Caminho 7696" d="M653.862,364.085l-3.436,3.971a3.714,3.714,0,0,1-1.027.828h0a3.7,3.7,0,0,1-1.62.446,38.61,38.61,0,0,1-8.323-.46c-3.942-.767-6.9-2.522-9.13-1.52a3.3,3.3,0,0,0-.714.425s-1.959,6.115-1.659,10.278a40.13,40.13,0,0,1,1.659-8.338,3.3,3.3,0,0,1,.714-.425c2.233-1,5.187.753,9.13,1.52a39.062,39.062,0,0,0,8.323.46,3.7,3.7,0,0,0,1.62-.446h0a3.713,3.713,0,0,0,1.027-.817l5.284-6.1A2.08,2.08,0,0,1,653.862,364.085Z" transform="translate(-621.71 -363.91)"/>
    </g>
    <path id="Caminho_7697" data-name="Caminho 7697" d="M265.74,486.89a.275.275,0,0,0,.325.043A1.106,1.106,0,0,1,265.74,486.89Z" transform="translate(-215.578 -355.712)" fill="url(#linear-gradient-2)"/>
    <path id="Caminho_7698" data-name="Caminho 7698" d="M211.62,288.908c-.642-.186-1.559-.489-2.661-.874a13.956,13.956,0,0,0,2.465-4.966l-.093.036c.032-.111.064-.218.093-.332-2.116.86-4.456-.6-5.947-2.465s-2.5-4.188-4.131-5.908a18.906,18.906,0,0,0-2.191-1.887,3.028,3.028,0,0,0-1.588-.778c-.953-.029-1.7.906-2.615,1.181a3.567,3.567,0,0,1-1.823-.068c-2.365-.542-4.638-1.545-7.053-1.809a8.267,8.267,0,0,0-3.828.432c-1.213.46-1.766,1.377-2.747,2.112-1.07.788-3.161.771-4.406.91a31.568,31.568,0,0,1-4.552.189,10.657,10.657,0,0,0-2.619.1c-1.809.4-3.261,1.834-4.617,3.211a2.38,2.38,0,0,0-.763,1.2,1.511,1.511,0,0,0,0,.4,2.573,2.573,0,0,0,.182,1.053,13.913,13.913,0,0,0,1.752,3.486,10.066,10.066,0,0,1,1.513,2.476,4.8,4.8,0,0,1,.232,1.427,10.384,10.384,0,0,1-.161,1.534,19.267,19.267,0,0,1-1.174,4.085,7.419,7.419,0,0,0-.685,2.141,3.409,3.409,0,0,0,0,.457c-.089,2.355,2.287,4.049,2.747,6.39a3.82,3.82,0,0,1,.068.589,3.987,3.987,0,0,1-2.108,3.453c.107.043.218.078.328.114a2.984,2.984,0,0,1-.328.178,6.647,6.647,0,0,0,.685.221,15.912,15.912,0,0,0-3.464,4.281C158,319.147,130.046,334.2,130.046,334.2l.414.236-.335.218c-2.419,1.609-8.1,6.3-2.965,12.233,0,0,4.006-6.322,6.814-9.015.125-.121.25-.232.357-.335a.821.821,0,0,1,.107.649l18.381-10.328s6.532-4.574,8.355-5.6a15.038,15.038,0,0,1,4.142-1.784l-.214.089a8.388,8.388,0,0,1,2.108-.3c3.254.05,6.779,2.433,7.938,11.87,1.555,12.637.835,14.916.335,15.227a.918.918,0,0,1-.182-.032.309.309,0,0,0,.05.036.957.957,0,0,1-.2-.036.285.285,0,0,0,.271.064.253.253,0,0,0,.2-.025h0a2.11,2.11,0,0,0,.246,0,2.623,2.623,0,0,1-.025.357c-.025,0-.146.068,0,.075h0c-.039.714-.036,1.488,0,2.3-1.616.089-3.232.185-4.638.271l.125-.667.057-.3c1.242-.1,2.419-.464,2.558-1.47.3-2.212-2.733-3.393-5.316-3.539s-18.074.885-18.074.885-2.323,3.008,5.045,3.924l.681.357a81.872,81.872,0,0,1,8.677,6.165l.26.207-.842.685c4.556,1.031,8.962,18.441,11.392,26.4s7.745,7.67,12.151,6.49c4.128-1.106,4.638-13.093,4.706-14.6v-.153l7.342,9.069.557.689q.321.168.635.314c5.558,2.644,11.7-2.426,9.954-8.206-1.766-5.826-4.506-14.442-6.333-18.084-1.531-3.05-3.507-8.116-4.706-11.288a3.808,3.808,0,0,0,.453-.218s-.029-.143-.075-.4l.075-.039a109.388,109.388,0,0,1-1.862-15.7v-.567c1.327-.3,2.169-.421,2.169-.421l.025-.285-.153.032.738-8.452s2.711-5.769.635-8.17a5.045,5.045,0,0,1-1.217-2.5c-.357-2.208,0-5.894,4.834-8.955,7.442-4.72,10.346-8.562,10.346-8.562S216.176,290.249,211.62,288.908Zm-14.781,5.865v-3.907c1.381-.068,2.79.093,4.178,0a10.572,10.572,0,0,0,2.016-.339l.335.232A36.746,36.746,0,0,1,196.839,294.773Zm-21.1,61.235c.546.378,1.1.771,1.634,1.167.335,1.927.631,3.286.653,3.382A26.708,26.708,0,0,0,175.737,356.008Z" transform="translate(-125.1 -216.828)" fill="url(#linear-gradient-3)"/>
    <path id="Caminho_7699" data-name="Caminho 7699" d="M269.486,500.32l-.321,1.745-.246,1.334-.45,2.44-4.36,3.05s-.392-.335-1.042-.867a76.422,76.422,0,0,0-8.3-6.065,9.274,9.274,0,0,0-2.28-1.052Z" transform="translate(-207.055 -364.351)" fill="#ffbdc6"/>
    <path id="Caminho_7700" data-name="Caminho 7700" d="M269.48,500.32l-.321,1.745a13.55,13.55,0,0,1-2.876-.146l-10.171.146c-.482-.029-.931-.068-1.352-.111a9.276,9.276,0,0,0-2.28-1.052Z" transform="translate(-207.048 -364.351)" opacity="0.1"/>
    <path id="Caminho_7701" data-name="Caminho 7701" d="M259.921,495.31s5.087.871,5.376-1.309-2.615-3.329-5.08-3.493-17.3.878-17.3.878-2.615,3.486,6.828,4.067Z" transform="translate(-200.686 -358.029)" fill="#7679b4"/>
    <path id="Caminho_7702" data-name="Caminho 7702" d="M269.486,500.32l-.321,1.745-.246,1.334-.45,2.44-4.36,3.05s-.392-.335-1.042-.867a76.422,76.422,0,0,0-8.3-6.065,9.274,9.274,0,0,0-2.28-1.052Z" transform="translate(-207.055 -364.351)" opacity="0.1"/>
    <path id="Caminho_7703" data-name="Caminho 7703" d="M269.48,500.32l-.321,1.745a13.55,13.55,0,0,1-2.876-.146l-10.171.146c-.482-.029-.931-.068-1.352-.111a9.276,9.276,0,0,0-2.28-1.052Z" transform="translate(-207.048 -364.351)" opacity="0.1"/>
    <path id="Caminho_7704" data-name="Caminho 7704" d="M259.921,495.31s5.087.871,5.376-1.309-2.615-3.329-5.08-3.493-17.3.878-17.3.878-2.615,3.486,6.828,4.067Z" transform="translate(-200.686 -358.029)" opacity="0.1"/>
    <rect id="Retângulo_17361" data-name="Retângulo 17361" width="26.59" height="31.531" transform="translate(43.758 65.64)" fill="#a66477"/>
    <rect id="Retângulo_17362" data-name="Retângulo 17362" width="26.59" height="31.531" transform="translate(43.758 65.64)" opacity="0.1"/>
    <path id="Caminho_7705" data-name="Caminho 7705" d="M142.171,449.779a4.259,4.259,0,0,0-1.62,1.145c-2.686,2.654-6.518,8.88-6.518,8.88-4.909-5.844.524-10.464,2.854-12.051.564-.385.942-.592.942-.592Z" transform="translate(-129.579 -330.156)" fill="#ffbdc6"/>
    <path id="Caminho_7706" data-name="Caminho 7706" d="M273.906,331.09s1.309,9.155,5.812,11.334-5.812,6.247-5.812,6.247l-14.1-5.23s7.992-2.615,6.393-10.318Z" transform="translate(-211.763 -255.496)" fill="#ffbdc6"/>
    <path id="Caminho_7707" data-name="Caminho 7707" d="M226.356,485.45l-.321,1.745-.246,1.334-.45,2.44-4.36,3.05s-.392-.335-1.042-.867a76.418,76.418,0,0,0-8.3-6.065,9.278,9.278,0,0,0-2.28-1.052Z" transform="translate(-179.312 -354.786)" fill="#ffbdc6"/>
    <path id="Caminho_7708" data-name="Caminho 7708" d="M226.35,485.45l-.321,1.745a13.558,13.558,0,0,1-2.876-.146l-10.171.146c-.482-.028-.931-.068-1.352-.111a9.274,9.274,0,0,0-2.28-1.052Z" transform="translate(-179.306 -354.786)" opacity="0.1"/>
    <path id="Caminho_7709" data-name="Caminho 7709" d="M216.744,480.45s5.087.871,5.376-1.309-2.615-3.343-5.087-3.486-17.292.871-17.292.871-2.615,3.486,6.829,4.067Z" transform="translate(-172.911 -348.477)" fill="#7679b4"/>
    <path id="Caminho_7710" data-name="Caminho 7710" d="M244.821,493.9l-.45,2.44-4.36,3.05s-.392-.335-1.042-.867l5.765-4.727Z" transform="translate(-198.358 -360.157)" opacity="0.1"/>
    <path id="Caminho_7711" data-name="Caminho 7711" d="M272.571,515.513q-.3-.146-.607-.31l-.532-.678-7.021-8.919v.157c-.046,1.481-.553,13.289-4.5,14.378-4.213,1.163-9.3,1.452-11.623-6.393s-6.54-24.991-10.9-26.008l6.465-5.305s4.281,4.995,6.029,9.8c-.064-.307-3.022-14.117-.582-16.558h21.213s3.268,9.326,5.523,13.95c1.748,3.589,4.37,12.073,6.065,17.813A6.823,6.823,0,0,1,272.571,515.513Z" transform="translate(-197.342 -348.502)" fill="#7679b4"/>
    <path id="Caminho_7712" data-name="Caminho 7712" d="M291.656,446.336c-3.272,1.937-17.656,1.149-22.344.835l-1.274-.093c-.139,0,.021-.079.021-.079l.132-1.32,3.486-8.862L290.35,426a16.157,16.157,0,0,0-.474,4.884A113.847,113.847,0,0,0,291.656,446.336Z" transform="translate(-217.019 -316.546)" opacity="0.1"/>
    <path id="Caminho_7713" data-name="Caminho 7713" d="M291.378,445.138c-3.272,1.937-17.656,1.149-22.344.835l-1.274-.093h-.21l.232-.061,1.149-.3,2.469-9.882,18.673-10.824a16.157,16.157,0,0,0-.474,4.884A113.917,113.917,0,0,0,291.378,445.138Z" transform="translate(-216.742 -315.78)" fill="#f2f1f2"/>
    <path id="Caminho_7714" data-name="Caminho 7714" d="M289.984,429.622c-3.8.874-12.151,3.446-15.362,9.633-2.141,4.131-3.924,5.9-5.2,6.646l-1.274-.093.021-.078,1.149-.3,2.469-9.882,18.673-10.824A16.159,16.159,0,0,0,289.984,429.622Z" transform="translate(-217.128 -315.722)" opacity="0.1"/>
    <path id="Caminho_7715" data-name="Caminho 7715" d="M146.512,447.17l4.36,2.615a4.258,4.258,0,0,0-1.62,1.145c-.357-1.07-2.647-2.54-3.682-3.168C146.134,447.377,146.512,447.17,146.512,447.17Z" transform="translate(-138.28 -330.163)" opacity="0.1"/>
    <path id="Caminho_7716" data-name="Caminho 7716" d="M265.447,484.269a.26.26,0,0,1-.307-.039A1.046,1.046,0,0,0,265.447,484.269Z" transform="translate(-215.192 -354.001)" opacity="0.1"/>
    <path id="Caminho_7717" data-name="Caminho 7717" d="M198.244,321.182a8.643,8.643,0,0,1-6.686-2.469s-11.623,3.343-15.548,10.9-30.66,22.376-30.66,22.376,4.638,2.615,4.213,3.924l17.581-10.171s6.247-4.506,7.992-5.523,11.334-7.264,13.368,9.736,0,14.984,0,14.984,2.908,1.017,7.135-7.135,17.292-10.025,17.292-10.025l.714-8.562s2.594-5.68.606-8.049a5.031,5.031,0,0,1-1.163-2.458c-.332-2.176,0-5.8,4.638-8.819,7.135-4.638,9.882-8.427,9.882-8.427s.146-2.761-4.213-4.067-22.087-8.427-22.087-8.427l-.582,2.469,13.949,9.882s-6.975,5.665-12.487,5.523C202.168,316.819,203.185,321.036,198.244,321.182Z" transform="translate(-138.139 -234.835)" fill="#565388"/>
    <path id="Caminho_7718" data-name="Caminho 7718" d="M285.51,335.828a28.544,28.544,0,0,1-.8-3.568l-7.7,2.048a8.491,8.491,0,0,1-.175,4.442,8.284,8.284,0,0,0,8.68-2.926Z" transform="translate(-222.711 -256.249)" opacity="0.1"/>
    <circle id="Elipse_1461" data-name="Elipse 1461" cx="8.284" cy="8.284" r="8.284" transform="translate(48.118 65.783)" fill="#ffbdc6"/>
    <path id="Caminho_7719" data-name="Caminho 7719" d="M254.922,273.868c2.3.26,4.485,1.249,6.746,1.784a3.333,3.333,0,0,0,1.745.068c.878-.271,1.591-1.192,2.5-1.163a2.625,2.625,0,0,1,1.52.767,18.23,18.23,0,0,1,2.094,1.859c1.559,1.695,2.53,3.978,3.953,5.819s3.668,3.275,5.69,2.43c-1.374,5.352-5.883,9.444-10.757,9.775-1.944.132-3.924-.271-5.819.3a5.092,5.092,0,0,1-1.47.357c-1.07,0-1.955-1-2.633-1.962-1.584-2.276-2.854-4.859-4.638-6.932a3.791,3.791,0,0,0-2.116-1.463,3.917,3.917,0,0,0-2.34.656,11.113,11.113,0,0,0-3.425,2.376,4.749,4.749,0,0,0-1.156,4.178,10.2,10.2,0,0,1,.714,2.337c0,1.32-1.149,2.287-1.381,3.568a13.773,13.773,0,0,0-.057,1.627,6.636,6.636,0,0,1-2.458,4.313,3.1,3.1,0,0,0-1.124,1.559c-.093.453,0,.935-.061,1.395a2.532,2.532,0,0,1-2.326,1.873,6.743,6.743,0,0,1-3.489-.414,4.011,4.011,0,0,0,1.952-4.281c-.45-2.358-2.818-4.049-2.619-6.454a7.47,7.47,0,0,1,.656-2.123,19.425,19.425,0,0,0,1.12-4.024,6.818,6.818,0,0,0-.068-3.211,10.136,10.136,0,0,0-1.448-2.44,13.85,13.85,0,0,1-1.677-3.436,2.408,2.408,0,0,1-.161-1.134,2.351,2.351,0,0,1,.714-1.177c1.3-1.359,2.69-2.776,4.417-3.168a9.907,9.907,0,0,1,2.5-.1,29.338,29.338,0,0,0,4.356-.185c1.192-.139,3.211-.121,4.217-.9.938-.714,1.47-1.623,2.629-2.08A7.7,7.7,0,0,1,254.922,273.868Z" transform="translate(-194.117 -218.642)" opacity="0.1"/>
    <path id="Caminho_7720" data-name="Caminho 7720" d="M308.48,513.76s4.795,9.444,3.343,12.351" transform="translate(-243.07 -372.996)" opacity="0.1"/>
    <path id="Caminho_7721" data-name="Caminho 7721" d="M320.086,564.954l-7.021-8.919v.157s-.407-2.883.931-1.912c2.929,2.119,7.617,5.594,7.717,6.193S320.764,563.478,320.086,564.954Z" transform="translate(-245.982 -398.931)" opacity="0.1"/>
    <g id="Grupo_11928" data-name="Grupo 11928" transform="translate(7.358 64.109)" opacity="0.1">
      <path id="Caminho_7722" data-name="Caminho 7722" d="M302.614,348.788s.592,2.455-1.324,3.682a3.291,3.291,0,0,0,2.99-3.8A9.294,9.294,0,0,1,302.614,348.788Z" transform="translate(-245.802 -330.914)"/>
      <path id="Caminho_7723" data-name="Caminho 7723" d="M147.362,387.435s26.736-14.82,30.66-22.376c2.815-5.423,9.6-8.673,13.2-10.079-2.629.881-11.477,4.26-14.8,10.66-3.924,7.556-30.66,22.376-30.66,22.376Z" transform="translate(-145.76 -334.973)"/>
      <path id="Caminho_7724" data-name="Caminho 7724" d="M307.59,315.622a31.844,31.844,0,0,0,8.9-4.948l-13.95-9.882.318-1.356-1.334-.535-.581,2.469,13.949,9.882A33.659,33.659,0,0,1,307.59,315.622Z" transform="translate(-245.577 -298.9)"/>
      <path id="Caminho_7725" data-name="Caminho 7725" d="M319.83,436.633a34.566,34.566,0,0,1,5.469-1.381l.025-.282A37,37,0,0,0,319.83,436.633Z" transform="translate(-257.728 -386.425)"/>
      <path id="Caminho_7726" data-name="Caminho 7726" d="M251.181,434.166h-.128a.26.26,0,0,1-.307-.039,1.07,1.07,0,0,0,.307.039c.478-.278,1.2-2.447-.307-15.006-1.605-13.407-7.906-12.355-11.356-10.814,3.525-.97,8.377-.132,9.758,11.4,1.5,12.558.785,14.731.307,15.006A3.211,3.211,0,0,0,251.181,434.166Z" transform="translate(-205.986 -368.736)"/>
      <path id="Caminho_7727" data-name="Caminho 7727" d="M267.047,483.869a1.074,1.074,0,0,1-.307-.039A.261.261,0,0,0,267.047,483.869Z" transform="translate(-223.579 -417.853)"/>
    </g>
    <path id="Caminho_7728" data-name="Caminho 7728" d="M254.922,273.078c2.3.26,4.484,1.249,6.746,1.784a3.332,3.332,0,0,0,1.745.068c.878-.271,1.591-1.192,2.5-1.163a2.625,2.625,0,0,1,1.52.767,18.235,18.235,0,0,1,2.094,1.859c1.559,1.695,2.529,3.978,3.953,5.819s3.668,3.275,5.69,2.43c-1.374,5.351-5.883,9.444-10.756,9.775-1.944.132-3.924-.271-5.819.3a5.092,5.092,0,0,1-1.47.357c-1.07,0-1.955-1-2.633-1.962-1.584-2.276-2.854-4.859-4.638-6.932a3.792,3.792,0,0,0-2.116-1.463,3.918,3.918,0,0,0-2.34.656,11.111,11.111,0,0,0-3.425,2.376,4.749,4.749,0,0,0-1.156,4.178,10.2,10.2,0,0,1,.714,2.337c0,1.32-1.149,2.287-1.381,3.568a13.772,13.772,0,0,0-.057,1.627,6.636,6.636,0,0,1-2.458,4.313,3.1,3.1,0,0,0-1.124,1.559c-.093.453,0,.935-.061,1.395a2.532,2.532,0,0,1-2.326,1.873,6.743,6.743,0,0,1-3.489-.414,4.011,4.011,0,0,0,1.952-4.281c-.45-2.358-2.818-4.049-2.619-6.454a7.467,7.467,0,0,1,.656-2.123,19.427,19.427,0,0,0,1.12-4.024,6.817,6.817,0,0,0-.068-3.211,10.137,10.137,0,0,0-1.448-2.44,13.849,13.849,0,0,1-1.677-3.436,2.408,2.408,0,0,1-.161-1.134,2.351,2.351,0,0,1,.714-1.177c1.3-1.359,2.69-2.776,4.417-3.168a9.906,9.906,0,0,1,2.5-.1,29.338,29.338,0,0,0,4.356-.185c1.192-.139,3.211-.121,4.217-.9.938-.714,1.47-1.623,2.629-2.08A7.7,7.7,0,0,1,254.922,273.078Z" transform="translate(-194.117 -218.134)" fill="#a66477"/>
    <path id="Caminho_7729" data-name="Caminho 7729" d="M822.269,204.308h0v-.132a.3.3,0,0,0-.021-.136h-.057v-.3c-.143-3.307-4.716-10.346-6.55-8.291-1.605,1.805.817,6.372,2.052,8.427l.111.186-.061-.039s-5.105,15.227-5.708,15.819-4.806,12.565-10.346,13.914c-1.1.26-2.005.5-2.768.714l.061-.2a22.063,22.063,0,0,0,.974-3.568c.178-1.3,0-2.872-.656-3.5-.321-.314-.713-.357-.977-.856a3.952,3.952,0,0,1-.271-1.374l-.471-5.772.328-.1c1.984-.635,3.907-2.141,4.131-4.167a2.134,2.134,0,0,1-.211.068,3.6,3.6,0,0,0,.061-.357c-1.666.656-3.211-1.07-4.816-1.844-2.644-1.3-5.665-.075-8.395.221-3.093.339-6.029-.945-9.19-.714-1.72.132-3.632,1.3-3.539,2.993a11.987,11.987,0,0,0,.985,2.612c.685,2.158-.838,4.324-2.173,6.165a9.178,9.178,0,0,0-1.87,4.1c-3.072-3.211-6.393-6.921-6.778-8.316l-8.887-15.227s-.211.225-.549.557c-.054-.164-.118-.357-.189-.549-1.134-3.179-4.345-10.881-8.416-9.469s1.688,9.308,4.192,12.455l.357.435a1.127,1.127,0,0,1-.635-.029l9.911,17s1.8,3.254,3.453,4.138c0,0,12.312,15.523,12.462,18.627s5.537,11.384,5.537,11.384,1.8,13.454-1.352,15.819h.521q-.225.219-.46.482c-2.337,2.59-5.323,8.141-1.241,17.581,6,13.914,6.907,19.365,6.907,19.365s-11.417.592-13.664,1.035c-1.991.392-9.729.667-11.5.714-.631-.735-2.5-2.362-5.016,0-3.154,2.958-5.4,12.844-5.4,12.844s-1.2,7.984,2.854,5.912c0,0,4.806-6.654,6.154-6.95.671-.146,1.381-1.135,1.923-2.087l.029.018h0c.032,0,.164-.071.378-.157h0c1-.4,3.75-1.349,5.919-.874a108.97,108.97,0,0,0,11.623.307c-1.206,2.89-3.368,10.346-3.368,10.346s-.9,6.953,2.094,6.668c2.141-.21,5.423-5.68,7.135-8.8,1.242-.91,4.8-4.171,7.428-3.924l17.717-6.8s4.2-2.365,1.952-10.2c-1.784-6.229-6.861-18.98-8.866-23.95h0l-.06-.128c-.485-1.2-.778-1.916-.778-1.916h0a29.32,29.32,0,0,1-1.609-7.032c-.018-.189-.032-.382-.046-.571a3.15,3.15,0,0,0,.7-.4s-1.652-16.7,0-18.48h0l.029-.032h0v-.021h0l.028-.036h0l.064-.082h0l.078-.1h0c.089-.118.2-.264.317-.442h0a12.246,12.246,0,0,0,2.2-8.277h0q-.032-.243-.078-.489h0a10.194,10.194,0,0,0-1.027-2.9,8.013,8.013,0,0,1-.132-1.145v-1.013a3.425,3.425,0,0,1,.054-.514v-.064a.642.642,0,0,1,.032-.2v-.082a.926.926,0,0,1,.043-.193v-.068c.021-.086.043-.171.071-.257v-.043q.032-.107.071-.21l.032-.082.071-.171.036-.086c.028-.064.06-.128.093-.193l.025-.053q.064-.118.136-.232l.039-.061.118-.168.057-.075.125-.15.057-.064c.064-.068.128-.136.2-.2,1.951-1.784,10.66-14.931,10.66-14.931s2.1-2.958,2.1-4.877C818.93,220.452,822.644,208.072,822.269,204.308ZM798.891,314.816c-.214-2.026-.428-4.538-.624-7.135l3.4,5.294S801.342,314.588,798.891,314.816Z" transform="translate(-524.919 -167.959)" fill="url(#linear-gradient-4)"/>
    <path id="Caminho_7730" data-name="Caminho 7730" d="M774.917,524.965s-2.034-3.211-5.088-.289-5.23,12.64-5.23,12.64-1.163,7.849,2.761,5.812c0,0,4.638-6.54,5.958-6.828s2.761-3.924,2.761-3.924Z" transform="translate(-536.358 -379.228)" fill="#493545"/>
    <path id="Caminho_7731" data-name="Caminho 7731" d="M841.319,548.468s-2.761-1.309-3.632-.289-3.778,11.188-3.778,11.188-.87,6.686,2.034,6.393S843.935,555,843.935,555Z" transform="translate(-580.966 -394.885)" fill="#493545"/>
    <path id="Caminho_7732" data-name="Caminho 7732" d="M841.319,548.468s-2.761-1.309-3.632-.289-3.778,11.188-3.778,11.188-.87,6.686,2.034,6.393S843.935,555,843.935,555Z" transform="translate(-580.966 -394.885)" opacity="0.05"/>
    <path id="Caminho_7733" data-name="Caminho 7733" d="M861.829,462.383l6.247,9.736s-.435,2.18-4.214,1.745L850.93,482s-1.124,9.907,2.469,9.008c.582-.146,4.638-4.36,7.556-4.067l17.15-6.686s4.067-2.326,1.887-10.025-9.387-25.551-9.387-25.551l-11.391,6.372Z" transform="translate(-591.885 -328.561)" fill="#3e3d77"/>
    <path id="Caminho_7734" data-name="Caminho 7734" d="M861.829,462.383l6.247,9.736s-.435,2.18-4.214,1.745L850.93,482s-1.124,9.907,2.469,9.008c.582-.146,4.638-4.36,7.556-4.067l17.15-6.686s4.067-2.326,1.887-10.025-9.387-25.551-9.387-25.551l-11.391,6.372Z" transform="translate(-591.885 -328.561)" opacity="0.05"/>
    <path id="Caminho_7735" data-name="Caminho 7735" d="M825.572,457.869c.871,5.523-4.067,5.958-4.067,5.958s-22.234.435-24.849-.146-6.1,1.017-6.1,1.017c-4.506-2.761-.871-9.59-.871-9.59s9.3-.289,11.481-.714,13.222-1.027,13.222-1.027-.87-5.376-6.686-19.033c-3.949-9.276-1.07-14.734,1.2-17.278a9.568,9.568,0,0,1,1.994-1.755l17.874.871a23.154,23.154,0,0,0,.1,2.7,28.76,28.76,0,0,0,2.372,8.919c-1.017,0-7.556,6.1-7.556,6.1S824.7,452.35,825.572,457.869Z" transform="translate(-551.704 -309.663)" fill="#3e3d77"/>
    <path id="Caminho_7736" data-name="Caminho 7736" d="M790.99,455.709s9.3-.289,11.481-.714,13.222-1.017,13.222-1.017-.871-5.376-6.686-19.033c-3.949-9.276-1.07-14.734,1.2-17.278a9.566,9.566,0,0,1,1.994-1.755l16.561.806V416.2l-17.874-.87a9.567,9.567,0,0,0-1.994,1.755c-2.262,2.547-5.152,8-1.2,17.278,5.829,13.646,6.693,19.023,6.693,19.023s-11.06.581-13.222,1.017-11.481.713-11.481.713-3.632,6.832.871,9.6c0,0,.136-.064.357-.157C787.918,461.485,790.99,455.709,790.99,455.709Z" transform="translate(-551.707 -309.682)" opacity="0.1"/>
    <rect id="Retângulo_17363" data-name="Retângulo 17363" width="9.008" height="22.812" transform="translate(256.865 52.304)" fill="#493545"/>
    <rect id="Retângulo_17364" data-name="Retângulo 17364" width="9.008" height="22.812" transform="translate(256.865 52.304)" opacity="0.1"/>
    <path id="Caminho_7737" data-name="Caminho 7737" d="M877.436,249.477c.31.086.66.1.87.524a3.207,3.207,0,0,1,.211,1.07l.567,7.05a3.92,3.92,0,0,0,.264,1.349c.239.478.635.535.945.842.624.621.806,2.176.635,3.443a22.617,22.617,0,0,1-.942,3.5,32.93,32.93,0,0,1-1.488,4.87c-.681,1.384-1.919,2.141-2.719.978s-.692-3.511-.842-5.434c-.25-3.211-1.5-5.979-1.588-9.212-.071-2.615.631-5.055,1.07-7.535.314-1.7.332-3.767.788-5.3C875.592,247.439,876.319,249.17,877.436,249.477Z" transform="translate(-606.411 -200.519)" fill="#493545"/>
    <path id="Caminho_7738" data-name="Caminho 7738" d="M877.436,249.477c.31.086.66.1.87.524a3.207,3.207,0,0,1,.211,1.07l.567,7.05a3.92,3.92,0,0,0,.264,1.349c.239.478.635.535.945.842.624.621.806,2.176.635,3.443a22.617,22.617,0,0,1-.942,3.5,32.93,32.93,0,0,1-1.488,4.87c-.681,1.384-1.919,2.141-2.719.978s-.692-3.511-.842-5.434c-.25-3.211-1.5-5.979-1.588-9.212-.071-2.615.631-5.055,1.07-7.535.314-1.7.332-3.767.788-5.3C875.592,247.439,876.319,249.17,877.436,249.477Z" transform="translate(-606.411 -200.519)" opacity="0.1"/>
    <path id="Caminho_7739" data-name="Caminho 7739" d="M760,208.92l-3.486,2.908s-.414-.485-1.031-1.27c-2.422-3.093-7.992-10.853-4.056-12.241s7.046,6.179,8.145,9.3C759.849,208.413,760,208.92,760,208.92Z" transform="translate(-527.108 -169.984)" fill="#c77485"/>
    <path id="Caminho_7740" data-name="Caminho 7740" d="M942.354,208.061c-1.452,2.18-3.486,0-3.486,0s-.26-.389-.628-1.017c-1.2-2.023-3.539-6.507-1.987-8.284,1.784-2.03,6.2,4.9,6.34,8.148A1.934,1.934,0,0,1,942.354,208.061Z" transform="translate(-646.544 -170.142)" fill="#c77485"/>
    <path id="Caminho_7741" data-name="Caminho 7741" d="M854.08,287.032s2.908,9.3,2.034,12.059,6.25,5.969,6.25,5.969H870.5s2.908-5.958,2.18-7.7-6.975-3.05-6.975-3.05-3.632,0-3.486-9.736Z" transform="translate(-594.018 -225.573)" fill="#c77485"/>
    <path id="Caminho_7742" data-name="Caminho 7742" d="M769.777,226l-3.486,2.908s-.414-.485-1.031-1.27c1.266-.225,3.232-2.073,4.092-2.936C769.627,225.492,769.777,226,769.777,226Z" transform="translate(-536.886 -187.062)" opacity="0.1"/>
    <path id="Caminho_7743" data-name="Caminho 7743" d="M946.864,223.393c-1.452,2.18-3.486,0-3.486,0s-.26-.389-.628-1.017l.046-.146c.942.674,3.871.1,4.306,0A1.933,1.933,0,0,1,946.864,223.393Z" transform="translate(-651.054 -185.474)" opacity="0.1"/>
    <path id="Caminho_7744" data-name="Caminho 7744" d="M865.979,418.855c-4.5,2.051-19.1-1.6-19.979-1.819a9.567,9.567,0,0,1,1.994-1.755l17.874.87A23.192,23.192,0,0,0,865.979,418.855Z" transform="translate(-588.821 -309.65)" opacity="0.1"/>
    <path id="Caminho_7745" data-name="Caminho 7745" d="M798.35,255.471s-3.485,1.163-8.427-3.343c0,0-11.06-10.9-11.773-13.514l-8.562-14.984s-3.632,3.924-5.087,3.343l9.59,16.711s1.745,3.211,3.343,4.067c0,0,11.916,15.259,12.059,18.309s5.369,11.22,5.369,11.22,1.745,13.222-1.309,15.548c0,0,17,4.36,20.632,1.452,0,0-1.6-16.411,0-18.163,0,0,4.941-5.812,1.6-12.2,0,0-.714-3.486,1.163-5.23S827.262,244,827.262,244s2.034-2.908,2.034-4.795c0,0,3.778-12.786,3.211-16.129,0,0-3.343.714-4.36,0,0,0-4.941,14.984-5.523,15.548s-4.638,12.351-10.025,13.661-6.247,1.887-6.247,1.887,10.46,6.54,5.377,9.444S798.35,255.471,798.35,255.471Z" transform="translate(-536.398 -186.02)" fill="#ffaac4"/>
    <path id="Caminho_7746" data-name="Caminho 7746" d="M862.838,290.3a27.752,27.752,0,0,1-.21-4.128l-8.138,2.469a10.979,10.979,0,0,1,.51,1.67c.931.41,2.187,1.381,3.268,1.381A7.41,7.41,0,0,0,862.838,290.3Z" transform="translate(-594.282 -226.602)" opacity="0.1"/>
    <circle id="Elipse_1462" data-name="Elipse 1462" cx="7.556" cy="7.556" r="7.556" transform="translate(256.283 49.543)" fill="#c77485"/>
    <path id="Caminho_7747" data-name="Caminho 7747" d="M827.932,246.436c-1.663.128-3.518,1.277-3.425,2.943a11.192,11.192,0,0,0,.953,2.569c.66,2.123-.81,4.253-2.1,6.065s-2.5,4.213-1.391,6.133a15.1,15.1,0,0,0,1.02,1.331c1.366,1.844,1.349,4.335,1.955,6.55a11.491,11.491,0,0,0,13.5,8.206,7.186,7.186,0,0,1-1.516-4.859c.082-1.27.492-2.6,0-3.771-.635-1.509-2.5-2.1-3.457-3.425a5.474,5.474,0,0,1-.432-4.724c.464-1.573,1.266-3.033,1.652-4.638a13.968,13.968,0,0,1,.357-1.388c.671-1.905,2.676-3.011,4.638-3.486s4.024-.5,5.94-1.127,3.778-2.087,4-4.1c-1.613.646-3.107-1.038-4.663-1.812-2.562-1.27-5.483-.075-8.123.218C833.83,247.46,830.975,246.215,827.932,246.436Z" transform="translate(-573.083 -200.978)" opacity="0.1"/>
    <path id="Caminho_7748" data-name="Caminho 7748" d="M827.522,245.626c-1.662.128-3.518,1.277-3.425,2.943a11.2,11.2,0,0,0,.953,2.569c.66,2.123-.81,4.253-2.1,6.065s-2.5,4.213-1.391,6.133a15.141,15.141,0,0,0,1.02,1.331c1.367,1.844,1.349,4.335,1.955,6.55a11.491,11.491,0,0,0,13.5,8.206,7.185,7.185,0,0,1-1.516-4.859c.082-1.27.492-2.6,0-3.771-.635-1.509-2.5-2.1-3.457-3.425a5.475,5.475,0,0,1-.432-4.724c.464-1.573,1.267-3.033,1.652-4.638a13.919,13.919,0,0,1,.357-1.388c.671-1.905,2.676-3.011,4.638-3.486s4.024-.5,5.94-1.127,3.778-2.087,4-4.1c-1.612.646-3.107-1.038-4.663-1.812-2.562-1.27-5.483-.075-8.124.218C833.427,246.646,830.583,245.387,827.522,245.626Z" transform="translate(-572.819 -200.457)" fill="#493545"/>
    <path id="Caminho_7749" data-name="Caminho 7749" d="M885.65,326.3s3.025,2.7,3.621,3.892" transform="translate(-614.326 -252.415)" opacity="0.1"/>
    <path id="Caminho_7750" data-name="Caminho 7750" d="M883.3,371.51a32.539,32.539,0,0,0-5.523.435c-1.745.435-5.958,0-5.958,0" transform="translate(-605.43 -281.496)" opacity="0.1"/>
    <g id="Grupo_11929" data-name="Grupo 11929" transform="translate(228.099 37.049)" opacity="0.1">
      <path id="Caminho_7751" data-name="Caminho 7751" d="M887.156,319.654a3.631,3.631,0,0,1-1.045.4,4,4,0,0,0,2.79-.4c5.087-2.908-5.376-9.444-5.376-9.444H881.78S892.244,316.749,887.156,319.654Z" transform="translate(-839.935 -279.114)"/>
      <path id="Caminho_7752" data-name="Caminho 7752" d="M951.865,223.314a1.52,1.52,0,0,0-.036-.264,17.078,17.078,0,0,1-1.809.275A8.012,8.012,0,0,0,951.865,223.314Z" transform="translate(-883.829 -223.05)"/>
      <path id="Caminho_7753" data-name="Caminho 7753" d="M795.293,299.873c3.05-2.326,1.309-15.548,1.309-15.548s-5.23-8.138-5.376-11.188-12.059-18.309-12.059-18.309c-1.6-.87-3.343-4.067-3.343-4.067s-9.882-16.129-11.334-16.711l9.59,16.711s1.745,3.211,3.343,4.067c0,0,11.916,15.259,12.059,18.309s5.373,11.2,5.373,11.2,1.745,13.222-1.309,15.548c0,0,10.45,2.679,16.714,2.437C803.98,302.1,795.293,299.873,795.293,299.873Z" transform="translate(-764.49 -230.126)"/>
      <path id="Caminho_7754" data-name="Caminho 7754" d="M858.919,313.991l-.086-.111a2.3,2.3,0,0,1-.3.068C858.666,313.966,858.794,313.98,858.919,313.991Z" transform="translate(-824.98 -281.475)"/>
    </g>
    <g id="Grupo_11930" data-name="Grupo 11930" transform="translate(277.646 37.031)" opacity="0.1">
      <path id="Caminho_7755" data-name="Caminho 7755" d="M924.455,223l-.089.018c-.153,4.463-3.25,14.948-3.25,14.948,0,1.887-2.034,4.795-2.034,4.795s-8.427,12.933-10.318,14.677-1.163,5.23-1.163,5.23l.018.036a5.276,5.276,0,0,1,1.288-4.106c1.887-1.745,10.318-14.677,10.318-14.677s2.034-2.908,2.034-4.795C921.259,239.147,925.037,226.361,924.455,223Z" transform="translate(-906.004 -223)"/>
      <path id="Caminho_7756" data-name="Caminho 7756" d="M903.37,353.675c.218,1.234.071-.071.146,1.163,0,0,3.568-4.185,2.594-9.358A12.723,12.723,0,0,1,903.37,353.675Z" transform="translate(-903.37 -301.783)"/>
    </g>
    <ellipse id="Elipse_1463" data-name="Elipse 1463" cx="152.578" cy="14.656" rx="152.578" ry="14.656" transform="translate(15.014 206.708)" fill="#f9267b" opacity="0.1"/>
    <path id="Caminho_7787" data-name="Caminho 7787" d="M753.627,128.893h-2.241a1.57,1.57,0,1,0,0-3.136H733.22a1.57,1.57,0,0,0,0,3.136h2.241a1.57,1.57,0,0,0,0,3.136h-3.136a1.57,1.57,0,1,0,0,3.136h18.152a1.57,1.57,0,1,0,0-3.136h3.15a1.57,1.57,0,0,0,0-3.136Z" transform="translate(-514.644 -123.418)" fill="#dee3f3" opacity="0.5"/>
    <path id="Caminho_7788" data-name="Caminho 7788" d="M469.3,155.884h-1.705a1.2,1.2,0,1,0,0-2.387H453.779a1.2,1.2,0,0,0,0,2.387h1.705a1.2,1.2,0,1,0,0,2.387H453.1a1.2,1.2,0,1,0,0,2.387h13.814a1.2,1.2,0,1,0,0-2.387H469.3a1.2,1.2,0,0,0,0-2.387Z" transform="translate(-335.282 -141.261)" fill="#dee3f3" opacity="0.5"/>
    <path id="Caminho_7823" data-name="Caminho 7823" d="M261.863,188.223h-2.24a1.57,1.57,0,1,0,0-3.136H241.47a1.57,1.57,0,0,0,0,3.136h2.24a1.57,1.57,0,0,0,0,3.136h-3.136a1.57,1.57,0,0,0,0,3.136h18.152a1.57,1.57,0,1,0,0-3.136h3.136a1.57,1.57,0,0,0,0-3.136Z" transform="translate(-198.429 -161.581)" fill="#dee3f3" opacity="0.5"/>
  </g>
</svg>
