<svg id="undraw_happy_birthday_s72n" xmlns="http://www.w3.org/2000/svg" xmlns:xlink="http://www.w3.org/1999/xlink" width="272.396" height="236" viewBox="0 0 272.396 236">
  <defs>
    <linearGradient id="linear-gradient" x1="0.5" y1="1" x2="0.5" gradientUnits="objectBoundingBox">
      <stop offset="0" stop-color="gray" stop-opacity="0.251"/>
      <stop offset="0.54" stop-color="gray" stop-opacity="0.122"/>
      <stop offset="1" stop-color="gray" stop-opacity="0.102"/>
    </linearGradient>
    <linearGradient id="linear-gradient-2" x1="0.5" y1="1" x2="0.5" y2="0" xlink:href="#linear-gradient"/>
    <linearGradient id="linear-gradient-3" x1="0.5" y1="1" x2="0.5" y2="0" xlink:href="#linear-gradient"/>
  </defs>
  <g id="Grupo_11917" data-name="Grupo 11917" transform="translate(37.785 42.037)" opacity="0.5">
    <rect id="Retângulo_17345" data-name="Retângulo 17345" width="1.081" height="6.125" transform="translate(2.522)" fill="#47e6b1"/>
    <rect id="Retângulo_17346" data-name="Retângulo 17346" width="1.081" height="6.125" transform="translate(6.125 2.522) rotate(90)" fill="#47e6b1"/>
  </g>
  <g id="Grupo_11918" data-name="Grupo 11918" transform="translate(76.203 175.338)" opacity="0.5">
    <rect id="Retângulo_17347" data-name="Retângulo 17347" width="1.081" height="6.125" transform="translate(2.525)" fill="#47e6b1"/>
    <rect id="Retângulo_17348" data-name="Retângulo 17348" width="1.081" height="6.125" transform="translate(6.125 2.522) rotate(90)" fill="#47e6b1"/>
  </g>
  <g id="Grupo_11919" data-name="Grupo 11919" transform="translate(22.426 104.192)" opacity="0.5">
    <rect id="Retângulo_17349" data-name="Retângulo 17349" width="1.081" height="6.125" transform="translate(2.522)" fill="#47e6b1"/>
    <rect id="Retângulo_17350" data-name="Retângulo 17350" width="1.081" height="6.125" transform="translate(6.125 2.522) rotate(90)" fill="#47e6b1"/>
  </g>
  <g id="Grupo_11920" data-name="Grupo 11920" transform="translate(211.659)" opacity="0.5">
    <rect id="Retângulo_17351" data-name="Retângulo 17351" width="1.081" height="6.125" transform="translate(2.522)" fill="#47e6b1"/>
    <rect id="Retângulo_17352" data-name="Retângulo 17352" width="1.081" height="6.125" transform="translate(6.125 2.522) rotate(90)" fill="#47e6b1"/>
  </g>
  <g id="Grupo_11921" data-name="Grupo 11921" transform="translate(29.274 15.233)" opacity="0.5">
    <rect id="Retângulo_17353" data-name="Retângulo 17353" width="1.081" height="6.125" transform="translate(2.525)" fill="#47e6b1"/>
    <rect id="Retângulo_17354" data-name="Retângulo 17354" width="1.081" height="6.125" transform="translate(6.125 2.522) rotate(90)" fill="#47e6b1"/>
  </g>
  <path id="Caminho_7633" data-name="Caminho 7633" d="M336.211,554.128a1.324,1.324,0,0,1-.737-1.6.65.65,0,0,0,.029-.146h0a.649.649,0,0,0-1.191-.441h0a.649.649,0,0,0-.075.13,1.324,1.324,0,0,1-1.6.737.644.644,0,0,0-.146-.029h0a.649.649,0,0,0-.441,1.191h0a.646.646,0,0,0,.13.075,1.324,1.324,0,0,1,.737,1.6.649.649,0,0,0-.029.146h0a.649.649,0,0,0,1.191.441h0a.648.648,0,0,0,.075-.13,1.324,1.324,0,0,1,1.6-.737.651.651,0,0,0,.146.029h0a.649.649,0,0,0,.441-1.191h0A.651.651,0,0,0,336.211,554.128Z" transform="translate(-282.622 -400.647)" fill="#4d8af0" opacity="0.5"/>
  <path id="Caminho_7634" data-name="Caminho 7634" d="M319.718,733.477a1.324,1.324,0,0,1-.737-1.6.647.647,0,0,0,.029-.146h0a.649.649,0,0,0-1.191-.441h0a.65.65,0,0,0-.075.13,1.324,1.324,0,0,1-1.6.74.652.652,0,0,0-.146-.029h0a.649.649,0,0,0-.441,1.191h0a.638.638,0,0,0,.13.075,1.325,1.325,0,0,1,.737,1.6.649.649,0,0,0-.029.146h0a.649.649,0,0,0,1.191.441h0a.646.646,0,0,0,.075-.13,1.324,1.324,0,0,1,1.6-.737.658.658,0,0,0,.146.029h0a.649.649,0,0,0,.441-1.191h0A.645.645,0,0,0,319.718,733.477Z" transform="translate(-271.484 -521.782)" fill="#4d8af0" opacity="0.5"/>
  <path id="Caminho_7635" data-name="Caminho 7635" d="M926.718,336.477a1.325,1.325,0,0,1-.737-1.6.634.634,0,0,0,.029-.146h0a.649.649,0,0,0-1.191-.441h0a.641.641,0,0,0-.075.13,1.324,1.324,0,0,1-1.6.74.646.646,0,0,0-.146-.029h0a.649.649,0,0,0-.442,1.191h0a.651.651,0,0,0,.13.075,1.325,1.325,0,0,1,.737,1.6.648.648,0,0,0-.029.146h0a.649.649,0,0,0,1.191.441h0a.639.639,0,0,0,.075-.13,1.324,1.324,0,0,1,1.6-.737.646.646,0,0,0,.146.029h0a.649.649,0,0,0,.441-1.191h0A.649.649,0,0,0,926.718,336.477Z" transform="translate(-681.46 -253.643)" fill="#4d8af0" opacity="0.5"/>
  <path id="Caminho_7636" data-name="Caminho 7636" d="M899.241,525.818a1.324,1.324,0,0,1-.737-1.6.654.654,0,0,0,.029-.146h0a.649.649,0,0,0-1.191-.441h0a.646.646,0,0,0-.075.13,1.324,1.324,0,0,1-1.6.737.657.657,0,0,0-.146-.029h0a.649.649,0,0,0-.441,1.191h0a.655.655,0,0,0,.13.075,1.324,1.324,0,0,1,.737,1.6.668.668,0,0,0-.029.146h0a.649.649,0,0,0,1.191.441h0a.634.634,0,0,0,.075-.13,1.325,1.325,0,0,1,1.6-.737.643.643,0,0,0,.146.029h0a.649.649,0,0,0,.441-1.191h0A.641.641,0,0,0,899.241,525.818Z" transform="translate(-662.9 -381.526)" fill="#4d8af0" opacity="0.5"/>
  <path id="Caminho_7637" data-name="Caminho 7637" d="M919.711,148.487a1.324,1.324,0,0,1-.737-1.6.641.641,0,0,0,.029-.146h0a.649.649,0,0,0-1.191-.441h0a.644.644,0,0,0-.075.13,1.324,1.324,0,0,1-1.6.737.649.649,0,0,0-.146-.029h0a.649.649,0,0,0-.441,1.191h0a.64.64,0,0,0,.13.075,1.324,1.324,0,0,1,.737,1.6.658.658,0,0,0-.029.146h0a.649.649,0,0,0,1.191.441h0a.659.659,0,0,0,.075-.13,1.324,1.324,0,0,1,1.6-.737.646.646,0,0,0,.146.029h0a.649.649,0,0,0,.441-1.191h0A.647.647,0,0,0,919.711,148.487Z" transform="translate(-676.726 -126.672)" fill="#4d8af0" opacity="0.5"/>
  <path id="Caminho_7638" data-name="Caminho 7638" d="M983.931,640.537a1.324,1.324,0,0,1-.737-1.6.662.662,0,0,0,.029-.146h0a.649.649,0,0,0-1.191-.441h0a.653.653,0,0,0-.075.13,1.324,1.324,0,0,1-1.6.737.648.648,0,0,0-.146-.029h0a.649.649,0,0,0-.442,1.191h0a.65.65,0,0,0,.13.075,1.324,1.324,0,0,1,.737,1.6.649.649,0,0,0-.029.146h0a.649.649,0,0,0,1.191.441h0a.654.654,0,0,0,.075-.13,1.324,1.324,0,0,1,1.6-.737.644.644,0,0,0,.146.029h0a.649.649,0,0,0,.442-1.191h0A.645.645,0,0,0,983.931,640.537Z" transform="translate(-720.101 -459.009)" fill="#4d8af0" opacity="0.5"/>
  <circle id="Elipse_1452" data-name="Elipse 1452" cx="2.162" cy="2.162" r="2.162" transform="translate(0 81.51)" fill="#f55f44" opacity="0.5"/>
  <circle id="Elipse_1453" data-name="Elipse 1453" cx="2.162" cy="2.162" r="2.162" transform="translate(241.223 45.257)" fill="#f55f44" opacity="0.5"/>
  <circle id="Elipse_1454" data-name="Elipse 1454" cx="2.434" cy="2.434" r="2.434" transform="translate(142.63 126.089)" fill="#f55f44" opacity="0.5"/>
  <circle id="Elipse_1455" data-name="Elipse 1455" cx="2.434" cy="2.434" r="2.434" transform="translate(142.63 126.089)" fill="#f55f44" opacity="0.5"/>
  <circle id="Elipse_1456" data-name="Elipse 1456" cx="2.162" cy="2.162" r="2.162" transform="translate(268.073 110.255)" fill="#f55f44" opacity="0.5"/>
  <circle id="Elipse_1457" data-name="Elipse 1457" cx="2.434" cy="2.434" r="2.434" transform="translate(93.049 12.909)" fill="#47e6b1" opacity="0.5"/>
  <circle id="Elipse_1458" data-name="Elipse 1458" cx="2.162" cy="2.162" r="2.162" transform="translate(232.024 199.539)" fill="#f55f44" opacity="0.5"/>
  <path id="Caminho_7639" data-name="Caminho 7639" d="M486.279,468a10.018,10.018,0,0,0,4.392,11.244c1.571.915,3.379,1.376,4.9,2.369,3.307,2.155,4.612,6.281,5.687,10.078,1.233,4.366,2.47,8.981,1.341,13.373-.721,2.8-2.36,5.278-3.291,8.017a16.728,16.728,0,0,0-.8,7.141,6.092,6.092,0,0,0,1.331,3.551c1.266,1.363,3.3,1.568,5.135,1.9A24.922,24.922,0,0,1,522.9,539.542" transform="translate(-386.729 -344.157)" fill="none" stroke="#707070" stroke-miterlimit="10" stroke-width="2"/>
  <path id="Caminho_7640" data-name="Caminho 7640" d="M487.489,468a10.017,10.017,0,0,0,4.392,11.244c1.571.915,3.379,1.376,4.9,2.369,3.308,2.155,4.612,6.281,5.687,10.078,1.233,4.366,2.47,8.981,1.341,13.373-.721,2.8-2.36,5.278-3.291,8.017a16.729,16.729,0,0,0-.8,7.141,6.092,6.092,0,0,0,1.331,3.551c1.266,1.363,3.3,1.568,5.135,1.9a24.922,24.922,0,0,1,17.917,13.873" transform="translate(-387.546 -344.157)" fill="none" stroke="#535461" stroke-miterlimit="10" stroke-width="2"/>
  <path id="Caminho_7641" data-name="Caminho 7641" d="M623.471,372.4c-3.155,4.4-6.43,9.127-6.7,14.535-.412,8.306,6.232,15.1,9.2,22.87a27.181,27.181,0,0,1-.912,21.26c-1.448,2.993-3.512,5.966-3.246,9.28.153,2.022,1.165,3.863,1.98,5.722A32.264,32.264,0,0,1,621.92,475.2" transform="translate(-475.119 -279.588)" fill="none" stroke="#707070" stroke-miterlimit="10" stroke-width="2"/>
  <path id="Caminho_7642" data-name="Caminho 7642" d="M624.665,372.4c-3.152,4.414-6.427,9.131-6.7,14.535-.412,8.306,6.232,15.1,9.2,22.87a27.182,27.182,0,0,1-.912,21.26c-1.448,2.993-3.512,5.966-3.246,9.28.152,2.022,1.165,3.863,1.98,5.722A32.264,32.264,0,0,1,623.11,475.2" transform="translate(-475.923 -279.588)" fill="none" stroke="#535461" stroke-miterlimit="10" stroke-width="2"/>
  <path id="Caminho_7643" data-name="Caminho 7643" d="M755.415,494.28l1.526,12.435c.2,1.652.373,3.454-.513,4.869-.841,1.334-2.418,1.97-3.645,2.957-4.028,3.246-3.661,9.449-2.272,14.428s3.389,10.328,1.457,15.119c-.8,1.977-2.207,3.642-3.246,5.5a16.837,16.837,0,0,0-2.012,10.445" transform="translate(-562.796 -361.907)" fill="none" stroke="#707070" stroke-miterlimit="10" stroke-width="2"/>
  <path id="Caminho_7644" data-name="Caminho 7644" d="M756.585,494.28l1.526,12.435c.2,1.652.373,3.454-.513,4.869-.841,1.334-2.418,1.97-3.645,2.957-4.028,3.246-3.661,9.449-2.272,14.428s3.389,10.328,1.457,15.119c-.8,1.977-2.207,3.642-3.246,5.5a16.836,16.836,0,0,0-2.012,10.445" transform="translate(-563.586 -361.907)" fill="none" stroke="#535461" stroke-miterlimit="10" stroke-width="2"/>
  <g id="Grupo_11922" data-name="Grupo 11922" transform="translate(62.486 3.05)" opacity="0.7">
    <path id="Caminho_7645" data-name="Caminho 7645" d="M542.6,174.07a36.873,36.873,0,0,0-48.266-35.052,44.311,44.311,0,0,0,.471-6.255,36.85,36.85,0,0,0-73.61-2.642,36.873,36.873,0,0,0-48.285,35.055c0,18.5,13.633,44.793,31.371,49.451l2.762,1.577-1.5,5.138h8.881L412.5,216.2l2.749-1.571c13.717-3.6,24.964-20.124,29.369-35.974a26.941,26.941,0,0,0,7.861,3.57l2.762,1.577-1.477,5.125h8.881l-1.928-5.145,2.749-1.571a25.71,25.71,0,0,0,5.842-2.373c2.373,17.781,15,39.489,30.969,43.68l2.762,1.577-1.5,5.138h8.881l-1.934-5.145,2.749-1.571C528.984,218.859,542.6,192.558,542.6,174.07Z" transform="translate(-372.91 -95.856)" fill="url(#linear-gradient)"/>
  </g>
  <path id="Caminho_7646" data-name="Caminho 7646" d="M306.875,379.414h-8.6l1.506-5.154h5.154Z" transform="translate(-201.462 -252.78)" fill="#f55f44"/>
  <path id="Caminho_7647" data-name="Caminho 7647" d="M452.718,234.956c0,19.7-15.966,48.548-35.659,48.548S381.4,254.648,381.4,234.956a35.661,35.661,0,1,1,71.321,0Z" transform="translate(-316.158 -162.67)" fill="#f55f44"/>
  <path id="Caminho_7648" data-name="Caminho 7648" d="M301.813,371.347h-5.154l-3.009-1.717h11.172Z" transform="translate(-198.335 -249.653)" fill="#535461"/>
  <path id="Caminho_7649" data-name="Caminho 7649" d="M415.787,223.78s-15.038,8.163-17.187,24.49" transform="translate(-327.775 -179.208)" fill="#fff" opacity="0.1"/>
  <path id="Caminho_7650" data-name="Caminho 7650" d="M450.545,282.834H441.95l1.506-5.154h5.154Z" transform="translate(-298.499 -187.549)" fill="#4d8af0"/>
  <path id="Caminho_7651" data-name="Caminho 7651" d="M596.388,138.376c0,19.7-15.966,48.548-35.659,48.548s-35.659-28.856-35.659-48.548a35.661,35.661,0,1,1,71.321,0Z" transform="translate(-413.195 -97.439)" fill="#f9267b"/>
  <path id="Caminho_7652" data-name="Caminho 7652" d="M445.483,274.76h-5.154l-3.009-1.72h11.172Z" transform="translate(-295.372 -184.415)" fill="#535461"/>
  <path id="Caminho_7653" data-name="Caminho 7653" d="M559.457,127.2s-15.038,8.163-17.187,24.49" transform="translate(-424.812 -113.976)" fill="#fff" opacity="0.1"/>
  <path id="Caminho_7654" data-name="Caminho 7654" d="M593.005,405.978h-8.6l1.506-5.158h5.154Z" transform="translate(-394.719 -270.719)" fill="#3ad29f"/>
  <path id="Caminho_7655" data-name="Caminho 7655" d="M738.841,261.516c0,19.7-15.966,48.548-35.659,48.548s-35.662-28.852-35.662-48.548a35.661,35.661,0,1,1,71.321,0Z" transform="translate(-509.408 -180.609)" fill="#3ad29f"/>
  <path id="Caminho_7656" data-name="Caminho 7656" d="M587.943,397.907h-5.154l-3.009-1.717h11.172Z" transform="translate(-391.591 -267.592)" fill="#535461"/>
  <path id="Caminho_7657" data-name="Caminho 7657" d="M701.917,250.34s-15.038,8.163-17.187,24.49" transform="translate(-521.031 -197.147)" fill="#fff" opacity="0.1"/>
  <g id="Grupo_11923" data-name="Grupo 11923" transform="translate(126.37 138.552)" opacity="0.5">
    <path id="Caminho_7658" data-name="Caminho 7658" d="M610.977,516.1a9.407,9.407,0,0,0-8.491-2.324,17.038,17.038,0,0,0-8.981,4.869,10.5,10.5,0,0,0-1.879,2.577,10.519,10.519,0,0,0-1.863-2.671h0a16.913,16.913,0,0,0-8.91-5.012,8.863,8.863,0,0,0-10.974,10.634,17.017,17.017,0,0,0,4.736,9.049c5.382,5.554,16.122,3.385,16.577,3.288l.133-.029.412.094c.455.1,11.156,2.457,16.632-3a17.108,17.108,0,0,0,4.891-8.968A9.37,9.37,0,0,0,610.977,516.1Zm-21.592,17.2c-2.6.35-9.066.824-12.276-2.49a13.576,13.576,0,0,1-3.8-7.173,6.054,6.054,0,0,1,1.435-5.447,4.793,4.793,0,0,1,1.749-1.071,7.218,7.218,0,0,1,3.739-.188,13.561,13.561,0,0,1,7.05,4.025c3.21,3.291,2.535,9.757,2.1,12.341Zm20.485-9.286a13.549,13.549,0,0,1-3.924,7.105c-3.268,3.246-9.737,2.671-12.318,2.272-.386-2.6-.951-9.053,2.318-12.312a13.539,13.539,0,0,1,7.118-3.9,7.219,7.219,0,0,1,3.736.253,4.8,4.8,0,0,1,1.733,1.1,6.065,6.065,0,0,1,1.337,5.469Z" transform="translate(-569.727 -513.316)" fill="url(#linear-gradient-2)"/>
  </g>
  <path id="Caminho_7659" data-name="Caminho 7659" d="M594.208,536.86l-1.022.214c-.435.091-10.711,2.165-15.863-3.148a16.43,16.43,0,0,1-4.544-8.66,8.478,8.478,0,0,1,10.5-10.176,16.283,16.283,0,0,1,8.514,4.8h0c5.148,5.313,2.752,15.522,2.649,15.953Zm-15.1-18.336a4.591,4.591,0,0,0-1.675,1.026,5.814,5.814,0,0,0-1.373,5.213,13,13,0,0,0,3.639,6.865c3.074,3.171,9.264,2.717,11.747,2.382.412-2.47,1.061-8.644-2.012-11.815h0a12.97,12.97,0,0,0-6.748-3.85A6.908,6.908,0,0,0,579.1,518.524Z" transform="translate(-445.32 -375.823)" fill="#f9267b"/>
  <path id="Caminho_7660" data-name="Caminho 7660" d="M632.8,537.478l-.227-1.019c-.1-.435-2.318-10.682,2.921-15.9h0a16.308,16.308,0,0,1,8.6-4.651,8.471,8.471,0,0,1,10.312,10.338,16.3,16.3,0,0,1-4.68,8.579c-5.239,5.223-15.48,2.97-15.9,2.873Zm15.418-18.089a6.908,6.908,0,0,0-3.57-.243,13.018,13.018,0,0,0-6.816,3.733h0c-3.129,3.119-2.6,9.3-2.217,11.779,2.477.376,8.66.938,11.786-2.178a12.978,12.978,0,0,0,3.755-6.816,5.805,5.805,0,0,0-1.282-5.236A4.589,4.589,0,0,0,648.222,519.389Z" transform="translate(-485.435 -376.396)" fill="#f9267b"/>
  <g id="Grupo_11924" data-name="Grupo 11924" transform="translate(97.837 158.353)" opacity="0.5">
    <path id="Caminho_7661" data-name="Caminho 7661" d="M401.071,487.86H301.42V507.8H306.6v57.708h89.3V507.8h5.177Z" transform="translate(-301.42 -487.86)" fill="url(#linear-gradient-3)"/>
  </g>
  <rect id="Retângulo_17355" data-name="Retângulo 17355" width="87.038" height="70.64" transform="translate(104.143 164.38)" fill="#fdd2e4"/>
  <rect id="Retângulo_17356" data-name="Retângulo 17356" width="16.398" height="58.023" transform="translate(139.462 176.994)" fill="#f9267b"/>
  <rect id="Retângulo_17357" data-name="Retângulo 17357" width="87.038" height="17.661" transform="translate(104.143 160.596)" opacity="0.1"/>
  <rect id="Retângulo_17358" data-name="Retângulo 17358" width="97.129" height="17.661" transform="translate(99.099 159.333)" fill="#fdd2e4"/>
  <rect id="Retângulo_17359" data-name="Retângulo 17359" width="16.398" height="17.661" transform="translate(139.462 159.333)" fill="#f9267b"/>
</svg>
