<svg id="local_activity-24px_1_" data-name="local_activity-24px (1)" xmlns="http://www.w3.org/2000/svg" width="24" height="24" viewBox="0 0 24 24">
  <path id="Caminho_8206" data-name="Caminho 8206" d="M0,0H24V24H0Z" fill="none"/>
  <path id="Caminho_8207" data-name="Caminho 8207" d="M22,10V6a2.006,2.006,0,0,0-2-2H4A2,2,0,0,0,2.01,6v4A2,2,0,0,1,2,14v4a2.006,2.006,0,0,0,2,2H20a2.006,2.006,0,0,0,2-2V14a2,2,0,0,1,0-4ZM20,8.54a3.993,3.993,0,0,0,0,6.92V18H4V15.46A4.013,4.013,0,0,0,6,12,3.992,3.992,0,0,0,4.01,8.54L4,6H20ZM9.07,16,12,14.12,14.93,16l-.89-3.36,2.69-2.2-3.47-.21L12,7l-1.27,3.22-3.47.21,2.69,2.2Z" fill="#cf276b"/>
</svg>
